<?xml version="1.0" encoding="UTF-8"?><svg id="_レイヤー_2" xmlns="http://www.w3.org/2000/svg" viewBox="0 0 449.3 104.65"><defs><style>.cls-1{fill:#fff;}</style></defs><g id="_レイヤー1"><g><g><path class="cls-1" d="M17.92,3.28c-.3,.32-.36,.42-.62,1.04-1.28,3-3,5.02-5.58,6.62-.7-.9-1.36-1.54-2.24-2.18-.12,2.08-.46,3.54-1.16,4.86-.7,1.28-1.74,2.42-3.12,3.38-.82,.56-1.5,.92-2.82,1.54-.8-1.58-1.12-2.06-2.28-3.24,2.2-.7,3.64-1.58,4.58-2.78,.96-1.24,1.3-2.66,1.3-5.32,0-.64-.02-.94-.12-1.38h3.76c-.06,.4-.08,.58-.1,1.72,0,.02-.02,.5-.02,.7q.12-.08,.46-.24c1.46-.74,2.64-1.94,3.36-3.4H3.78c-1.52,0-2.22,.04-3.18,.14V1.24c.92,.14,1.6,.18,3.24,.18H14.32c1.12,0,1.26-.02,1.72-.22l1.88,2.08Z"/><path class="cls-1" d="M29.86,.68c-.1,.18-.14,.24-.24,.5-.04,.06-.08,.18-.14,.3-.08,.2-.14,.34-.18,.42q-.26,.58-.4,.86l5.02-.06c.78,0,1-.04,1.48-.22l1.66,1.64c-.24,.4-.3,.52-.58,1.42-1.02,3.32-2.38,5.92-4.14,7.92-1.82,2.08-4.08,3.66-7.36,5.16-.66-1.28-1.28-2.06-2.4-3.04,2.84-1.04,4.92-2.32,6.68-4.08,1.48-1.5,2.6-3.38,3.34-5.68l-5.32,.06c-1.3,2.06-2.64,3.52-4.54,5.02-1.02-1.16-1.52-1.6-2.84-2.4,2.44-1.72,4.02-3.54,5.32-6.1,.52-1.04,.76-1.7,.86-2.4l3.78,.68Z"/><path class="cls-1" d="M43.9,3.16c0-1.04-.04-1.84-.14-2.48h3.84c-.12,.66-.16,1.22-.16,2.4v1.6l6.98-.76c.8-.08,1.02-.14,1.42-.32l2,1.84q-.32,.34-.66,1.1c-.58,1.22-1.36,2.54-2.16,3.54-.76,.98-1.48,1.66-2.88,2.74-.96-1.04-1.68-1.62-2.8-2.26,.82-.48,1.4-.88,2.1-1.54,.64-.58,.98-1.02,1.46-1.84l-5.48,.64v4.28c0,1.46,.04,1.78,.32,2,.22,.22,.94,.32,2.12,.32,2.44,0,4.7-.3,6.44-.84l.12,3.74h-.32c-.5,.02-.52,.04-.94,.08-1.92,.18-4.18,.32-5.34,.32-1.74,0-3.06-.12-3.84-.36-.88-.28-1.6-1.02-1.86-1.9-.2-.7-.22-.98-.22-2.9v-4.36l-1.2,.14c-1.6,.18-1.86,.22-2.64,.42l-.34-3.44c.38,.02,.64,.04,.74,.04,.28,0,1.22-.08,1.88-.14l1.56-.18v-1.88Z"/><path class="cls-1" d="M75.1,18.18c-1.74-2.2-3.5-3.94-5.74-5.68-1.88,2.22-4.26,3.98-7.36,5.48-.7-1.4-1.12-2-2.24-3.16,2.6-1,4.66-2.3,6.48-4.04,1.86-1.78,3.08-3.56,4.02-5.88l-5.2,.08c-1.72,.04-2.36,.08-3.18,.2l-.1-3.56c.78,.1,1.32,.14,2.1,.14,.16,0,.54,0,1.12-.02l6.84-.1c.94-.02,1.06-.02,1.6-.22l1.76,1.8c-.3,.3-.42,.5-.72,1.18-1.06,2.5-1.82,3.9-2.94,5.4,2.42,1.74,3.24,2.44,6.36,5.42l-2.8,2.96Z"/><path class="cls-1" d="M15.28,33.46c1.46,1.6,2.26,3.68,2.26,5.86,0,4.86-3.92,8.78-8.76,8.78S0,44.16,0,39.32c0-2.52,1-4.76,2.9-6.5,1.56-1.42,3.72-2.26,5.88-2.26,2.52,0,4.8,1.02,6.5,2.9Zm-12.46,.54c-1.3,1.46-2.02,3.34-2.02,5.32,0,4.4,3.58,7.98,7.98,7.98s7.98-3.58,7.98-7.98-3.58-7.96-8.02-7.96c-2.34,0-4.38,.92-5.92,2.64Zm11.92,5.32c0,3.3-2.66,5.96-5.96,5.96s-5.98-2.68-5.98-5.96,2.68-5.96,5.98-5.96,5.96,2.66,5.96,5.96Zm-11.18,0c0,2.88,2.34,5.2,5.2,5.2s5.22-2.34,5.22-5.2-2.34-5.2-5.22-5.2-5.2,2.32-5.2,5.2Z"/><path class="cls-1" d="M33.72,31.2c0-.46-.04-.92-.12-1.28h3.44c-.08,.4-.12,.8-.12,1.26v.76h5.08c1.18,0,1.94-.04,2.76-.12v3.06c-.8-.08-1.32-.1-2.68-.1h-13.16c-.94,0-1.82,.04-2.7,.1v-3.06c.9,.08,1.6,.12,2.78,.12h4.72v-.74Zm0,5.2c0-.48-.02-.76-.06-1.18h3.28c-.04,.24-.06,.52-.06,1.18h4.6c.94,0,1.48-.02,2.02-.08-.06,.56-.08,1.04-.08,1.8v5.96c0,2.34-.66,2.9-3.36,2.9-.46,0-.94-.02-1.74-.06-.12-1.18-.26-1.74-.72-2.94,.58,.08,1.34,.16,1.74,.16,.84,0,1.02-.12,1.02-.66v-4.32h-3.48v6.84c0,1.08,.04,1.86,.14,2.72h-3.44c.1-.86,.14-1.66,.14-2.7v-6.86h-3.14v5.42c0,1.22,.02,1.8,.1,2.56h-3.36c.08-.8,.12-1.58,.12-2.54v-6.48c0-.62-.02-1.2-.08-1.8,.7,.06,1.3,.08,2.2,.08h4.16Z"/><path class="cls-1" d="M49.52,32.38c-.28-.62-.58-1.12-1.08-1.82l3.02-.54c.56,.84,.98,1.56,1.36,2.36h1.26c-.22-.6-.56-1.36-.96-2.1l3.12-.46c.4,.84,.84,1.9,1.06,2.56h.96c.48-.86,.82-1.64,1.14-2.54l3.12,.62c-.24,.52-.66,1.32-1.02,1.92h.8c.96,0,1.52-.02,2.06-.08-.04,.46-.06,1.06-.06,1.9v1.54c0,.78,.02,1.2,.08,1.74h-2.8v1.76c0,1.26,0,1.5,.06,1.96-.66-.04-1.1-.06-2.08-.06h-2.8c-.16,.38-.24,.56-.42,.88h5c.98,0,1.4-.02,1.84-.08-.04,.46-.06,.96-.06,1.96v2.84c0,1,.02,1.48,.08,2h-3.1v-.78h-9.44v.76h-3.04c.06-.74,.08-1.4,.08-2.02v-2.8c0-.96-.02-1.38-.08-1.94,.44,.04,.96,.06,1.84,.06h3.54c.24-.38,.3-.5,.5-.88h-2.22c-1.04,0-1.42,.02-2.08,.08,.06-.56,.08-1,.08-1.98v-1.76h-2.82c.06-.54,.08-1.06,.08-1.7v-1.52c0-.74-.02-1.22-.08-1.96,.68,.06,1.24,.08,2.06,.08h1Zm11.84,2.66h-11.86v.7c.32,.02,.52,.02,.78,.02h10.34c.26,0,.44,0,.74-.02v-.7Zm-10.7,10.44h9.46v-1.06h-9.46v1.06Zm1.54-6.54h6.44v-.94h-6.44v.94Z"/><path class="cls-1" d="M71.8,37.54c-.2-.02-.42-.02-.78-.02h-.2v4.48c.64-.28,.78-.34,1.54-.68l.02,2.98c-2.02,1-3.08,1.46-5.18,2.2-.38,.14-.58,.22-.84,.36l-.5-3.2c.52-.06,.96-.18,2.08-.58v-5.56h-.18c-.7,0-1.02,.02-1.44,.08v-2.94c.4,.08,.74,.1,1.42,.1h.2v-2.28c0-1.2-.02-1.7-.12-2.38h3.12c-.1,.7-.12,1.16-.12,2.4v2.26h.34c.62,0,.82-.02,1.06-.06v1.84c.26-.04,.38-.06,.86-.18v-2.04c0-1.08-.02-1.52-.1-2.2h3.18c-.08,.8-.1,1.2-.1,2.08v1.32l1.14-.32v-2.96c0-1.08-.02-1.48-.1-2.18h3.16c-.08,.76-.12,1.42-.12,2.24v2.04l2.7-.76c.82-.24,1.18-.36,1.7-.6-.08,1.22-.12,2.28-.2,5.28-.02,1.02-.2,2.62-.32,3.08-.28,1.06-.94,1.44-2.46,1.44-.14,0-.32,0-.82-.02-.12-.94-.3-1.68-.6-2.42v1.54c0,.9,.02,1.3,.1,2.08h-3.14c.08-.72,.1-1.08,.1-2.18v-3.64l-1.14,.32v6.5c0,.56,.22,.6,2.88,.6,2.9,0,2.96-.06,2.96-2.54,1.06,.38,1.98,.6,3.08,.76-.06,1.16-.18,2.14-.38,2.82-.28,.9-.76,1.3-1.82,1.56-.8,.18-2.32,.28-4.46,.28-4.34,0-5.24-.4-5.24-2.26v-6.84c-.46,.14-.74,.24-1.14,.42l-.14-2.22Zm8.34,2.44c.22,.04,.52,.06,.68,.06,.44,0,.52-.08,.58-.56,.08-.52,.1-.98,.14-2.62l-1.4,.42v2.7Z"/><path class="cls-1" d="M89.34,33.66c-1.1,0-2.1,.04-3.04,.12v-3.16c.86,.08,1.88,.12,3.04,.12h12.16c1.12,0,2.12-.04,3.04-.12v3.16c-1-.08-1.92-.12-3.04-.12h-5.02v1.36c1.72,.92,2.26,1.24,3.26,1.9,1.68,1.08,2.54,1.74,3.92,2.94l-2.1,2.5c-1.84-1.74-3.18-2.8-5.08-4v7.04c0,1.48,.02,2.18,.12,3.14h-3.46c.1-.94,.12-1.64,.12-3.14v-11.74h-3.92Z"/><path class="cls-1" d="M122.46,38.02c1.04,0,1.74-.04,2.28-.1v2.96c-.64-.08-1.24-.1-2.2-.1h-1.2c.3,1.06,.84,2.1,1.52,2.9,.64,.78,1.34,1.34,2.42,1.92-.64,.94-1.12,1.9-1.62,3.14-1.76-1.32-2.92-2.76-3.84-4.8-1.1,2.18-2.56,3.78-4.48,4.9-.38-.82-.52-1.1-.88-1.7-2.62,.7-3.38,.84-6.56,1.32-.46,.06-.52,.08-1.3,.24l-.44-3.1h.24q.46,0,2.86-.24v-5.08h-.84c-.84,0-1.38,.04-1.98,.12v-2.82c.52,.08,1.16,.12,2.04,.12h.78v-.88c-.46,0-.72,.02-1.02,.06v-.92c-.42,.38-.64,.56-1.18,.96-.4-1.34-.62-1.88-1.22-2.92,1.7-1.14,2.68-2.24,3.46-3.88h3.08c.4,.82,.82,1.36,1.66,2.08,.28,.26,.42,.38,.98,.76,.16-.82,.24-1.48,.24-2v-.26l2.64,.48q-.08,.36-.22,1.48c-.02,.2-.04,.32-.1,.6h.8q0-2.6-.08-3.22h3.1c-.08,.6-.1,.74-.1,2.44v.78h.8c1,0,1.6-.04,2.24-.12v2.96c-.64-.06-1.38-.1-2.18-.1h-.9c-.04,1.1-.06,1.32-.1,2.02h1.3Zm-15.4,7.2c-.22-1.64-.42-2.56-.86-3.88l2-.66c.5,1.48,.7,2.34,.9,3.74l-2.04,.8Zm5.22-10.76c-.58-.62-.82-.94-1.4-1.82-.4,.76-.64,1.1-1.22,1.82h2.62Zm4.72,6.32c-.94,0-1.56,.04-2.12,.1v-2.98c.32,.04,.6,.08,1.18,.1-.82-.72-1.4-1.12-2.3-1.56,.56-.98,.96-2.08,1.24-3.36q-.82,1.14-1.4,2.18v1.6c-.32-.04-.54-.04-1.14-.04h-.44v.88h.9c.76,0,1.16-.02,1.54-.08v2.74c-.42-.06-.82-.08-1.54-.08h-.9v4.68c.94-.14,1.26-.2,2.44-.46l.02,.96c1.86-1.16,2.82-2.48,3.4-4.68h-.88Zm-2.12,.56c-.44,1.62-.62,2.18-1.04,3.16l-1.74-.78c.42-1.1,.62-1.82,.82-3.06l1.96,.68Zm3.38-3.32q.02-.34,.08-2.02h-1.36c-.28,.84-.36,1.08-.8,2,.3,.02,.44,.02,.68,.02h1.4Z"/><path class="cls-1" d="M133.72,31.1c0-.48-.02-.8-.08-1.16h3.34c-.06,.34-.1,.68-.1,1.14v.42h5.24c1.1,0,1.76-.02,2.4-.08-.06,.42-.08,.86-.08,1.58v1.58c0,.62,.04,1.08,.1,1.6h-2.88c.8,.3,1.36,.44,2.38,.58-.2,2.66-.72,3.02-4.38,3.02-3.46,0-3.92-.24-3.92-1.98v-3.56h-1.12c-.14,1.96-.82,3.42-2.02,4.4-1.04,.84-2.26,1.4-4.14,1.92,.52,.02,.88,.04,1.5,.04h10.58c1.02,0,1.96-.04,2.66-.14v3.04c-.62-.08-1.5-.12-2.64-.12h-3.66v2.02h5.02c1.32,0,2.12-.04,2.74-.12v3.04c-.62-.08-1.6-.12-2.74-.12h-12.94c-1.16,0-2.14,.04-2.76,.12v-3.04c.54,.08,1.66,.12,2.76,.12h4.82v-2.02h-3.5c-1.16,0-2.02,.04-2.62,.12v-2.96c-.5-1.22-.7-1.64-1.34-2.52,1.88-.3,2.84-.6,3.78-1.2,.98-.62,1.4-1.34,1.54-2.58h-2.26v2.54h-3.1c.08-.54,.1-1.04,.1-1.64v-2.14c0-.7-.02-1.12-.08-1.58,.64,.06,1.32,.08,2.4,.08h5v-.4Zm7.74,3.14h-2.78v2.4c0,.4,.16,.46,1.12,.46,.78,0,1.14-.08,1.24-.26,.08-.12,.1-.32,.1-.88l.32,.14v-1.86Z"/><path class="cls-1" d="M150.6,42.56c-.68,2.6-1,3.5-2.2,6.22l-2.64-2.28c.86-1.02,1.74-3.16,2.4-5.82l2.44,1.88Zm2.06-4.44c-.48,.02-1.02,.02-1.58,.02-.22,0-.36,.02-.64,.04l-1.12,1.6c-1.18-1-2.1-1.66-3.5-2.5l1.76-2.32c1.18,.68,1.94,1.16,2.84,1.82v-1.48c.38,.04,.6,.06,.74,.06q.46,0,1.5,.02h.76v-1.16h-.32c-.86,0-1.38,.02-1.96,.1v-1.56l-1.46,1.9c-1.22-1.1-1.98-1.68-3.34-2.54l1.88-2.22c1.14,.7,2.02,1.32,2.92,2.06v-.6c.6,.08,1.2,.12,1.96,.12h.32v-.3c0-.44-.04-.84-.12-1.22h3.14c-.08,.42-.12,.8-.12,1.24v.28h2.22v-.3c0-.44-.04-.8-.12-1.22h3.14c-.08,.42-.12,.8-.12,1.24v.28h.9c.76,0,1.36-.04,1.98-.12v2.96c-.62-.06-1.24-.1-1.96-.1h-.92v1.16h1.1c1.1,0,1.7-.02,2.26-.1v2.94c-.56-.08-1.22-.1-2.22-.1h-1.16c.76,.96,2.02,1.76,3.66,2.34-.68,.9-.74,.98-1.52,2.72-1.16-.66-1.66-.98-2.54-1.72v1.38c0,1.02,.02,1.32,.08,1.9-.44-.04-.7-.04-1.76-.04h-4.02v.62c0,.26,.1,.36,.36,.42,.36,.04,1.1,.08,2.16,.08,2.16,0,2.92-.04,3.2-.14,.3-.14,.34-.36,.34-2.22,.94,.46,1.6,.64,2.84,.78-.08,1.98-.16,2.46-.46,3.06-.32,.64-.9,.96-2,1.12-.82,.12-2.5,.2-4.14,.2-1.8,0-3.4-.08-3.96-.22-.96-.22-1.34-.78-1.34-1.94v-2.08c0-.66,0-1.06-.04-1.62-.3,.22-.46,.32-1,.66-.54-1.04-.94-1.62-1.74-2.52,1.1-.46,1.68-.78,2.36-1.3,.64-.5,1.12-.98,1.44-1.48h-.68Zm1.86,2.8c-.58,.58-1.02,.96-1.64,1.42,.48,.04,.74,.04,1.34,.04h3.82v-.84h-1.46c-.96,0-1.4,.02-2.06,.12v-.74Zm2.06-2.8c-.24,.48-.36,.66-.6,1.04h2.86c-.26-.36-.4-.58-.68-1.04h-1.58Zm1.96-2.74v-1.16h-2.22v1.16h2.22Z"/><path class="cls-1" d="M166.14,38.2c.4,.06,.62,.08,1.24,.08h.48c.28-.34,.44-.56,.72-.94-.98-1.3-1.58-2-2.56-2.98l1.38-2.46,.54,.6c.54-1,1-2.12,1.16-2.82l2.66,.92c-.1,.18-.18,.34-.42,.86-.44,.96-1.08,2.12-1.72,3.08,.2,.26,.26,.34,.44,.6,.88-1.38,1.5-2.48,1.8-3.28l2.24,1.26q-.16,.24-.94,1.5c-.28,.44-.66,1.02-1.3,1.9l1.52-.48c.42,1.22,.56,1.68,.78,2.56,.04-.8,.04-.82,.04-1.4v-3.84c0-.74-.02-1.48-.06-2.06,.5,.06,.98,.08,1.94,.08h1c.26-.68,.38-1.08,.52-1.68l3.12,.36c-.22,.62-.3,.82-.5,1.32h1.9c1.04,0,1.46-.02,1.96-.08-.06,.62-.08,1.08-.08,2.1v3.8c0,.98,.02,1.48,.08,2-.32-.02-.36-.02-.9-.04l1.86,1.62c-.92,.94-1.62,1.58-2.44,2.2,.9,1.08,1.62,1.72,2.68,2.4-.74,.88-1.1,1.48-1.72,2.82-1.56-1.3-2.26-2.22-3.18-4.18,.02,.22,.04,.42,.04,.52,.02,.32,.06,.92,.06,1.08v.88c-.02,1.52-.8,2.1-2.92,2.1-.3,0-.94-.02-1.32-.04-.1-.9-.2-1.44-.42-2.08-.46,.66-.78,1.04-1.6,1.86-.56-.88-1.02-1.44-1.88-2.28,.44-.32,.6-.44,.98-.78l-1.26,.18c-.02-1.48-.1-2.44-.28-3.88l1.42-.3c.22,1.34,.36,2.4,.48,3.66,.68-.74,1.02-1.34,1.34-2.38h-.42c-.48,0-.66,0-.94,.06v-2.04l-.92,.36q-.04-.24-.08-.5c-.54,.06-.94,.1-1.18,.12v6c0,1.24,.02,1.6,.12,2.22h-2.82c.08-.74,.12-1.28,.12-2.22v-5.8c-.62,.02-.76,.02-1.26,.06-.62,.02-.8,.04-1.26,.12l-.24-2.74Zm2.34,3.42c-.08,3.44-.2,4.72-.64,6.34l-1.82-1.22c.4-1.36,.52-2.4,.6-5.36l1.86,.24Zm2.14-3.42c.72-.04,1.06-.04,1.5-.08-.16-.62-.18-.66-.42-1.38-.5,.7-.58,.8-1.08,1.46Zm4.1,1.76h1.54c.4,0,.64-.02,.82-.04l.6,.86v-1.64h-1.54c-.52,0-1.34,.02-1.82,.06q.02,.14,.16,.76h.24Zm2.96,2.12c-.04,.12-.06,.22-.06,.28-.28,1.16-.76,2.4-1.42,3.54,.36,.04,.56,.06,.88,.06,.48,0,.6-.1,.6-.48v-3.4Zm-.68-7.82h4.12v-.72h-4.12v.72Zm0,2.7h4.12v-.76h-4.12v.76Zm3.54,2.18c.22,.76,.34,1.1,.7,1.78,.72-.56,1.06-.9,1.78-1.76-.44-.02-.58-.02-.84-.02h-1.64Z"/><path class="cls-1" d="M203.84,39.3c.5,1.26,1.32,2.46,2.36,3.44,1,.94,2.2,1.7,3.46,2.22,.62,.24,1.06,.38,2.06,.62-.92,1.24-1.4,2.02-1.86,3.06-2.22-.82-3.84-1.84-5.32-3.38-.94-.98-1.74-2.18-2.28-3.38-.64,1.56-1.42,2.66-2.66,3.78-1.48,1.32-3.02,2.18-5.24,2.9-.56-1.26-1.04-2.04-1.78-2.9,2.5-.62,4.12-1.44,5.4-2.74,1-1,1.54-2.04,1.92-3.62h-3.24c-1,0-2.02,.04-2.92,.12v-2.98c.86,.08,1.78,.12,2.88,.12h3.66c.02-.52,.04-1.42,.08-2.68h-4.32c-1.06,0-2.06,.04-2.96,.12v-3.08c.8,.08,1.88,.12,2.98,.12h12.1c1.06,0,2.12-.04,2.98-.12v3.08c-.94-.08-1.92-.12-2.96-.12h-4.72c-.02,1.22-.06,2.1-.08,2.68h4.12c1.1,0,2.04-.04,2.96-.12v2.98c-.94-.08-1.88-.12-2.92-.12h-3.7Z"/><path class="cls-1" d="M220.36,41.12c-.36,.62-.56,.98-.96,1.9-.58-.54-.74-.7-1.1-1.12v4.32c0,.96,.04,1.82,.12,2.54h-3.16c.08-.68,.12-1.6,.12-2.54v-3.66c-.54,.52-.86,.82-1.76,1.52-.26-1.26-.58-2.1-1.14-3.22,.86-.58,1.66-1.24,2.4-2.02,.92-.96,1.48-1.78,2.12-3.06h-2.04c-.7,0-1.28,.04-1.88,.1v-2.94c.48,.06,.78,.08,1.54,.08h.72v-1.6c0-.5-.04-1-.1-1.52h3.16c-.06,.48-.1,.98-.1,1.54v1.58c.78,0,1-.02,1.2-.06l.84,.86c0-.46-.02-.72-.06-1.18,.6,.1,.98,.12,2.12,.12h1.72v-.68c0-.96-.02-1.44-.12-2.14h3.16c-.1,.7-.12,1.2-.12,2.16v.66h1.9c1.14,0,1.54-.02,2.12-.12-.06,.6-.08,.94-.08,2.3v6.8c0,.9,.04,1.84,.08,2.56h-2.8v-.88h-1.22v2.7c0,1.28,.02,1.86,.12,2.66h-3.16c.1-.82,.12-1.36,.12-2.62v-2.74h-1.04v.94h-2.82c.08-.76,.1-1.34,.1-2.46v-.78Zm0-5.88c-.58,1.38-.88,1.98-1.64,3.2,.54,.62,.98,1.04,1.64,1.52v-4.72Zm2.66,.24v1.28h1.16v-1.28h-1.16Zm.02,3.88v1.34h1.14v-1.34h-1.14Zm5.2-2.6v-1.28h-1.26v1.28h1.26Zm.02,3.94v-1.34h-1.28v1.34h1.28Z"/><path class="cls-1" d="M235.02,42.24c-.14,2.8-.32,4.12-.82,5.88l-1.7-.92c.6-1.6,.84-3.08,.88-5.34l1.64,.38Zm4.74-2.96h.58c.72,0,1-.02,1.44-.08q-.02,.22-.06,1.86c-.06,2.34-.22,4.24-.46,5.34,1.1-2.34,1.3-4.28,1.3-12.34,0-1.88-.02-2.56-.1-3.5,.66,.08,1.18,.1,2.34,.1h4.04c1.08,0,1.58-.02,2.16-.1-.04,.52-.06,.94-.06,2.14v4.02c0,.88,.02,1.6,.08,2.2-.44-.02-.96-.04-1.6-.04h-.24c.12,1.78,.36,2.96,.9,4.32,.48,1.2,.98,1.98,1.78,2.8-1.04,1-1.52,1.62-2.2,2.82-1.1-1.44-1.76-2.7-2.3-4.34-.56-1.7-.78-2.98-.92-5.6h-1.02c-.08,5.02-.52,7.34-1.86,9.96-.9-.92-1.38-1.32-2.42-1.98-.24,.74-.36,.96-.64,1.2-.56,.5-1.24,.64-2.76,.64-.08-1.18-.2-1.86-.54-2.82,.44,.08,.82,.12,1.16,.12,.6,0,.78-.32,.92-1.6l-.82,.4c-.12-1.04-.24-1.76-.5-2.74l.76-.26c.28,.74,.46,1.44,.58,2.3,.04-.7,.06-1.18,.06-2.62h-4.28c-.7,0-1.22,.02-1.72,.08,.08-.54,.1-1.1,.1-1.86v-6.74c0-1.12-.02-1.76-.1-2.48,.62,.06,1.2,.08,2.3,.08h3.98c.96,0,1.54-.02,2.28-.1v2.64c-.52-.06-.8-.08-1.44-.08h-.72v.82h.52c.62,0,.94-.02,1.3-.06v1.98c-.44-.04-.74-.06-1.3-.06h-.52v.8h.52c.62,0,.94-.02,1.3-.06v2c-.38-.04-.74-.06-1.3-.06h-.52v.9Zm-3.4,2.76c.2,1.54,.3,2.94,.3,4.42v.72l-1.4,.24c.08-1.2,.1-1.58,.1-2.86,0-.76-.02-1.3-.12-2.34l1.12-.18Zm.88-9.02h-1.02v.82h1.02v-.82Zm0,2.68h-1.02v.8h1.02v-.8Zm-1.02,2.68v.9h1.02v-.9h-1.02Zm1.38,3.54c.3,1.2,.38,1.74,.56,3.56l-1.06,.26c-.04-1.28-.16-2.32-.42-3.58l.92-.24Zm10.44-5.74v-2.82h-2.58v.86c0,.5,0,.82-.02,1.22v.74h2.6Z"/><path class="cls-1" d="M255.38,34.16c-.9,0-1.64,.04-2.46,.1v-2.94c.72,.08,1.6,.12,2.7,.12h4.9c-.02-.6-.04-.92-.12-1.48h3.32c-.08,.56-.1,.86-.12,1.48h5.02c1.18,0,2.08-.04,2.74-.12v2.94c-.8-.06-1.6-.1-2.5-.1h-5.26v.76h4.06c1.2,0,1.52,0,2.16-.06-.06,.72-.08,1.32-.08,1.94v4.08c0,.92,0,.94,.08,1.96-.58-.06-1.14-.08-2.16-.08h-1.76c1.52,1.32,3.4,2.16,6.06,2.7-.66,1.06-.96,1.68-1.52,3-2.98-1.04-5.1-2.34-6.88-4.22,.02,.56,.04,.9,.04,1.26v.8c0,.94,.04,1.58,.14,2.34h-3.36c.1-.98,.14-1.5,.14-2.34v-.84c0-.08,.02-.48,.06-1.22-1.5,1.76-3.66,3.14-6.62,4.22-.6-1.38-.84-1.84-1.52-2.86,2.56-.68,4.46-1.6,5.84-2.84h-1.62c-1.26,0-1.46,0-2.18,.08q.02-.2,.06-.7,0-.1,.02-1.26v-4.08c0-.88-.02-1.24-.08-1.96,.56,.06,.98,.08,2.16,.08h3.88v-.76h-5.14Zm2.18,2.94v.74h2.96v-.74h-2.96Zm0,2.76v.76h2.96v-.76h-2.96Zm6.04-2.02h3.14v-.74h-3.14v.74Zm0,2.78h3.14v-.76h-3.14v.76Z"/><path class="cls-1" d="M276.64,47.54c-1.8,0-2.26,.02-3,.08,.08-.98,.18-1.58,.42-2.36,.52-1.66,1.48-3.18,2.88-4.48,.76-.7,1.52-1.28,3.56-2.66,1.72-1.16,2.14-1.68,2.14-2.6s-.86-1.6-2.14-1.6c-.96,0-1.64,.32-2.08,1-.28,.44-.4,.84-.5,1.68l-4.2-.44c.3-1.74,.66-2.62,1.46-3.56,1.14-1.34,2.96-2.06,5.3-2.06,2.7,0,4.76,.9,5.76,2.52,.44,.7,.66,1.48,.66,2.34,0,1.46-.6,2.7-1.84,3.72-.66,.58-.86,.72-2.9,2.14-1.74,1.2-2.48,1.9-2.94,2.78h4.66c1.5,0,2.42-.04,3.2-.14v3.78c-1.16-.1-2-.14-3.42-.14h-7.02Z"/><path class="cls-1" d="M296.64,32.2c0-.98-.04-1.62-.12-2.16h3.42c-.1,.64-.12,1.16-.12,2.16v3.74h3.34v-2.78c0-.7-.02-1.18-.08-1.68h3.26c-.08,.64-.1,1.06-.1,1.92v3.96c0,.68,.02,1.16,.08,1.54-.46-.06-.92-.08-1.58-.08h-4.92v5.94h3.98v-2.9c0-.68-.02-1.2-.08-1.72h3.26c-.06,.56-.1,1.22-.1,2.06v4.1c0,1.14,.04,1.72,.12,2.3h-3.2v-.86h-10.88v.86h-3.2c.08-.66,.12-1.34,.12-2.3v-4.06c0-.82-.04-1.6-.1-2.08h3.26c-.06,.46-.08,.9-.08,1.74v2.86h3.72v-5.94h-4.58c-.7,0-1.18,.02-1.64,.08,.06-.42,.08-.94,.08-1.54v-3.94c0-.36-.06-1.56-.1-1.94h3.26c-.06,.42-.08,.94-.08,1.7v2.76h3.06v-3.74Z"/><path class="cls-1" d="M310.04,48.12c.08-.7,.12-1.48,.12-2.76v-11.88c0-.92-.02-1.5-.1-2.28,.7,.08,1.34,.1,2.3,.1h12.12c.94,0,1.6-.02,2.3-.1-.08,.76-.1,1.3-.1,2.28v11.88c0,1.12,.04,2.08,.12,2.76h-3.42v-1.3h-9.92v1.3h-3.42Zm3.42-4.4h9.9v-9.32h-9.9v9.32Z"/><path class="cls-1" d="M340.16,30.26c-.08,.88-.14,2.34-.14,3.8v.28c2.34,0,4.56-.22,5.84-.58l.22,3.32c-.4,.02-.58,.04-1.4,.12-2.02,.2-2.8,.24-4.6,.28q.04,.94,.2,3.66c2.04,.7,3.4,1.42,5.68,3.04,.36,.24,.42,.28,.64,.42l-2.16,3.14c-.9-1.1-2.38-2.24-4.12-3.14,.02,.14,.02,.26,.02,.34,0,.94-.28,1.7-.84,2.26-.84,.84-2.36,1.32-4.18,1.32-1.62,0-3.04-.38-3.94-1.04-.86-.64-1.38-1.76-1.38-2.98s.54-2.24,1.56-3c1.02-.72,2.24-1.06,3.9-1.06,.52,0,.82,.02,1.4,.1-.08-1.6-.2-5.7-.24-8.42-.02-.98-.02-1.24-.1-1.88l3.64,.02Zm-4.64,13.18c-1.2,0-1.96,.4-1.96,1.02,0,.66,.62,1.06,1.62,1.06,.82,0,1.46-.3,1.66-.76,.08-.22,.1-.32,.1-.86v-.26c-.58-.16-.88-.2-1.42-.2Z"/><path class="cls-1" d="M355.84,30.52c-.28,.84-.52,2.14-.82,4.28,1.3-2.34,2.92-3.46,5.06-3.46,1.36,0,2.7,.68,3.62,1.82,1.12,1.4,1.66,3.22,1.66,5.56,0,3.28-1.02,5.72-3.06,7.32-1.14,.9-2.74,1.64-4.56,2.08-.68,.18-1.2,.28-2.36,.46-.48-1.5-.74-2.06-1.6-3.42,5.74-.34,8.06-2.22,8.06-6.54,0-2.5-.8-3.88-2.22-3.88-.74,0-1.42,.36-2.16,1.16-1.2,1.26-1.98,2.92-2.22,4.64-.06,.46-.08,.7-.08,1.64l-3.36,.04c.02-.14,.02-.26,.02-.34v-.4c-.04-.78-.06-1.98-.06-2.54,0-2.42,.14-4.72,.46-7.3,.06-.58,.08-.8,.08-1.1v-.16l3.54,.14Z"/><path class="cls-1" d="M379.64,34.44h-2.1c-.76,0-1.56,.04-2.26,.08v-2.96c.62,.08,1.24,.12,2.24,.12h2.12v-.1c0-.82-.02-1.2-.12-1.62h3.22c-.08,.42-.1,.8-.1,1.56v.16h2.12c1,0,1.6-.04,2.24-.12v2.96c-.7-.06-1.4-.08-2.16-.08h-2.2v1.48h2.86c.94,0,1.6-.02,2.28-.1v2.98c-.76-.08-1.5-.12-2.28-.12h-2.9v1.56h2.16c.94,0,1.54-.02,2.22-.1v2.98c-.66-.08-1.3-.1-2.2-.1h-2.18v2.36c.68,.1,1.52,.14,2.42,.14,.78,0,1.38-.02,2.98-.14-.46,1.28-.64,1.98-.78,3.12-.92,.02-1.42,.02-1.76,.02-4.1,0-6.46-.8-8.18-2.8-.48,1.26-.96,2.16-1.68,3.2-.7-.82-1.24-1.34-2.06-2,0,.88,.02,1.34,.08,1.84h-3.14c.08-.68,.12-1.36,.12-2.3v-2.42c0-.62,0-1.46,.02-2.5-.38,.4-.5,.52-1,.92-.42-1.6-.62-2.14-1.12-3.12,1.3-.94,2.24-1.84,3.18-3.06,.6-.76,1-1.4,1.24-1.94l1.78,1.48c.56,.06,1.3,.1,2.18,.1h2.76v-1.48Zm-4.48-2.96q-.12,.12-.7,.8c-.52,.58-1.68,1.7-2.34,2.24-.58,.48-1.32,.98-2.02,1.4-.44-1.16-.78-1.78-1.48-2.72,1.96-1.08,3.42-2.34,4.1-3.52l2.44,1.8Zm1.68,7.2c-.7,0-1.38,.04-2.22,.1v-1.72c-.32,.5-.64,.94-1.08,1.5v7.7c.74-1.1,1.22-2.26,1.58-3.76,.24-1,.38-2.08,.38-2.86v-.28l3.12,.5q-.16,.9-.34,2.06c-.04,.24-.08,.46-.14,.76,.38,.68,.78,1.14,1.44,1.64v-5.64h-2.74Z"/><path class="cls-1" d="M405.1,35.66c1.02,0,1.68-.04,2.38-.12v2.98c-.68-.08-1.42-.12-2.38-.12h-1.7c.96,1.22,2.74,2.56,4.58,3.46-.92,.98-1.22,1.34-2.06,2.5-1.86-1.16-3.62-2.76-4.98-4.56l2.06-1.4h-2.98v3.26c0,1.82-.94,2.38-3.98,2.38h-.84c-.16-1.16-.32-1.72-.7-2.68-1.1,1.24-2.08,2.08-3.5,2.96-.62-.88-1.12-1.42-2.06-2.3,1.84-1,3.28-2.28,4.1-3.62h-1.38c-1,0-1.7,.04-2.42,.12v-2.98c.7,.08,1.42,.12,2.42,.12h.26v-2.62c0-.72-.02-1.22-.1-1.76h3.24c-.08,.52-.1,1-.1,1.76v2.62h2.14v-3.68c0-.8-.04-1.4-.1-1.94h3.3c-.08,.5-.1,.96-.1,1.64h3.7c.98,0,1.62-.04,2.26-.12v2.92c-.62-.08-1.16-.1-2.26-.1h-3.7v1.28h4.9Zm-.86,8.08q-.2,.16-.98,.92c-1.72,1.66-3.94,2.86-6.36,3.5-1.52,.38-3.1,.58-5.22,.62-.3-1.24-.6-1.98-1.24-3.16,.78,.04,1.16,.06,1.68,.06,2.6,0,4.9-.48,6.76-1.4,1.22-.62,2.48-1.68,2.96-2.5l2.4,1.96Zm-8.44-4.12c-.48,.72-.68,1-1.18,1.6,.5,.06,1.04,.08,1.58,.08,.64,0,.8-.08,.8-.38v-2.52h-3.42l2.22,1.22Z"/><path class="cls-1" d="M416.7,42.46c.12,.66,.24,.94,.56,1.28,.54,.56,1.34,.86,2.3,.86,1.56,0,2.54-.78,2.54-2,0-.82-.4-1.46-1.08-1.72-.46-.16-1.08-.26-1.86-.26s-1.68,.04-2.46,.12v-3.44c.68,.08,1.34,.12,2.12,.12,1.9,0,2.84-.64,2.84-1.92,0-1.08-.76-1.7-2.08-1.7-1.42,0-2.14,.56-2.44,1.84l-4.32-.62c.38-1.24,.7-1.84,1.34-2.54,1.22-1.32,3.06-2,5.5-2,2.18,0,3.98,.6,5.12,1.7,.74,.74,1.12,1.7,1.12,2.84,0,2.12-1.14,3.44-3.44,3.98,1.22,.18,1.88,.46,2.58,1.06,.84,.76,1.32,1.8,1.32,2.96,0,1.02-.28,1.96-.8,2.66-.44,.6-1.14,1.16-1.88,1.5-1.04,.48-2.66,.78-4.16,.78-1.8,0-3.6-.42-4.66-1.12-.92-.6-1.62-1.48-2.06-2.58-.12-.28-.2-.54-.34-1.06l4.24-.74Z"/><path class="cls-1" d="M435.68,39.24c-.54,0-.9,.02-1.36,.08v-1.12c-.96,1-1.44,1.42-2.48,2.22-.64-1.14-1.14-1.86-2.04-2.82,2.3-1.6,3.86-3.38,5.04-5.7,.4-.78,.6-1.28,.7-1.86l3.28,1.2c-.2,.34-.3,.52-.52,1.02-.56,1.22-1.56,2.88-2.54,4.2h7.54c-1.06-1.36-1.86-2.74-2.58-4.4-.12-.3-.26-.58-.38-.86l2.98-1.14c.16,.54,.32,.92,.82,1.84,1.2,2.2,2.88,3.94,5.16,5.34-.96,1.2-1.2,1.56-2.02,3.06-.86-.64-1.2-.92-1.7-1.38-.02,4.02-.3,6.74-.8,7.82-.54,1.16-1.5,1.54-3.98,1.54q-.2,0-1.42-.02c-.14-1.18-.32-1.84-.86-3.2,.84,.12,1.64,.18,2.12,.18,1.04,0,1.28-.14,1.48-.98,.2-.78,.34-2.76,.34-5.02h-3.04c-.22,2.16-.66,3.54-1.6,5.1-.78,1.28-1.84,2.4-3.16,3.32-.62,.42-1.04,.66-2,1.1-.64-1.14-1.04-1.7-1.98-2.72,2.34-.94,3.78-2.08,4.66-3.68,.56-1,.78-1.82,.86-3.12h-.52Z"/></g><g><path class="cls-1" d="M15.28,61.09c1.46,1.6,2.26,3.68,2.26,5.86,0,4.86-3.92,8.78-8.76,8.78S0,71.8,0,66.96c0-2.52,1-4.76,2.9-6.5,1.56-1.42,3.72-2.26,5.88-2.26,2.52,0,4.8,1.02,6.5,2.9Zm-12.46,.54c-1.3,1.46-2.02,3.34-2.02,5.32,0,4.4,3.58,7.98,7.98,7.98s7.98-3.58,7.98-7.98-3.58-7.96-8.02-7.96c-2.34,0-4.38,.92-5.92,2.64Zm11.92,5.32c0,3.3-2.66,5.96-5.96,5.96s-5.98-2.68-5.98-5.96,2.68-5.96,5.98-5.96,5.96,2.66,5.96,5.96Zm-11.18,0c0,2.88,2.34,5.2,5.2,5.2s5.22-2.34,5.22-5.2-2.34-5.2-5.22-5.2-5.2,2.32-5.2,5.2Z"/><path class="cls-1" d="M33.72,58.83c0-.46-.04-.92-.12-1.28h3.44c-.08,.4-.12,.8-.12,1.26v.76h5.08c1.18,0,1.94-.04,2.76-.12v3.06c-.8-.08-1.32-.1-2.68-.1h-13.16c-.94,0-1.82,.04-2.7,.1v-3.06c.9,.08,1.6,.12,2.78,.12h4.72v-.74Zm0,5.2c0-.48-.02-.76-.06-1.18h3.28c-.04,.24-.06,.52-.06,1.18h4.6c.94,0,1.48-.02,2.02-.08-.06,.56-.08,1.04-.08,1.8v5.96c0,2.34-.66,2.9-3.36,2.9-.46,0-.94-.02-1.74-.06-.12-1.18-.26-1.74-.72-2.94,.58,.08,1.34,.16,1.74,.16,.84,0,1.02-.12,1.02-.66v-4.32h-3.48v6.84c0,1.08,.04,1.86,.14,2.72h-3.44c.1-.86,.14-1.66,.14-2.7v-6.86h-3.14v5.42c0,1.22,.02,1.8,.1,2.56h-3.36c.08-.8,.12-1.58,.12-2.54v-6.48c0-.62-.02-1.2-.08-1.8,.7,.06,1.3,.08,2.2,.08h4.16Z"/><path class="cls-1" d="M49.52,60.01c-.28-.62-.58-1.12-1.08-1.82l3.02-.54c.56,.84,.98,1.56,1.36,2.36h1.26c-.22-.6-.56-1.36-.96-2.1l3.12-.46c.4,.84,.84,1.9,1.06,2.56h.96c.48-.86,.82-1.64,1.14-2.54l3.12,.62c-.24,.52-.66,1.32-1.02,1.92h.8c.96,0,1.52-.02,2.06-.08-.04,.46-.06,1.06-.06,1.9v1.54c0,.78,.02,1.2,.08,1.74h-2.8v1.76c0,1.26,0,1.5,.06,1.96-.66-.04-1.1-.06-2.08-.06h-2.8c-.16,.38-.24,.56-.42,.88h5c.98,0,1.4-.02,1.84-.08-.04,.46-.06,.96-.06,1.96v2.84c0,1,.02,1.48,.08,2h-3.1v-.78h-9.44v.76h-3.04c.06-.74,.08-1.4,.08-2.02v-2.8c0-.96-.02-1.38-.08-1.94,.44,.04,.96,.06,1.84,.06h3.54c.24-.38,.3-.5,.5-.88h-2.22c-1.04,0-1.42,.02-2.08,.08,.06-.56,.08-1,.08-1.98v-1.76h-2.82c.06-.54,.08-1.06,.08-1.7v-1.52c0-.74-.02-1.22-.08-1.96,.68,.06,1.24,.08,2.06,.08h1Zm11.84,2.66h-11.86v.7c.32,.02,.52,.02,.78,.02h10.34c.26,0,.44,0,.74-.02v-.7Zm-10.7,10.44h9.46v-1.06h-9.46v1.06Zm1.54-6.54h6.44v-.94h-6.44v.94Z"/><path class="cls-1" d="M71.8,65.17c-.2-.02-.42-.02-.78-.02h-.2v4.48c.64-.28,.78-.34,1.54-.68l.02,2.98c-2.02,1-3.08,1.46-5.18,2.2-.38,.14-.58,.22-.84,.36l-.5-3.2c.52-.06,.96-.18,2.08-.58v-5.56h-.18c-.7,0-1.02,.02-1.44,.08v-2.94c.4,.08,.74,.1,1.42,.1h.2v-2.28c0-1.2-.02-1.7-.12-2.38h3.12c-.1,.7-.12,1.16-.12,2.4v2.26h.34c.62,0,.82-.02,1.06-.06v1.84c.26-.04,.38-.06,.86-.18v-2.04c0-1.08-.02-1.52-.1-2.2h3.18c-.08,.8-.1,1.2-.1,2.08v1.32l1.14-.32v-2.96c0-1.08-.02-1.48-.1-2.18h3.16c-.08,.76-.12,1.42-.12,2.24v2.04l2.7-.76c.82-.24,1.18-.36,1.7-.6-.08,1.22-.12,2.28-.2,5.28-.02,1.02-.2,2.62-.32,3.08-.28,1.06-.94,1.44-2.46,1.44-.14,0-.32,0-.82-.02-.12-.94-.3-1.68-.6-2.42v1.54c0,.9,.02,1.3,.1,2.08h-3.14c.08-.72,.1-1.08,.1-2.18v-3.64l-1.14,.32v6.5c0,.56,.22,.6,2.88,.6,2.9,0,2.96-.06,2.96-2.54,1.06,.38,1.98,.6,3.08,.76-.06,1.16-.18,2.14-.38,2.82-.28,.9-.76,1.3-1.82,1.56-.8,.18-2.32,.28-4.46,.28-4.34,0-5.24-.4-5.24-2.26v-6.84c-.46,.14-.74,.24-1.14,.42l-.14-2.22Zm8.34,2.44c.22,.04,.52,.06,.68,.06,.44,0,.52-.08,.58-.56,.08-.52,.1-.98,.14-2.62l-1.4,.42v2.7Z"/><path class="cls-1" d="M89.34,61.29c-1.1,0-2.1,.04-3.04,.12v-3.16c.86,.08,1.88,.12,3.04,.12h12.16c1.12,0,2.12-.04,3.04-.12v3.16c-1-.08-1.92-.12-3.04-.12h-5.02v1.36c1.72,.92,2.26,1.24,3.26,1.9,1.68,1.08,2.54,1.74,3.92,2.94l-2.1,2.5c-1.84-1.74-3.18-2.8-5.08-4v7.04c0,1.48,.02,2.18,.12,3.14h-3.46c.1-.94,.12-1.64,.12-3.14v-11.74h-3.92Z"/><path class="cls-1" d="M122.46,65.65c1.04,0,1.74-.04,2.28-.1v2.96c-.64-.08-1.24-.1-2.2-.1h-1.2c.3,1.06,.84,2.1,1.52,2.9,.64,.78,1.34,1.34,2.42,1.92-.64,.94-1.12,1.9-1.62,3.14-1.76-1.32-2.92-2.76-3.84-4.8-1.1,2.18-2.56,3.78-4.48,4.9-.38-.82-.52-1.1-.88-1.7-2.62,.7-3.38,.84-6.56,1.32-.46,.06-.52,.08-1.3,.24l-.44-3.1h.24q.46,0,2.86-.24v-5.08h-.84c-.84,0-1.38,.04-1.98,.12v-2.82c.52,.08,1.16,.12,2.04,.12h.78v-.88c-.46,0-.72,.02-1.02,.06v-.92c-.42,.38-.64,.56-1.18,.96-.4-1.34-.62-1.88-1.22-2.92,1.7-1.14,2.68-2.24,3.46-3.88h3.08c.4,.82,.82,1.36,1.66,2.08,.28,.26,.42,.38,.98,.76,.16-.82,.24-1.48,.24-2v-.26l2.64,.48q-.08,.36-.22,1.48c-.02,.2-.04,.32-.1,.6h.8q0-2.6-.08-3.22h3.1c-.08,.6-.1,.74-.1,2.44v.78h.8c1,0,1.6-.04,2.24-.12v2.96c-.64-.06-1.38-.1-2.18-.1h-.9c-.04,1.1-.06,1.32-.1,2.02h1.3Zm-15.4,7.2c-.22-1.64-.42-2.56-.86-3.88l2-.66c.5,1.48,.7,2.34,.9,3.74l-2.04,.8Zm5.22-10.76c-.58-.62-.82-.94-1.4-1.82-.4,.76-.64,1.1-1.22,1.82h2.62Zm4.72,6.32c-.94,0-1.56,.04-2.12,.1v-2.98c.32,.04,.6,.08,1.18,.1-.82-.72-1.4-1.12-2.3-1.56,.56-.98,.96-2.08,1.24-3.36q-.82,1.14-1.4,2.18v1.6c-.32-.04-.54-.04-1.14-.04h-.44v.88h.9c.76,0,1.16-.02,1.54-.08v2.74c-.42-.06-.82-.08-1.54-.08h-.9v4.68c.94-.14,1.26-.2,2.44-.46l.02,.96c1.86-1.16,2.82-2.48,3.4-4.68h-.88Zm-2.12,.56c-.44,1.62-.62,2.18-1.04,3.16l-1.74-.78c.42-1.1,.62-1.82,.82-3.06l1.96,.68Zm3.38-3.32q.02-.34,.08-2.02h-1.36c-.28,.84-.36,1.08-.8,2,.3,.02,.44,.02,.68,.02h1.4Z"/><path class="cls-1" d="M133.72,58.73c0-.48-.02-.8-.08-1.16h3.34c-.06,.34-.1,.68-.1,1.14v.42h5.24c1.1,0,1.76-.02,2.4-.08-.06,.42-.08,.86-.08,1.58v1.58c0,.62,.04,1.08,.1,1.6h-2.88c.8,.3,1.36,.44,2.38,.58-.2,2.66-.72,3.02-4.38,3.02-3.46,0-3.92-.24-3.92-1.98v-3.56h-1.12c-.14,1.96-.82,3.42-2.02,4.4-1.04,.84-2.26,1.4-4.14,1.92,.52,.02,.88,.04,1.5,.04h10.58c1.02,0,1.96-.04,2.66-.14v3.04c-.62-.08-1.5-.12-2.64-.12h-3.66v2.02h5.02c1.32,0,2.12-.04,2.74-.12v3.04c-.62-.08-1.6-.12-2.74-.12h-12.94c-1.16,0-2.14,.04-2.76,.12v-3.04c.54,.08,1.66,.12,2.76,.12h4.82v-2.02h-3.5c-1.16,0-2.02,.04-2.62,.12v-2.96c-.5-1.22-.7-1.64-1.34-2.52,1.88-.3,2.84-.6,3.78-1.2,.98-.62,1.4-1.34,1.54-2.58h-2.26v2.54h-3.1c.08-.54,.1-1.04,.1-1.64v-2.14c0-.7-.02-1.12-.08-1.58,.64,.06,1.32,.08,2.4,.08h5v-.4Zm7.74,3.14h-2.78v2.4c0,.4,.16,.46,1.12,.46,.78,0,1.14-.08,1.24-.26,.08-.12,.1-.32,.1-.88l.32,.14v-1.86Z"/><path class="cls-1" d="M150.6,70.2c-.68,2.6-1,3.5-2.2,6.22l-2.64-2.28c.86-1.02,1.74-3.16,2.4-5.82l2.44,1.88Zm2.06-4.44c-.48,.02-1.02,.02-1.58,.02-.22,0-.36,.02-.64,.04l-1.12,1.6c-1.18-1-2.1-1.66-3.5-2.5l1.76-2.32c1.18,.68,1.94,1.16,2.84,1.82v-1.48c.38,.04,.6,.06,.74,.06q.46,0,1.5,.02h.76v-1.16h-.32c-.86,0-1.38,.02-1.96,.1v-1.56l-1.46,1.9c-1.22-1.1-1.98-1.68-3.34-2.54l1.88-2.22c1.14,.7,2.02,1.32,2.92,2.06v-.6c.6,.08,1.2,.12,1.96,.12h.32v-.3c0-.44-.04-.84-.12-1.22h3.14c-.08,.42-.12,.8-.12,1.24v.28h2.22v-.3c0-.44-.04-.8-.12-1.22h3.14c-.08,.42-.12,.8-.12,1.24v.28h.9c.76,0,1.36-.04,1.98-.12v2.96c-.62-.06-1.24-.1-1.96-.1h-.92v1.16h1.1c1.1,0,1.7-.02,2.26-.1v2.94c-.56-.08-1.22-.1-2.22-.1h-1.16c.76,.96,2.02,1.76,3.66,2.34-.68,.9-.74,.98-1.52,2.72-1.16-.66-1.66-.98-2.54-1.72v1.38c0,1.02,.02,1.32,.08,1.9-.44-.04-.7-.04-1.76-.04h-4.02v.62c0,.26,.1,.36,.36,.42,.36,.04,1.1,.08,2.16,.08,2.16,0,2.92-.04,3.2-.14,.3-.14,.34-.36,.34-2.22,.94,.46,1.6,.64,2.84,.78-.08,1.98-.16,2.46-.46,3.06-.32,.64-.9,.96-2,1.12-.82,.12-2.5,.2-4.14,.2-1.8,0-3.4-.08-3.96-.22-.96-.22-1.34-.78-1.34-1.94v-2.08c0-.66,0-1.06-.04-1.62-.3,.22-.46,.32-1,.66-.54-1.04-.94-1.62-1.74-2.52,1.1-.46,1.68-.78,2.36-1.3,.64-.5,1.12-.98,1.44-1.48h-.68Zm1.86,2.8c-.58,.58-1.02,.96-1.64,1.42,.48,.04,.74,.04,1.34,.04h3.82v-.84h-1.46c-.96,0-1.4,.02-2.06,.12v-.74Zm2.06-2.8c-.24,.48-.36,.66-.6,1.04h2.86c-.26-.36-.4-.58-.68-1.04h-1.58Zm1.96-2.74v-1.16h-2.22v1.16h2.22Z"/><path class="cls-1" d="M166.14,65.83c.4,.06,.62,.08,1.24,.08h.48c.28-.34,.44-.56,.72-.94-.98-1.3-1.58-2-2.56-2.98l1.38-2.46,.54,.6c.54-1,1-2.12,1.16-2.82l2.66,.92c-.1,.18-.18,.34-.42,.86-.44,.96-1.08,2.12-1.72,3.08,.2,.26,.26,.34,.44,.6,.88-1.38,1.5-2.48,1.8-3.28l2.24,1.26q-.16,.24-.94,1.5c-.28,.44-.66,1.02-1.3,1.9l1.52-.48c.42,1.22,.56,1.68,.78,2.56,.04-.8,.04-.82,.04-1.4v-3.84c0-.74-.02-1.48-.06-2.06,.5,.06,.98,.08,1.94,.08h1c.26-.68,.38-1.08,.52-1.68l3.12,.36c-.22,.62-.3,.82-.5,1.32h1.9c1.04,0,1.46-.02,1.96-.08-.06,.62-.08,1.08-.08,2.1v3.8c0,.98,.02,1.48,.08,2-.32-.02-.36-.02-.9-.04l1.86,1.62c-.92,.94-1.62,1.58-2.44,2.2,.9,1.08,1.62,1.72,2.68,2.4-.74,.88-1.1,1.48-1.72,2.82-1.56-1.3-2.26-2.22-3.18-4.18,.02,.22,.04,.42,.04,.52,.02,.32,.06,.92,.06,1.08v.88c-.02,1.52-.8,2.1-2.92,2.1-.3,0-.94-.02-1.32-.04-.1-.9-.2-1.44-.42-2.08-.46,.66-.78,1.04-1.6,1.86-.56-.88-1.02-1.44-1.88-2.28,.44-.32,.6-.44,.98-.78l-1.26,.18c-.02-1.48-.1-2.44-.28-3.88l1.42-.3c.22,1.34,.36,2.4,.48,3.66,.68-.74,1.02-1.34,1.34-2.38h-.42c-.48,0-.66,0-.94,.06v-2.04l-.92,.36q-.04-.24-.08-.5c-.54,.06-.94,.1-1.18,.12v6c0,1.24,.02,1.6,.12,2.22h-2.82c.08-.74,.12-1.28,.12-2.22v-5.8c-.62,.02-.76,.02-1.26,.06-.62,.02-.8,.04-1.26,.12l-.24-2.74Zm2.34,3.42c-.08,3.44-.2,4.72-.64,6.34l-1.82-1.22c.4-1.36,.52-2.4,.6-5.36l1.86,.24Zm2.14-3.42c.72-.04,1.06-.04,1.5-.08-.16-.62-.18-.66-.42-1.38-.5,.7-.58,.8-1.08,1.46Zm4.1,1.76h1.54c.4,0,.64-.02,.82-.04l.6,.86v-1.64h-1.54c-.52,0-1.34,.02-1.82,.06q.02,.14,.16,.76h.24Zm2.96,2.12c-.04,.12-.06,.22-.06,.28-.28,1.16-.76,2.4-1.42,3.54,.36,.04,.56,.06,.88,.06,.48,0,.6-.1,.6-.48v-3.4Zm-.68-7.82h4.12v-.72h-4.12v.72Zm0,2.7h4.12v-.76h-4.12v.76Zm3.54,2.18c.22,.76,.34,1.1,.7,1.78,.72-.56,1.06-.9,1.78-1.76-.44-.02-.58-.02-.84-.02h-1.64Z"/><path class="cls-1" d="M203.84,66.93c.5,1.26,1.32,2.46,2.36,3.44,1,.94,2.2,1.7,3.46,2.22,.62,.24,1.06,.38,2.06,.62-.92,1.24-1.4,2.02-1.86,3.06-2.22-.82-3.84-1.84-5.32-3.38-.94-.98-1.74-2.18-2.28-3.38-.64,1.56-1.42,2.66-2.66,3.78-1.48,1.32-3.02,2.18-5.24,2.9-.56-1.26-1.04-2.04-1.78-2.9,2.5-.62,4.12-1.44,5.4-2.74,1-1,1.54-2.04,1.92-3.62h-3.24c-1,0-2.02,.04-2.92,.12v-2.98c.86,.08,1.78,.12,2.88,.12h3.66c.02-.52,.04-1.42,.08-2.68h-4.32c-1.06,0-2.06,.04-2.96,.12v-3.08c.8,.08,1.88,.12,2.98,.12h12.1c1.06,0,2.12-.04,2.98-.12v3.08c-.94-.08-1.92-.12-2.96-.12h-4.72c-.02,1.22-.06,2.1-.08,2.68h4.12c1.1,0,2.04-.04,2.96-.12v2.98c-.94-.08-1.88-.12-2.92-.12h-3.7Z"/><path class="cls-1" d="M220.36,68.76c-.36,.62-.56,.98-.96,1.9-.58-.54-.74-.7-1.1-1.12v4.32c0,.96,.04,1.82,.12,2.54h-3.16c.08-.68,.12-1.6,.12-2.54v-3.66c-.54,.52-.86,.82-1.76,1.52-.26-1.26-.58-2.1-1.14-3.22,.86-.58,1.66-1.24,2.4-2.02,.92-.96,1.48-1.78,2.12-3.06h-2.04c-.7,0-1.28,.04-1.88,.1v-2.94c.48,.06,.78,.08,1.54,.08h.72v-1.6c0-.5-.04-1-.1-1.52h3.16c-.06,.48-.1,.98-.1,1.54v1.58c.78,0,1-.02,1.2-.06l.84,.86c0-.46-.02-.72-.06-1.18,.6,.1,.98,.12,2.12,.12h1.72v-.68c0-.96-.02-1.44-.12-2.14h3.16c-.1,.7-.12,1.2-.12,2.16v.66h1.9c1.14,0,1.54-.02,2.12-.12-.06,.6-.08,.94-.08,2.3v6.8c0,.9,.04,1.84,.08,2.56h-2.8v-.88h-1.22v2.7c0,1.28,.02,1.86,.12,2.66h-3.16c.1-.82,.12-1.36,.12-2.62v-2.74h-1.04v.94h-2.82c.08-.76,.1-1.34,.1-2.46v-.78Zm0-5.88c-.58,1.38-.88,1.98-1.64,3.2,.54,.62,.98,1.04,1.64,1.52v-4.72Zm2.66,.24v1.28h1.16v-1.28h-1.16Zm.02,3.88v1.34h1.14v-1.34h-1.14Zm5.2-2.6v-1.28h-1.26v1.28h1.26Zm.02,3.94v-1.34h-1.28v1.34h1.28Z"/><path class="cls-1" d="M235.02,69.88c-.14,2.8-.32,4.12-.82,5.88l-1.7-.92c.6-1.6,.84-3.08,.88-5.34l1.64,.38Zm4.74-2.96h.58c.72,0,1-.02,1.44-.08q-.02,.22-.06,1.86c-.06,2.34-.22,4.24-.46,5.34,1.1-2.34,1.3-4.28,1.3-12.34,0-1.88-.02-2.56-.1-3.5,.66,.08,1.18,.1,2.34,.1h4.04c1.08,0,1.58-.02,2.16-.1-.04,.52-.06,.94-.06,2.14v4.02c0,.88,.02,1.6,.08,2.2-.44-.02-.96-.04-1.6-.04h-.24c.12,1.78,.36,2.96,.9,4.32,.48,1.2,.98,1.98,1.78,2.8-1.04,1-1.52,1.62-2.2,2.82-1.1-1.44-1.76-2.7-2.3-4.34-.56-1.7-.78-2.98-.92-5.6h-1.02c-.08,5.02-.52,7.34-1.86,9.96-.9-.92-1.38-1.32-2.42-1.98-.24,.74-.36,.96-.64,1.2-.56,.5-1.24,.64-2.76,.64-.08-1.18-.2-1.86-.54-2.82,.44,.08,.82,.12,1.16,.12,.6,0,.78-.32,.92-1.6l-.82,.4c-.12-1.04-.24-1.76-.5-2.74l.76-.26c.28,.74,.46,1.44,.58,2.3,.04-.7,.06-1.18,.06-2.62h-4.28c-.7,0-1.22,.02-1.72,.08,.08-.54,.1-1.1,.1-1.86v-6.74c0-1.12-.02-1.76-.1-2.48,.62,.06,1.2,.08,2.3,.08h3.98c.96,0,1.54-.02,2.28-.1v2.64c-.52-.06-.8-.08-1.44-.08h-.72v.82h.52c.62,0,.94-.02,1.3-.06v1.98c-.44-.04-.74-.06-1.3-.06h-.52v.8h.52c.62,0,.94-.02,1.3-.06v2c-.38-.04-.74-.06-1.3-.06h-.52v.9Zm-3.4,2.76c.2,1.54,.3,2.94,.3,4.42v.72l-1.4,.24c.08-1.2,.1-1.58,.1-2.86,0-.76-.02-1.3-.12-2.34l1.12-.18Zm.88-9.02h-1.02v.82h1.02v-.82Zm0,2.68h-1.02v.8h1.02v-.8Zm-1.02,2.68v.9h1.02v-.9h-1.02Zm1.38,3.54c.3,1.2,.38,1.74,.56,3.56l-1.06,.26c-.04-1.28-.16-2.32-.42-3.58l.92-.24Zm10.44-5.74v-2.82h-2.58v.86c0,.5,0,.82-.02,1.22v.74h2.6Z"/><path class="cls-1" d="M259.96,58.39c.72,.12,1.24,.14,2.4,.14h2.54c1.42,0,1.68,0,2.48-.08-.1,1.06-.14,1.9-.14,3.22v10.48c0,1.2,.04,2.04,.16,3.02h-4.36c.12-.92,.16-1.86,.16-3.02v-10.2h-.8c-.78,0-1.56,.04-2.44,.14v-3.7Z"/><path class="cls-1" d="M276.5,75.18c-1.8,0-2.26,.02-3,.08,.08-.98,.18-1.58,.42-2.36,.52-1.66,1.48-3.18,2.88-4.48,.76-.7,1.52-1.28,3.56-2.66,1.72-1.16,2.14-1.68,2.14-2.6s-.86-1.6-2.14-1.6c-.96,0-1.64,.32-2.08,1-.28,.44-.4,.84-.5,1.68l-4.2-.44c.3-1.74,.66-2.62,1.46-3.56,1.14-1.34,2.96-2.06,5.3-2.06,2.7,0,4.76,.9,5.76,2.52,.44,.7,.66,1.48,.66,2.34,0,1.46-.6,2.7-1.84,3.72-.66,.58-.86,.72-2.9,2.14-1.74,1.2-2.48,1.9-2.94,2.78h4.66c1.5,0,2.42-.04,3.2-.14v3.78c-1.16-.1-2-.14-3.42-.14h-7.02Z"/><path class="cls-1" d="M301.3,59.83c0-.98-.04-1.62-.12-2.16h3.42c-.1,.64-.12,1.16-.12,2.16v3.74h3.34v-2.78c0-.7-.02-1.18-.08-1.68h3.26c-.08,.64-.1,1.06-.1,1.92v3.96c0,.68,.02,1.16,.08,1.54-.46-.06-.92-.08-1.58-.08h-4.92v5.94h3.98v-2.9c0-.68-.02-1.2-.08-1.72h3.26c-.06,.56-.1,1.22-.1,2.06v4.1c0,1.14,.04,1.72,.12,2.3h-3.2v-.86h-10.88v.86h-3.2c.08-.66,.12-1.34,.12-2.3v-4.06c0-.82-.04-1.6-.1-2.08h3.26c-.06,.46-.08,.9-.08,1.74v2.86h3.72v-5.94h-4.58c-.7,0-1.18,.02-1.64,.08,.06-.42,.08-.94,.08-1.54v-3.94c0-.36-.06-1.56-.1-1.94h3.26c-.06,.42-.08,.94-.08,1.7v2.76h3.06v-3.74Z"/><path class="cls-1" d="M314.7,75.76c.08-.7,.12-1.48,.12-2.76v-11.88c0-.92-.02-1.5-.1-2.28,.7,.08,1.34,.1,2.3,.1h12.12c.94,0,1.6-.02,2.3-.1-.08,.76-.1,1.3-.1,2.28v11.88c0,1.12,.04,2.08,.12,2.76h-3.42v-1.3h-9.92v1.3h-3.42Zm3.42-4.4h9.9v-9.32h-9.9v9.32Z"/><path class="cls-1" d="M344.82,57.89c-.08,.88-.14,2.34-.14,3.8v.28c2.34,0,4.56-.22,5.84-.58l.22,3.32c-.4,.02-.58,.04-1.4,.12-2.02,.2-2.8,.24-4.6,.28q.04,.94,.2,3.66c2.04,.7,3.4,1.42,5.68,3.04,.36,.24,.42,.28,.64,.42l-2.16,3.14c-.9-1.1-2.38-2.24-4.12-3.14,.02,.14,.02,.26,.02,.34,0,.94-.28,1.7-.84,2.26-.84,.84-2.36,1.32-4.18,1.32-1.62,0-3.04-.38-3.94-1.04-.86-.64-1.38-1.76-1.38-2.98s.54-2.24,1.56-3c1.02-.72,2.24-1.06,3.9-1.06,.52,0,.82,.02,1.4,.1-.08-1.6-.2-5.7-.24-8.42-.02-.98-.02-1.24-.1-1.88l3.64,.02Zm-4.64,13.18c-1.2,0-1.96,.4-1.96,1.02,0,.66,.62,1.06,1.62,1.06,.82,0,1.46-.3,1.66-.76,.08-.22,.1-.32,.1-.86v-.26c-.58-.16-.88-.2-1.42-.2Z"/><path class="cls-1" d="M360.5,58.15c-.28,.84-.52,2.14-.82,4.28,1.3-2.34,2.92-3.46,5.06-3.46,1.36,0,2.7,.68,3.62,1.82,1.12,1.4,1.66,3.22,1.66,5.56,0,3.28-1.02,5.72-3.06,7.32-1.14,.9-2.74,1.64-4.56,2.08-.68,.18-1.2,.28-2.36,.46-.48-1.5-.74-2.06-1.6-3.42,5.74-.34,8.06-2.22,8.06-6.54,0-2.5-.8-3.88-2.22-3.88-.74,0-1.42,.36-2.16,1.16-1.2,1.26-1.98,2.92-2.22,4.64-.06,.46-.08,.7-.08,1.64l-3.36,.04c.02-.14,.02-.26,.02-.34v-.4c-.04-.78-.06-1.98-.06-2.54,0-2.42,.14-4.72,.46-7.3,.06-.58,.08-.8,.08-1.1v-.16l3.54,.14Z"/><path class="cls-1" d="M384.3,62.07h-2.1c-.76,0-1.56,.04-2.26,.08v-2.96c.62,.08,1.24,.12,2.24,.12h2.12v-.1c0-.82-.02-1.2-.12-1.62h3.22c-.08,.42-.1,.8-.1,1.56v.16h2.12c1,0,1.6-.04,2.24-.12v2.96c-.7-.06-1.4-.08-2.16-.08h-2.2v1.48h2.86c.94,0,1.6-.02,2.28-.1v2.98c-.76-.08-1.5-.12-2.28-.12h-2.9v1.56h2.16c.94,0,1.54-.02,2.22-.1v2.98c-.66-.08-1.3-.1-2.2-.1h-2.18v2.36c.68,.1,1.52,.14,2.42,.14,.78,0,1.38-.02,2.98-.14-.46,1.28-.64,1.98-.78,3.12-.92,.02-1.42,.02-1.76,.02-4.1,0-6.46-.8-8.18-2.8-.48,1.26-.96,2.16-1.68,3.2-.7-.82-1.24-1.34-2.06-2,0,.88,.02,1.34,.08,1.84h-3.14c.08-.68,.12-1.36,.12-2.3v-2.42c0-.62,0-1.46,.02-2.5-.38,.4-.5,.52-1,.92-.42-1.6-.62-2.14-1.12-3.12,1.3-.94,2.24-1.84,3.18-3.06,.6-.76,1-1.4,1.24-1.94l1.78,1.48c.56,.06,1.3,.1,2.18,.1h2.76v-1.48Zm-4.48-2.96q-.12,.12-.7,.8c-.52,.58-1.68,1.7-2.34,2.24-.58,.48-1.32,.98-2.02,1.4-.44-1.16-.78-1.78-1.48-2.72,1.96-1.08,3.42-2.34,4.1-3.52l2.44,1.8Zm1.68,7.2c-.7,0-1.38,.04-2.22,.1v-1.72c-.32,.5-.64,.94-1.08,1.5v7.7c.74-1.1,1.22-2.26,1.58-3.76,.24-1,.38-2.08,.38-2.86v-.28l3.12,.5q-.16,.9-.34,2.06c-.04,.24-.08,.46-.14,.76,.38,.68,.78,1.14,1.44,1.64v-5.64h-2.74Z"/><path class="cls-1" d="M409.76,63.29c1.02,0,1.68-.04,2.38-.12v2.98c-.68-.08-1.42-.12-2.38-.12h-1.7c.96,1.22,2.74,2.56,4.58,3.46-.92,.98-1.22,1.34-2.06,2.5-1.86-1.16-3.62-2.76-4.98-4.56l2.06-1.4h-2.98v3.26c0,1.82-.94,2.38-3.98,2.38h-.84c-.16-1.16-.32-1.72-.7-2.68-1.1,1.24-2.08,2.08-3.5,2.96-.62-.88-1.12-1.42-2.06-2.3,1.84-1,3.28-2.28,4.1-3.62h-1.38c-1,0-1.7,.04-2.42,.12v-2.98c.7,.08,1.42,.12,2.42,.12h.26v-2.62c0-.72-.02-1.22-.1-1.76h3.24c-.08,.52-.1,1-.1,1.76v2.62h2.14v-3.68c0-.8-.04-1.4-.1-1.94h3.3c-.08,.5-.1,.96-.1,1.64h3.7c.98,0,1.62-.04,2.26-.12v2.92c-.62-.08-1.16-.1-2.26-.1h-3.7v1.28h4.9Zm-.86,8.08q-.2,.16-.98,.92c-1.72,1.66-3.94,2.86-6.36,3.5-1.52,.38-3.1,.58-5.22,.62-.3-1.24-.6-1.98-1.24-3.16,.78,.04,1.16,.06,1.68,.06,2.6,0,4.9-.48,6.76-1.4,1.22-.62,2.48-1.68,2.96-2.5l2.4,1.96Zm-8.44-4.12c-.48,.72-.68,1-1.18,1.6,.5,.06,1.04,.08,1.58,.08,.64,0,.8-.08,.8-.38v-2.52h-3.42l2.22,1.22Z"/><path class="cls-1" d="M416.48,58.39c.72,.12,1.24,.14,2.4,.14h2.54c1.42,0,1.68,0,2.48-.08-.1,1.06-.14,1.9-.14,3.22v10.48c0,1.2,.04,2.04,.16,3.02h-4.36c.12-.92,.16-1.86,.16-3.02v-10.2h-.8c-.78,0-1.56,.04-2.44,.14v-3.7Z"/><path class="cls-1" d="M433.94,66.88c-.54,0-.9,.02-1.36,.08v-1.12c-.96,1-1.44,1.42-2.48,2.22-.64-1.14-1.14-1.86-2.04-2.82,2.3-1.6,3.86-3.38,5.04-5.7,.4-.78,.6-1.28,.7-1.86l3.28,1.2c-.2,.34-.3,.52-.52,1.02-.56,1.22-1.56,2.88-2.54,4.2h7.54c-1.06-1.36-1.86-2.74-2.58-4.4-.12-.3-.26-.58-.38-.86l2.98-1.14c.16,.54,.32,.92,.82,1.84,1.2,2.2,2.88,3.94,5.16,5.34-.96,1.2-1.2,1.56-2.02,3.06-.86-.64-1.2-.92-1.7-1.38-.02,4.02-.3,6.74-.8,7.82-.54,1.16-1.5,1.54-3.98,1.54q-.2,0-1.42-.02c-.14-1.18-.32-1.84-.86-3.2,.84,.12,1.64,.18,2.12,.18,1.04,0,1.28-.14,1.48-.98,.2-.78,.34-2.76,.34-5.02h-3.04c-.22,2.16-.66,3.54-1.6,5.1-.78,1.28-1.84,2.4-3.16,3.32-.62,.42-1.04,.66-2,1.1-.64-1.14-1.04-1.7-1.98-2.72,2.34-.94,3.78-2.08,4.66-3.68,.56-1,.78-1.82,.86-3.12h-.52Z"/></g><g><path class="cls-1" d="M15.28,89.09c1.46,1.6,2.26,3.68,2.26,5.86,0,4.86-3.92,8.78-8.76,8.78S0,99.79,0,94.95c0-2.52,1-4.76,2.9-6.5,1.56-1.42,3.72-2.26,5.88-2.26,2.52,0,4.8,1.02,6.5,2.9Zm-12.46,.54c-1.3,1.46-2.02,3.34-2.02,5.32,0,4.4,3.58,7.98,7.98,7.98s7.98-3.58,7.98-7.98-3.58-7.96-8.02-7.96c-2.34,0-4.38,.92-5.92,2.64Zm11.92,5.32c0,3.3-2.66,5.96-5.96,5.96s-5.98-2.68-5.98-5.96,2.68-5.96,5.98-5.96,5.96,2.66,5.96,5.96Zm-11.18,0c0,2.88,2.34,5.2,5.2,5.2s5.22-2.34,5.22-5.2-2.34-5.2-5.22-5.2-5.2,2.32-5.2,5.2Z"/><path class="cls-1" d="M28.82,89.05c-.88,0-1.86,.04-2.6,.1v-2.98c.7,.08,1.62,.12,2.64,.12h13.16c1.06,0,1.94-.04,2.64-.12v2.98c-.8-.06-1.68-.1-2.58-.1h-3.34v1.62h2.82c1,0,1.6-.02,2.34-.1-.08,.78-.1,1.42-.1,2.36v8.54c0,1.06,.04,2.14,.12,2.72h-3.1v-.9h-10.76v.9h-3.12c.1-.76,.14-1.6,.14-2.74v-8.52c0-.8-.04-1.5-.12-2.34,.64,.06,1.22,.08,2.36,.08h2.6v-1.62h-3.1Zm5.86,4.38c-.12,1.6-.32,2.68-.68,3.72-.38,1.06-.94,1.98-1.72,2.76-.7-.82-1.32-1.34-2.22-1.96v2.56h10.76v-1.86c-1.3,.08-1.52,.1-2.04,.1-2.14,0-2.8-.46-2.8-1.92v-3.4h-1.3Zm-4.62,0v4.32c1.16-1.12,1.6-2.2,1.76-4.32h-1.76Zm4.72-3.24v.48h1.2v-1.62h-1.2v1.14Zm3.96,5.38c0,.32,.14,.38,.94,.38,.28,0,.5,0,1.14-.04v-2.48h-2.08v2.14Z"/><path class="cls-1" d="M62.46,93.65c1.04,0,1.74-.04,2.28-.1v2.96c-.64-.08-1.24-.1-2.2-.1h-1.2c.3,1.06,.84,2.1,1.52,2.9,.64,.78,1.34,1.34,2.42,1.92-.64,.94-1.12,1.9-1.62,3.14-1.76-1.32-2.92-2.76-3.84-4.8-1.1,2.18-2.56,3.78-4.48,4.9-.38-.82-.52-1.1-.88-1.7-2.62,.7-3.38,.84-6.56,1.32-.46,.06-.52,.08-1.3,.24l-.44-3.1h.24q.46,0,2.86-.24v-5.08h-.84c-.84,0-1.38,.04-1.98,.12v-2.82c.52,.08,1.16,.12,2.04,.12h.78v-.88c-.46,0-.72,.02-1.02,.06v-.92c-.42,.38-.64,.56-1.18,.96-.4-1.34-.62-1.88-1.22-2.92,1.7-1.14,2.68-2.24,3.46-3.88h3.08c.4,.82,.82,1.36,1.66,2.08,.28,.26,.42,.38,.98,.76,.16-.82,.24-1.48,.24-2v-.26l2.64,.48q-.08,.36-.22,1.48c-.02,.2-.04,.32-.1,.6h.8q0-2.6-.08-3.22h3.1c-.08,.6-.1,.74-.1,2.44v.78h.8c1,0,1.6-.04,2.24-.12v2.96c-.64-.06-1.38-.1-2.18-.1h-.9c-.04,1.1-.06,1.32-.1,2.02h1.3Zm-15.4,7.2c-.22-1.64-.42-2.56-.86-3.88l2-.66c.5,1.48,.7,2.34,.9,3.74l-2.04,.8Zm5.22-10.76c-.58-.62-.82-.94-1.4-1.82-.4,.76-.64,1.1-1.22,1.82h2.62Zm4.72,6.32c-.94,0-1.56,.04-2.12,.1v-2.98c.32,.04,.6,.08,1.18,.1-.82-.72-1.4-1.12-2.3-1.56,.56-.98,.96-2.08,1.24-3.36q-.82,1.14-1.4,2.18v1.6c-.32-.04-.54-.04-1.14-.04h-.44v.88h.9c.76,0,1.16-.02,1.54-.08v2.74c-.42-.06-.82-.08-1.54-.08h-.9v4.68c.94-.14,1.26-.2,2.44-.46l.02,.96c1.86-1.16,2.82-2.48,3.4-4.68h-.88Zm-2.12,.56c-.44,1.62-.62,2.18-1.04,3.16l-1.74-.78c.42-1.1,.62-1.82,.82-3.06l1.96,.68Zm3.38-3.32q.02-.34,.08-2.02h-1.36c-.28,.84-.36,1.08-.8,2,.3,.02,.44,.02,.68,.02h1.4Z"/><path class="cls-1" d="M74.2,88.01c-.04,.14-.06,.28-.06,.32-.02,.06-.06,.26-.08,.56l-.06,.4-.08,.46c-.8,6.12-2.32,10.28-4.96,13.52-.88-.88-2.16-1.82-3.26-2.38,2.72-2.76,4.6-8.22,4.7-13.56l3.8,.68Zm5.84-.7v.08c0,.74,.38,3.04,.72,4.34,1,3.86,2.26,6.46,4.38,9.02-1.32,.8-2.22,1.52-3.16,2.52-2.66-3.48-4.4-8.12-5.16-13.72-.02-.2-.04-.34-.04-.38l-.14-.76-.02-.2-.08-.24,3.5-.66Zm1.78-1.02c.5,.94,.92,1.96,1.28,3.22l-1.58,.5c-.28-1.12-.7-2.28-1.2-3.3l1.5-.42Zm2.1,2.98c-.3-1.06-.72-2.14-1.24-3.14l1.48-.46c.58,1.02,.98,1.98,1.26,3.04l-1.5,.56Z"/><path class="cls-1" d="M101.76,103.81c-1.74-2.2-3.5-3.94-5.74-5.68-1.88,2.22-4.26,3.98-7.36,5.48-.7-1.4-1.12-2-2.24-3.16,2.6-1,4.66-2.3,6.48-4.04,1.86-1.78,3.08-3.56,4.02-5.88l-5.2,.08c-1.72,.04-2.36,.08-3.18,.2l-.1-3.56c.78,.1,1.32,.14,2.1,.14,.16,0,.54,0,1.12-.02l6.84-.1c.94-.02,1.06-.02,1.6-.22l1.76,1.8c-.3,.3-.42,.5-.72,1.18-1.06,2.5-1.82,3.9-2.94,5.4,2.42,1.74,3.24,2.44,6.36,5.42l-2.8,2.96Z"/><path class="cls-1" d="M123.84,94.93c.5,1.26,1.32,2.46,2.36,3.44,1,.94,2.2,1.7,3.46,2.22,.62,.24,1.06,.38,2.06,.62-.92,1.24-1.4,2.02-1.86,3.06-2.22-.82-3.84-1.84-5.32-3.38-.94-.98-1.74-2.18-2.28-3.38-.64,1.56-1.42,2.66-2.66,3.78-1.48,1.32-3.02,2.18-5.24,2.9-.56-1.26-1.04-2.04-1.78-2.9,2.5-.62,4.12-1.44,5.4-2.74,1-1,1.54-2.04,1.92-3.62h-3.24c-1,0-2.02,.04-2.92,.12v-2.98c.86,.08,1.78,.12,2.88,.12h3.66c.02-.52,.04-1.42,.08-2.68h-4.32c-1.06,0-2.06,.04-2.96,.12v-3.08c.8,.08,1.88,.12,2.98,.12h12.1c1.06,0,2.12-.04,2.98-.12v3.08c-.94-.08-1.92-.12-2.96-.12h-4.72c-.02,1.22-.06,2.1-.08,2.68h4.12c1.1,0,2.04-.04,2.96-.12v2.98c-.94-.08-1.88-.12-2.92-.12h-3.7Z"/><path class="cls-1" d="M140.36,96.75c-.36,.62-.56,.98-.96,1.9-.58-.54-.74-.7-1.1-1.12v4.32c0,.96,.04,1.82,.12,2.54h-3.16c.08-.68,.12-1.6,.12-2.54v-3.66c-.54,.52-.86,.82-1.76,1.52-.26-1.26-.58-2.1-1.14-3.22,.86-.58,1.66-1.24,2.4-2.02,.92-.96,1.48-1.78,2.12-3.06h-2.04c-.7,0-1.28,.04-1.88,.1v-2.94c.48,.06,.78,.08,1.54,.08h.72v-1.6c0-.5-.04-1-.1-1.52h3.16c-.06,.48-.1,.98-.1,1.54v1.58c.78,0,1-.02,1.2-.06l.84,.86c0-.46-.02-.72-.06-1.18,.6,.1,.98,.12,2.12,.12h1.72v-.68c0-.96-.02-1.44-.12-2.14h3.16c-.1,.7-.12,1.2-.12,2.16v.66h1.9c1.14,0,1.54-.02,2.12-.12-.06,.6-.08,.94-.08,2.3v6.8c0,.9,.04,1.84,.08,2.56h-2.8v-.88h-1.22v2.7c0,1.28,.02,1.86,.12,2.66h-3.16c.1-.82,.12-1.36,.12-2.62v-2.74h-1.04v.94h-2.82c.08-.76,.1-1.34,.1-2.46v-.78Zm0-5.88c-.58,1.38-.88,1.98-1.64,3.2,.54,.62,.98,1.04,1.64,1.52v-4.72Zm2.66,.24v1.28h1.16v-1.28h-1.16Zm.02,3.88v1.34h1.14v-1.34h-1.14Zm5.2-2.6v-1.28h-1.26v1.28h1.26Zm.02,3.94v-1.34h-1.28v1.34h1.28Z"/><path class="cls-1" d="M160.46,87.79c0-1.12-.02-1.56-.12-2.26h3.4c-.1,.64-.12,1.1-.12,2.12v.94h5.12c1.04,0,1.5-.02,2.1-.08-.06,.62-.08,1-.08,1.92v6.62c0,1.12,.02,1.58,.1,2.18h-3.2v-1.04h-4.04v3.52c0,1.26,.04,1.96,.14,2.68h-3.44c.1-.82,.14-1.48,.14-2.68v-3.52h-3.86v1.04h-3.2c.08-.6,.1-1.2,.1-2.18v-6.64c0-.84-.02-1.3-.08-1.9,.72,.06,1.14,.08,2.08,.08h4.96v-.8Zm-3.86,3.72v3.76h3.86v-3.76h-3.86Zm11.06,3.76v-3.76h-4.04v3.76h4.04Z"/><path class="cls-1" d="M184.54,97.21c.82,.98,1.7,1.76,2.72,2.38,1.32,.8,2.8,1.36,4.48,1.66-.72,1.06-1.08,1.8-1.6,3.16-3.68-1.1-6.28-2.94-8.08-5.72-.78,1.46-1.66,2.5-2.96,3.46-1.32,1-2.72,1.68-4.94,2.42-.42-1.32-.78-2.02-1.56-3.1,1.62-.34,2.8-.78,4.02-1.46,1.26-.72,2.02-1.5,2.7-2.8h-4.22c-.98,0-1.72,.04-2.4,.12v-3.08c.62,.08,1.18,.1,2,.12v-4.64c0-.84-.02-1.26-.08-1.76,.58,.06,1.12,.08,2.06,.08h3.82c0-1.48-.02-1.64-.12-2.46h3.34c-.1,.66-.1,.84-.1,2.46h3.98c1,0,1.44-.02,2.04-.08-.06,.46-.08,.9-.08,1.7v4.7c.86-.02,1.4-.04,1.98-.12v3.08c-.68-.08-1.42-.12-2.4-.12h-4.6Zm-4.32-2.84c.14-.96,.22-2,.26-3.44h-2.78v3.44h2.52Zm6.34,0v-3.44h-2.96c-.02,1.16-.1,2.46-.22,3.44h3.18Z"/><path class="cls-1" d="M196.98,88.55c-1.34,.06-2.34,.08-3.04,.1-.2-1.04-.4-1.58-.9-2.44,4.38-.04,7.36-.34,8.88-.88l1.58,2.46c-1.1,.24-2.06,.38-3.6,.54v.98h1.6c1.12,0,1.28,0,1.86-.08v2.62c-.24-.02-.32-.04-.6-.04v1.24c.26,0,.4-.02,.72-.06v2.64c-.32-.02-.42-.04-.72-.04v1.3c.24,0,.36-.02,.58-.04v2.6c-.48-.04-.74-.06-1.86-.06h-1.58v1.22c1.08-.1,1.74-.16,3.34-.38v2.54c-1.86,.32-2.98,.48-5.32,.76q-.56,.06-2.94,.32c-.3,.02-.62,.06-.96,.1-.28,.02-.38,.04-.56,.08l-.32-3.06c.22,.02,.4,.02,.52,.02,.6,0,1.7-.06,3.32-.16v-1.44h-1.86c-.88,0-1.24,.02-1.86,.08v-2.62c.38,.04,.46,.04,.92,.06v-1.34c-.76,.02-.88,.02-1.42,.1v-2.7c.46,.06,.66,.08,1.42,.1v-1.28c-.34,.02-.62,.04-.94,.06v-2.62c.56,.08,.74,.08,1.86,.08h1.88v-.76Zm-.54,4.52h.86v-1.28h-.86v1.28Zm0,3.84h.86v-1.34h-.86v1.34Zm3.18-3.84h.88v-1.28h-.88v1.28Zm0,3.84h.88v-1.34h-.88v1.34Zm4.14,7.46c.06-.6,.1-1.3,.1-2.32v-14.5c0-.56-.02-1.06-.06-1.52,.5,.06,1,.08,1.66,.08h3.34c.82,0,1.18-.02,1.64-.1l1.4,1.74c-.12,.24-.2,.44-.34,.82-.5,1.48-1.22,3.32-1.9,4.82,1.44,2.02,1.98,3.48,1.98,5.36,0,1.28-.6,2.32-1.56,2.72-.46,.2-1.24,.3-2.18,.3h-.44c-.04-1.7-.12-2.18-.56-3.02,.36,.04,.46,.06,.6,.06,.34,0,.7-.06,.84-.14,.18-.08,.24-.28,.24-.74,0-1.36-.6-2.84-1.74-4.3v8.06c0,1.32,.04,2.08,.12,2.68h-3.14Zm3.02-10.84c.56-1.24,1.2-3.08,1.58-4.58h-1.58v4.58Z"/><path class="cls-1" d="M220.32,88.79c-.86,0-1.28,.02-2,.08v-1.88q-.1,.36-.2,.66c-.2,.74-.48,1.48-.86,2.38v12.08c0,.88,.02,1.44,.12,2.28h-3.2c.08-.76,.12-1.52,.12-2.62v-4.86c0-1.16,0-1.28,.04-2.08-.36,.54-.68,.96-1.06,1.4-.28-1.56-.48-2.3-1.04-3.62,1.12-1.18,1.96-2.62,2.68-4.68,.38-1.08,.56-1.72,.7-2.62l2.7,.96v-.28c.72,.08,1.6,.12,2.52,.12h7.98c.92,0,1.82-.04,2.54-.12v2.88c-.68-.06-1.28-.08-2.1-.08h-3.28v.86h2.88c.9,0,1.4-.02,1.88-.08-.08,.58-.08,.84-.08,2.14v4.28c0,1.1,.02,1.52,.08,2.14-.5-.06-.86-.08-1.6-.08h-3.44c-.14,.92-.32,1.52-.74,2.32,1.64,.46,3.12,.64,5.48,.64,.3,0,.58,0,1.22-.04-.44,1.22-.62,1.9-.82,3.22-3.84-.24-5.9-.66-7.88-1.58-1.24,.86-2.44,1.36-4.46,1.84-.32-1.18-.54-1.72-1.2-2.84,1.24-.16,1.98-.34,2.98-.74-.16-.12-.7-.6-1.62-1.44l1.98-1.38h-.86c-.54,0-.94,.02-1.42,.08,.06-.66,.08-1.12,.08-2.12v-4.32c0-1.06-.02-1.44-.08-2.12,.6,.06,1.02,.08,1.9,.08h2.86v-.86h-2.8Zm.58,9.26c.5,.52,.86,.8,1.5,1.18,.22-.4,.32-.62,.44-1.18h-1.94Zm.48-6.2v.88h1.72v-.88h-1.72Zm0,2.96v.96h1.66q.02-.58,.04-.96h-1.7Zm4.48,.96h1.82v-.96h-1.78l-.04,.96Zm.1-3.92v.88h1.72v-.88h-1.72Z"/><path class="cls-1" d="M246.48,100.91v.58h.18c.58,0,.72-.2,.9-1.24,.18-1.02,.26-2.16,.32-4.6h-10.64c-.14,2.16-.28,3.36-.56,4.62-.38,1.78-.88,3.04-1.72,4.38-.8-1.08-1.42-1.74-2.56-2.68,.88-1.36,1.32-2.72,1.6-4.8,.26-2.06,.38-4.66,.38-8.82,0-1.12-.02-1.6-.12-2.28,.8,.08,1.54,.12,2.84,.12h10.48c1.06,0,1.82-.04,2.52-.1-.04,.5-.06,1.02-.06,1.9v2.5c0,.94,.02,1.4,.06,1.86-.64-.04-1.36-.06-2.38-.06h-10.36l-.02,.82h11.9c1.04,0,1.44-.02,1.94-.08-.06,.5-.1,1.08-.2,3.24-.18,3.5-.5,5.64-1,6.58-.56,1.1-1.34,1.42-3.52,1.42-.3,0-.36,0-1.82-.06-.1-.8-.18-1.26-.4-1.96h-3.38v.92h-3c.04-.5,.06-.9,.06-1.44v-4.04c0-.78,0-.9-.06-1.32,.46,.04,.8,.06,1.5,.06h5.76c.68,0,1.06-.02,1.42-.06-.04,.46-.06,.84-.06,1.52v3.02Zm.62-11.12v-.96h-9.74v.96h9.74Zm-6.24,9.98h2.74v-.98h-2.74v.98Z"/><path class="cls-1" d="M257.46,87.77c-.36-.64-.54-.9-1.1-1.6l3.14-.78c.6,.88,1.08,1.68,1.42,2.38h2.5c.56-.76,.86-1.32,1.26-2.34l3.26,.74c-.4,.66-.66,1.06-1.08,1.6h2.1c1.1,0,1.6-.02,2.26-.12v2.96c-.6-.08-1.12-.1-2.26-.1h-13.54c-1.1,0-1.66,.02-2.28,.1v-2.96c.72,.1,1.24,.12,2.28,.12h2.04Zm-.56,14.34c0,1.04,.02,1.46,.1,2.18h-3.14c.08-.72,.12-1.4,.12-2.4v-8.84c0-.96-.02-1.34-.08-1.82,.54,.04,1.04,.06,1.82,.06h4.72c.94,0,1.3-.02,1.74-.06-.04,.5-.06,.92-.06,1.9v8.7c0,1.88-.54,2.34-2.84,2.34-.22,0-.54,0-.96-.02-.2-1.3-.28-1.6-.66-2.62,.58,.06,.78,.08,1.12,.08,.36,0,.44-.08,.44-.42v-.88h-2.32v1.8Zm2.32-7.38v-.9h-2.32v.9h2.32Zm0,3.24v-.9h-2.32v.9h2.32Zm7.06-6.28c-.06,.54-.08,1.06-.08,1.92v4.5c0,1.02,.02,1.44,.08,2.06h-3.06c.06-.7,.08-1.06,.08-2.02v-4.56c0-.84-.02-1.26-.08-1.9h3.06Zm4.18-.5c-.08,.62-.1,1.16-.1,2.08v8.16c0,1.24-.16,1.8-.62,2.18-.58,.46-1.18,.58-3.06,.58q-.22,0-1.66-.02c-.2-1.2-.38-1.78-.84-2.88,1.08,.1,1.68,.14,2.4,.14,.68,0,.8-.08,.8-.56v-7.68c0-1.04-.02-1.42-.08-2h3.16Z"/><path class="cls-1" d="M273.16,88.09c.5,.04,.72,.06,1.22,.06,.54,0,5.92-.14,7.78-.2-.02-1.28-.04-1.54-.14-2.12h3.54c-.08,.7-.1,.92-.1,2.04,3.32-.02,4.8-.06,5.6-.14l.02,3.28c-.9-.08-1.3-.1-3.6-.1-1.06,0-1.2,0-2,.02v2.96c.58,1.06,.8,2,.8,3.34,0,2.24-1.16,4.2-3.3,5.54-.98,.6-2.12,1.06-4.02,1.62-.56-1.42-1-2.16-1.9-3.16,2.02-.3,3.16-.62,4.12-1.22,.74-.44,1.16-.88,1.48-1.58-.84,.7-1.52,.94-2.68,.94-2.32,0-3.96-1.52-3.96-3.66,0-2.28,1.88-3.84,4.64-3.84,.64,0,1.1,.06,1.56,.22v-.62q0-.28-.02-.48c-4.14,.12-7.4,.3-8.94,.52l-.1-3.42Zm6.22,7.46c0,.62,.56,1.08,1.32,1.08,.86,0,1.52-.52,1.52-1.2,0-.62-.52-1.04-1.32-1.04-.88,0-1.52,.48-1.52,1.16Z"/><path class="cls-1" d="M307.26,87.85c-.42,.26-.8,.58-2.76,2.34-1.4,1.2-3.1,2.54-4.68,3.68-.54,.4-.66,.52-.66,.7q0,.24,1.88,1.62c2,1.46,4.04,3.08,6.1,4.92,.1,.08,.32,.26,.62,.5l-2.86,2.92c-1.02-1.48-3.86-4.02-7.88-7.08-1-.78-1.36-1.14-1.62-1.64-.18-.38-.3-.88-.3-1.32,0-.7,.26-1.36,.74-1.9,.28-.32,.58-.58,1.82-1.52,3.02-2.24,5.56-4.52,6.26-5.58l3.34,2.36Zm-.64,2.88c.76,.86,1.46,1.88,2.04,2.96l-1.84,1c-.68-1.28-1.24-2.12-2.04-3.02l1.84-.94Zm2.56-1.34c.7,.76,1.34,1.64,2.06,2.88l-1.78,.98c-.72-1.28-1.32-2.18-2.02-2.96l1.74-.9Z"/></g></g></g></svg>