<?xml version="1.0" encoding="UTF-8"?>
<svg id="_レイヤー_2" data-name="レイヤー 2" xmlns="http://www.w3.org/2000/svg" viewBox="0 0 480.02 30.01">
  <defs>
    <style>
      .cls-1 {
        fill: #231815;
      }
    </style>
  </defs>
  <g id="_レイヤー1" data-name="レイヤー1">
    <g>
      <g>
        <path class="cls-1" d="M371.18,.41V3.58h-9.05v3.67h8.3v2.93h-8.3v4.2h9.24v3.17h-13.01V.41h12.82Z"/>
        <path class="cls-1" d="M376.8,5.14v1.73h.07c.43-.72,.99-1.24,1.68-1.57,.69-.33,1.39-.49,2.11-.49,.91,0,1.66,.12,2.24,.37s1.04,.59,1.38,1.03,.57,.98,.71,1.61c.14,.63,.2,1.33,.2,2.1v7.63h-3.41v-7.01c0-1.02-.16-1.79-.48-2.29s-.89-.76-1.7-.76c-.93,0-1.6,.28-2.02,.83-.42,.55-.62,1.46-.62,2.72v6.5h-3.41V5.14h3.24Z"/>
        <path class="cls-1" d="M393.72,7.37c-.54,0-1,.12-1.37,.37-.37,.25-.67,.57-.9,.96-.23,.39-.4,.82-.49,1.3s-.14,.94-.14,1.4,.05,.9,.14,1.37c.1,.46,.25,.88,.47,1.26,.22,.38,.51,.68,.88,.92s.82,.36,1.34,.36c.82,0,1.44-.23,1.88-.68,.44-.46,.72-1.07,.83-1.84h3.29c-.22,1.65-.86,2.9-1.92,3.77-1.06,.86-2.41,1.3-4.06,1.3-.93,0-1.78-.16-2.56-.47-.78-.31-1.44-.75-1.98-1.31-.54-.56-.97-1.23-1.27-2-.3-.78-.46-1.63-.46-2.56s.14-1.85,.42-2.68c.28-.82,.69-1.54,1.24-2.14,.54-.6,1.21-1.07,1.99-1.4s1.68-.5,2.69-.5c.74,0,1.44,.1,2.12,.29,.68,.19,1.29,.48,1.82,.88,.54,.39,.97,.88,1.31,1.46s.53,1.28,.58,2.08h-3.34c-.22-1.42-1.06-2.14-2.52-2.14Z"/>
        <path class="cls-1" d="M401.64,8.65c.3-.81,.74-1.5,1.3-2.06,.56-.57,1.23-1.01,2.02-1.32,.78-.31,1.66-.47,2.64-.47s1.86,.16,2.65,.47c.79,.31,1.47,.75,2.03,1.32,.56,.57,.99,1.26,1.3,2.06,.3,.81,.46,1.71,.46,2.7s-.15,1.89-.46,2.69-.74,1.48-1.3,2.05c-.56,.57-1.24,1-2.03,1.31s-1.68,.46-2.65,.46-1.86-.15-2.64-.46-1.46-.74-2.02-1.31c-.56-.57-.99-1.25-1.3-2.05-.3-.8-.46-1.7-.46-2.69s.15-1.89,.46-2.7Zm3.1,4.15c.1,.47,.26,.9,.49,1.27,.23,.38,.54,.68,.92,.9,.38,.22,.86,.34,1.44,.34s1.06-.11,1.45-.34c.39-.22,.7-.52,.94-.9,.23-.38,.4-.8,.49-1.27,.1-.47,.14-.96,.14-1.45s-.05-.98-.14-1.46c-.1-.48-.26-.9-.49-1.27-.23-.37-.54-.67-.94-.9-.39-.23-.88-.35-1.45-.35s-1.06,.12-1.44,.35c-.38,.23-.69,.53-.92,.9-.23,.37-.4,.79-.49,1.27-.1,.48-.14,.97-.14,1.46s.05,.98,.14,1.45Z"/>
        <path class="cls-1" d="M424.63,17.54v-1.73h-.07c-.43,.72-.99,1.24-1.68,1.56-.69,.32-1.39,.48-2.11,.48-.91,0-1.66-.12-2.24-.36s-1.04-.58-1.38-1.02c-.34-.44-.57-.98-.71-1.61s-.2-1.33-.2-2.1V5.14h3.41v7.01c0,1.02,.16,1.79,.48,2.29,.32,.5,.89,.76,1.7,.76,.93,0,1.6-.28,2.02-.83,.42-.55,.62-1.46,.62-2.72V5.14h3.41v12.41h-3.24Z"/>
        <path class="cls-1" d="M433.7,5.14v2.3h.05c.16-.38,.38-.74,.65-1.07,.27-.33,.58-.61,.94-.84,.35-.23,.73-.41,1.13-.54,.4-.13,.82-.19,1.25-.19,.22,0,.47,.04,.74,.12v3.17c-.16-.03-.35-.06-.58-.08-.22-.02-.44-.04-.65-.04-.62,0-1.15,.1-1.58,.31-.43,.21-.78,.49-1.04,.85-.26,.36-.45,.78-.56,1.26-.11,.48-.17,1-.17,1.56v5.59h-3.41V5.14h3.24Z"/>
        <path class="cls-1" d="M439.65,8.95c.05-.8,.25-1.46,.6-1.99,.35-.53,.8-.95,1.34-1.27,.54-.32,1.16-.55,1.84-.68,.68-.14,1.36-.2,2.05-.2,.62,0,1.26,.04,1.9,.13,.64,.09,1.22,.26,1.75,.52s.96,.61,1.3,1.07,.5,1.06,.5,1.81v6.46c0,.56,.03,1.1,.1,1.61,.06,.51,.18,.9,.34,1.15h-3.46c-.06-.19-.12-.39-.16-.59s-.07-.4-.08-.61c-.54,.56-1.18,.95-1.92,1.18-.74,.22-1.49,.34-2.26,.34-.59,0-1.14-.07-1.66-.22-.51-.14-.96-.37-1.34-.67-.38-.3-.68-.69-.9-1.15s-.32-1.02-.32-1.66c0-.7,.12-1.28,.37-1.74s.57-.82,.96-1.09c.39-.27,.84-.48,1.34-.61,.5-.14,1.01-.24,1.52-.32,.51-.08,1.02-.14,1.51-.19,.5-.05,.94-.12,1.32-.22,.38-.1,.69-.24,.91-.42,.22-.18,.33-.45,.31-.8,0-.37-.06-.66-.18-.88s-.28-.38-.48-.5c-.2-.12-.43-.2-.7-.24-.26-.04-.55-.06-.85-.06-.67,0-1.2,.14-1.58,.43-.38,.29-.61,.77-.67,1.44h-3.41Zm7.87,2.52c-.14,.13-.32,.23-.54,.3-.22,.07-.45,.13-.7,.18s-.51,.09-.78,.12-.54,.07-.82,.12c-.26,.05-.51,.11-.76,.19s-.46,.19-.65,.32c-.18,.14-.33,.31-.44,.52-.11,.21-.17,.47-.17,.79s.06,.56,.17,.77,.26,.37,.46,.49c.19,.12,.42,.2,.67,.25,.26,.05,.52,.07,.79,.07,.67,0,1.19-.11,1.56-.34,.37-.22,.64-.49,.82-.8,.18-.31,.28-.63,.32-.95,.04-.32,.06-.58,.06-.77v-1.27Z"/>
        <path class="cls-1" d="M465.3,18.46c-.14,.64-.43,1.24-.88,1.79-.45,.55-1.1,1.02-1.94,1.4-.85,.38-1.98,.58-3.41,.58-.61,0-1.23-.08-1.86-.23-.63-.15-1.21-.39-1.73-.71-.52-.32-.95-.73-1.3-1.24-.34-.5-.54-1.11-.59-1.81h3.38c.16,.64,.47,1.08,.94,1.33,.46,.25,1,.37,1.61,.37,.96,0,1.66-.29,2.1-.86,.44-.58,.65-1.3,.64-2.18v-1.63h-.05c-.37,.66-.89,1.14-1.57,1.45-.68,.31-1.4,.47-2.15,.47-.93,0-1.73-.16-2.4-.49-.67-.33-1.22-.78-1.66-1.34-.43-.57-.75-1.23-.95-1.99-.2-.76-.3-1.56-.3-2.41,0-.8,.12-1.57,.35-2.32,.23-.74,.57-1.4,1.02-1.97,.45-.57,1-1.02,1.67-1.36,.66-.34,1.43-.5,2.29-.5,.82,0,1.53,.15,2.15,.46,.62,.3,1.13,.82,1.55,1.54h.05v-1.66h3.24v11.62c0,.5-.07,1.06-.2,1.7Zm-4.67-4.13c.37-.19,.67-.45,.91-.77,.24-.32,.42-.68,.54-1.09s.18-.84,.18-1.28c0-.51-.05-1-.14-1.45-.1-.46-.26-.86-.48-1.21-.22-.35-.52-.63-.89-.84-.37-.21-.83-.31-1.39-.31-.48,0-.89,.1-1.24,.29-.34,.19-.63,.45-.86,.78-.23,.33-.4,.71-.5,1.13-.1,.42-.16,.87-.16,1.33s.04,.89,.13,1.33c.09,.44,.24,.84,.46,1.19,.22,.35,.5,.64,.85,.86,.35,.22,.79,.34,1.32,.34,.48,0,.9-.1,1.27-.29Z"/>
        <path class="cls-1" d="M471.88,14.57c.51,.5,1.25,.74,2.21,.74,.69,0,1.28-.17,1.78-.52,.5-.34,.8-.71,.91-1.09h3c-.48,1.49-1.22,2.55-2.21,3.19-.99,.64-2.19,.96-3.6,.96-.98,0-1.86-.16-2.64-.47-.78-.31-1.45-.76-1.99-1.33-.54-.58-.96-1.26-1.26-2.06s-.44-1.68-.44-2.64,.15-1.79,.46-2.59c.3-.8,.74-1.49,1.3-2.08,.56-.58,1.23-1.04,2-1.38,.78-.34,1.64-.5,2.58-.5,1.06,0,1.98,.2,2.76,.61s1.43,.96,1.93,1.64c.5,.69,.87,1.47,1.09,2.35,.22,.88,.3,1.8,.24,2.76h-8.95c.05,1.1,.33,1.9,.84,2.4Zm3.85-6.53c-.41-.45-1.03-.67-1.86-.67-.54,0-1,.09-1.36,.28-.36,.18-.65,.41-.86,.68s-.37,.56-.46,.86-.14,.58-.16,.82h5.54c-.16-.86-.44-1.52-.85-1.97Z"/>
      </g>
      <g>
        <path class="cls-1" d="M190.41,4.98c-.22-.36-.5-.68-.84-.95-.34-.27-.72-.48-1.14-.64-.42-.15-.87-.23-1.33-.23-.85,0-1.57,.16-2.16,.49s-1.07,.77-1.44,1.32c-.37,.55-.64,1.18-.8,1.88s-.25,1.43-.25,2.18,.08,1.42,.25,2.1c.17,.68,.44,1.29,.8,1.84s.85,.98,1.44,1.31,1.31,.49,2.16,.49c1.15,0,2.05-.35,2.7-1.06,.65-.7,1.04-1.63,1.19-2.78h3.65c-.1,1.07-.34,2.04-.74,2.9-.4,.86-.93,1.6-1.58,2.21-.66,.61-1.42,1.07-2.3,1.39-.88,.32-1.85,.48-2.9,.48-1.31,0-2.49-.23-3.54-.68-1.05-.46-1.93-1.08-2.65-1.88-.72-.8-1.27-1.74-1.66-2.82-.38-1.08-.58-2.24-.58-3.49s.19-2.47,.58-3.56c.38-1.1,.94-2.05,1.66-2.87,.72-.82,1.6-1.46,2.65-1.92,1.05-.46,2.23-.7,3.54-.7,.94,0,1.84,.14,2.68,.41,.84,.27,1.59,.67,2.26,1.19,.66,.52,1.21,1.16,1.64,1.93,.43,.77,.7,1.65,.82,2.64h-3.65c-.06-.43-.21-.83-.43-1.19Z"/>
        <path class="cls-1" d="M200.25,.41V6.86h.07c.43-.72,.98-1.24,1.66-1.57,.67-.33,1.33-.49,1.97-.49,.91,0,1.66,.12,2.24,.37s1.04,.59,1.38,1.03,.57,.98,.71,1.61c.14,.63,.21,1.33,.21,2.1v7.63h-3.41v-7.01c0-1.02-.16-1.79-.48-2.29s-.89-.76-1.7-.76c-.93,0-1.6,.28-2.02,.83-.42,.55-.62,1.46-.62,2.72v6.5h-3.41V.41h3.41Z"/>
        <path class="cls-1" d="M210.93,8.95c.05-.8,.25-1.46,.6-1.99s.8-.95,1.34-1.27c.54-.32,1.16-.55,1.84-.68s1.36-.2,2.05-.2c.62,0,1.26,.04,1.9,.13,.64,.09,1.22,.26,1.75,.52s.96,.61,1.3,1.07,.5,1.06,.5,1.81v6.46c0,.56,.03,1.1,.1,1.61,.06,.51,.18,.9,.34,1.15h-3.46c-.06-.19-.12-.39-.16-.59s-.07-.4-.08-.61c-.54,.56-1.18,.95-1.92,1.18-.74,.22-1.49,.34-2.26,.34-.59,0-1.14-.07-1.66-.22-.51-.14-.96-.37-1.34-.67-.38-.3-.68-.69-.9-1.15-.22-.46-.32-1.02-.32-1.66,0-.7,.12-1.28,.37-1.74,.25-.46,.57-.82,.96-1.09s.84-.48,1.34-.61c.5-.14,1.01-.24,1.52-.32,.51-.08,1.02-.14,1.51-.19,.5-.05,.94-.12,1.32-.22,.38-.1,.69-.24,.91-.42,.22-.18,.33-.45,.31-.8,0-.37-.06-.66-.18-.88-.12-.22-.28-.38-.48-.5-.2-.12-.43-.2-.7-.24-.26-.04-.55-.06-.85-.06-.67,0-1.2,.14-1.58,.43-.38,.29-.61,.77-.67,1.44h-3.41Zm7.87,2.52c-.14,.13-.32,.23-.54,.3-.22,.07-.45,.13-.7,.18-.25,.05-.51,.09-.78,.12s-.54,.07-.82,.12c-.26,.05-.51,.11-.76,.19s-.46,.19-.65,.32c-.18,.14-.33,.31-.44,.52-.11,.21-.17,.47-.17,.79s.06,.56,.17,.77,.26,.37,.46,.49c.19,.12,.42,.2,.67,.25,.25,.05,.52,.07,.79,.07,.67,0,1.19-.11,1.56-.34,.37-.22,.64-.49,.82-.8,.18-.31,.28-.63,.32-.95,.04-.32,.06-.58,.06-.77v-1.27Z"/>
        <path class="cls-1" d="M228.35,.41V17.54h-3.41V.41h3.41Z"/>
        <path class="cls-1" d="M234.55,.41V17.54h-3.41V.41h3.41Z"/>
        <path class="cls-1" d="M240.88,14.57c.51,.5,1.25,.74,2.21,.74,.69,0,1.28-.17,1.78-.52,.5-.34,.8-.71,.91-1.09h3c-.48,1.49-1.22,2.55-2.21,3.19-.99,.64-2.19,.96-3.6,.96-.98,0-1.86-.16-2.64-.47-.78-.31-1.45-.76-1.99-1.33-.54-.58-.96-1.26-1.26-2.06s-.44-1.68-.44-2.64,.15-1.79,.46-2.59c.3-.8,.74-1.49,1.3-2.08,.56-.58,1.23-1.04,2-1.38,.78-.34,1.64-.5,2.58-.5,1.06,0,1.98,.2,2.76,.61s1.43,.96,1.93,1.64c.5,.69,.87,1.47,1.09,2.35,.22,.88,.3,1.8,.24,2.76h-8.95c.05,1.1,.33,1.9,.84,2.4Zm3.85-6.53c-.41-.45-1.03-.67-1.86-.67-.54,0-1,.09-1.36,.28-.36,.18-.65,.41-.86,.68s-.37,.56-.46,.86-.14,.58-.16,.82h5.54c-.16-.86-.44-1.52-.85-1.97Z"/>
        <path class="cls-1" d="M254.25,5.14v1.73h.07c.43-.72,.99-1.24,1.68-1.57,.69-.33,1.39-.49,2.11-.49,.91,0,1.66,.12,2.24,.37s1.04,.59,1.38,1.03,.57,.98,.71,1.61c.14,.63,.2,1.33,.2,2.1v7.63h-3.41v-7.01c0-1.02-.16-1.79-.48-2.29s-.89-.76-1.7-.76c-.93,0-1.6,.28-2.02,.83-.42,.55-.62,1.46-.62,2.72v6.5h-3.41V5.14h3.24Z"/>
        <path class="cls-1" d="M276.96,18.46c-.14,.64-.43,1.24-.88,1.79-.45,.55-1.1,1.02-1.94,1.4-.85,.38-1.98,.58-3.41,.58-.61,0-1.23-.08-1.86-.23-.63-.15-1.21-.39-1.73-.71-.52-.32-.95-.73-1.3-1.24-.34-.5-.54-1.11-.59-1.81h3.38c.16,.64,.47,1.08,.94,1.33,.46,.25,1,.37,1.61,.37,.96,0,1.66-.29,2.1-.86,.44-.58,.65-1.3,.64-2.18v-1.63h-.05c-.37,.66-.89,1.14-1.57,1.45-.68,.31-1.4,.47-2.15,.47-.93,0-1.73-.16-2.4-.49-.67-.33-1.22-.78-1.66-1.34-.43-.57-.75-1.23-.95-1.99-.2-.76-.3-1.56-.3-2.41,0-.8,.12-1.57,.35-2.32,.23-.74,.57-1.4,1.02-1.97,.45-.57,1-1.02,1.67-1.36,.66-.34,1.43-.5,2.29-.5,.82,0,1.53,.15,2.15,.46,.62,.3,1.13,.82,1.55,1.54h.05v-1.66h3.24v11.62c0,.5-.07,1.06-.2,1.7Zm-4.67-4.13c.37-.19,.67-.45,.91-.77,.24-.32,.42-.68,.54-1.09s.18-.84,.18-1.28c0-.51-.05-1-.14-1.45-.1-.46-.26-.86-.48-1.21-.22-.35-.52-.63-.89-.84-.37-.21-.83-.31-1.39-.31-.48,0-.89,.1-1.24,.29-.34,.19-.63,.45-.86,.78-.23,.33-.4,.71-.5,1.13-.1,.42-.16,.87-.16,1.33s.04,.89,.13,1.33c.09,.44,.24,.84,.46,1.19,.22,.35,.5,.64,.85,.86,.35,.22,.79,.34,1.32,.34,.48,0,.9-.1,1.27-.29Z"/>
        <path class="cls-1" d="M283.55,14.57c.51,.5,1.25,.74,2.21,.74,.69,0,1.28-.17,1.78-.52,.5-.34,.8-.71,.91-1.09h3c-.48,1.49-1.22,2.55-2.21,3.19-.99,.64-2.19,.96-3.6,.96-.98,0-1.86-.16-2.64-.47-.78-.31-1.45-.76-1.99-1.33-.54-.58-.96-1.26-1.26-2.06s-.44-1.68-.44-2.64,.15-1.79,.46-2.59c.3-.8,.74-1.49,1.3-2.08,.56-.58,1.23-1.04,2-1.38,.78-.34,1.64-.5,2.58-.5,1.06,0,1.98,.2,2.76,.61s1.43,.96,1.93,1.64c.5,.69,.87,1.47,1.09,2.35,.22,.88,.3,1.8,.24,2.76h-8.95c.05,1.1,.33,1.9,.84,2.4Zm3.85-6.53c-.41-.45-1.03-.67-1.86-.67-.54,0-1,.09-1.36,.28-.36,.18-.65,.41-.86,.68s-.37,.56-.46,.86-.14,.58-.16,.82h5.54c-.16-.86-.44-1.52-.85-1.97Z"/>
      </g>
      <g>
        <path class="cls-1" d="M10.34,.41l6.41,17.14h-3.91l-1.3-3.82H5.14l-1.34,3.82H0L6.48,.41h3.86Zm.22,10.51l-2.16-6.29h-.05l-2.23,6.29h4.44Z"/>
        <path class="cls-1" d="M26.69,15.96c-.4,.67-.92,1.16-1.57,1.45-.65,.3-1.38,.44-2.2,.44-.93,0-1.74-.18-2.45-.54-.7-.36-1.28-.85-1.74-1.46-.46-.62-.8-1.32-1.03-2.12-.23-.8-.35-1.63-.35-2.5s.12-1.64,.35-2.41c.23-.78,.58-1.46,1.03-2.05,.46-.59,1.03-1.07,1.72-1.43,.69-.36,1.49-.54,2.4-.54,.74,0,1.44,.16,2.1,.47,.66,.31,1.19,.77,1.57,1.38h.05V.41h3.41V17.54h-3.24v-1.58h-.05Zm-.14-6.13c-.1-.47-.26-.89-.49-1.25-.23-.36-.53-.65-.9-.88s-.83-.34-1.39-.34-1.03,.11-1.42,.34-.69,.52-.92,.89c-.23,.37-.4,.79-.5,1.26-.1,.47-.16,.96-.16,1.48,0,.48,.06,.96,.17,1.44,.11,.48,.29,.91,.54,1.28s.56,.68,.94,.91c.38,.23,.83,.35,1.36,.35,.56,0,1.03-.11,1.4-.34,.38-.22,.68-.52,.9-.9,.22-.38,.38-.8,.48-1.28,.1-.48,.14-.98,.14-1.49s-.05-1-.14-1.48Z"/>
        <path class="cls-1" d="M35.62,17.54l-4.25-12.41h3.58l2.62,8.47h.05l2.62-8.47h3.38l-4.2,12.41h-3.79Z"/>
        <path class="cls-1" d="M44.88,8.95c.05-.8,.25-1.46,.6-1.99,.35-.53,.8-.95,1.34-1.27,.54-.32,1.16-.55,1.84-.68s1.36-.2,2.05-.2c.62,0,1.26,.04,1.9,.13,.64,.09,1.22,.26,1.75,.52s.96,.61,1.3,1.07,.5,1.06,.5,1.81v6.46c0,.56,.03,1.1,.1,1.61,.06,.51,.18,.9,.34,1.15h-3.46c-.06-.19-.12-.39-.16-.59s-.07-.4-.08-.61c-.54,.56-1.18,.95-1.92,1.18-.74,.22-1.49,.34-2.26,.34-.59,0-1.14-.07-1.66-.22-.51-.14-.96-.37-1.34-.67-.38-.3-.68-.69-.9-1.15s-.32-1.02-.32-1.66c0-.7,.12-1.28,.37-1.74s.57-.82,.96-1.09c.39-.27,.84-.48,1.34-.61,.5-.14,1.01-.24,1.52-.32,.51-.08,1.02-.14,1.51-.19s.94-.12,1.32-.22c.38-.1,.69-.24,.91-.42,.22-.18,.33-.45,.31-.8,0-.37-.06-.66-.18-.88s-.28-.38-.48-.5-.43-.2-.7-.24c-.26-.04-.55-.06-.85-.06-.67,0-1.2,.14-1.58,.43-.38,.29-.61,.77-.67,1.44h-3.41Zm7.87,2.52c-.14,.13-.32,.23-.54,.3-.22,.07-.45,.13-.7,.18-.25,.05-.51,.09-.78,.12-.27,.03-.54,.07-.82,.12-.26,.05-.51,.11-.76,.19s-.46,.19-.65,.32c-.18,.14-.33,.31-.44,.52-.11,.21-.17,.47-.17,.79s.06,.56,.17,.77c.11,.21,.26,.37,.46,.49,.19,.12,.42,.2,.67,.25,.26,.05,.52,.07,.79,.07,.67,0,1.19-.11,1.56-.34,.37-.22,.64-.49,.82-.8,.18-.31,.28-.63,.32-.95,.04-.32,.06-.58,.06-.77v-1.27Z"/>
        <path class="cls-1" d="M62.04,5.14v1.73h.07c.43-.72,.99-1.24,1.68-1.57s1.39-.49,2.11-.49c.91,0,1.66,.12,2.24,.37,.58,.25,1.04,.59,1.38,1.03s.57,.98,.71,1.61c.14,.63,.2,1.33,.2,2.1v7.63h-3.41v-7.01c0-1.02-.16-1.79-.48-2.29s-.89-.76-1.7-.76c-.93,0-1.6,.28-2.02,.83-.42,.55-.62,1.46-.62,2.72v6.5h-3.41V5.14h3.24Z"/>
        <path class="cls-1" d="M78.96,7.37c-.54,0-1,.12-1.37,.37s-.67,.57-.9,.96c-.23,.39-.4,.82-.49,1.3s-.14,.94-.14,1.4,.05,.9,.14,1.37c.1,.46,.25,.88,.47,1.26s.51,.68,.88,.92,.82,.36,1.34,.36c.82,0,1.44-.23,1.88-.68,.44-.46,.72-1.07,.83-1.84h3.29c-.22,1.65-.86,2.9-1.92,3.77-1.06,.86-2.41,1.3-4.06,1.3-.93,0-1.78-.16-2.56-.47-.78-.31-1.44-.75-1.98-1.31-.54-.56-.97-1.23-1.27-2-.3-.78-.46-1.63-.46-2.56s.14-1.85,.42-2.68c.28-.82,.69-1.54,1.24-2.14s1.21-1.07,1.99-1.4,1.68-.5,2.69-.5c.74,0,1.44,.1,2.12,.29,.68,.19,1.29,.48,1.82,.88,.54,.39,.97,.88,1.31,1.46s.53,1.28,.58,2.08h-3.34c-.22-1.42-1.06-2.14-2.52-2.14Z"/>
        <path class="cls-1" d="M90.46,14.57c.51,.5,1.25,.74,2.21,.74,.69,0,1.28-.17,1.78-.52,.5-.34,.8-.71,.91-1.09h3c-.48,1.49-1.21,2.55-2.21,3.19-.99,.64-2.19,.96-3.6,.96-.98,0-1.86-.16-2.64-.47-.78-.31-1.45-.76-1.99-1.33s-.96-1.26-1.26-2.06c-.3-.8-.44-1.68-.44-2.64s.15-1.79,.46-2.59c.3-.8,.74-1.49,1.3-2.08,.56-.58,1.23-1.04,2-1.38s1.64-.5,2.58-.5c1.06,0,1.98,.2,2.76,.61,.78,.41,1.43,.96,1.93,1.64,.5,.69,.87,1.47,1.09,2.35s.3,1.8,.24,2.76h-8.95c.05,1.1,.33,1.9,.84,2.4Zm3.85-6.53c-.41-.45-1.03-.67-1.86-.67-.54,0-1,.09-1.36,.28-.36,.18-.65,.41-.86,.68-.22,.27-.37,.56-.46,.86s-.14,.58-.16,.82h5.54c-.16-.86-.44-1.52-.85-1.97Z"/>
      </g>
      <g>
        <path class="cls-1" d="M381.57,22.39c-.39,0-.65,0-.91,.05v-.86c.3,.05,.52,.06,.91,.06h1.89c0-.39-.02-.58-.06-.81h.99c-.04,.21-.05,.45-.05,.81v1.77c0,.47,0,.66,.04,.93h-.98c.03-.19,.04-.33,.05-.6-.71,.18-1.5,.33-2.33,.46-.24,.04-.33,.05-.48,.09l-.18-.87q.17,.01,.19,.01c.53,0,1.81-.18,2.81-.39v-.65h-1.89Zm1.19,6.47c0,.56,0,.84,.05,1.15h-1.02c.05-.31,.07-.65,.07-1.19v-3.03c0-.55-.01-.75-.04-1.11,.33,.03,.55,.04,1.15,.04h4.14c.65,0,.87,0,1.11-.04-.03,.35-.03,.57-.03,1.11v3.27c0,.28-.05,.46-.17,.59-.17,.19-.44,.25-1.15,.25-.38,0-.65,0-1.09-.03-.03-.31-.07-.5-.17-.8,.53,.06,.89,.08,1.24,.08s.45-.05,.45-.27v-.66h-4.54v.64Zm4.54-2.72v-.68h-4.54v.68h4.54Zm0,1.38v-.68h-4.54v.68h4.54Zm-.99-5.62c1.04-.19,1.83-.45,2.45-.79l.57,.68q-.16,.05-.46,.18c-.3,.13-1.25,.39-1.89,.52-.07,.02-.29,.06-.67,.12v.58c0,.25,.18,.3,1.08,.3,.81,0,1.05-.03,1.16-.17,.07-.08,.1-.32,.12-.76,.35,.17,.47,.21,.85,.29-.08,.74-.15,.96-.38,1.13-.22,.18-.69,.24-1.76,.24-.91,0-1.24-.02-1.49-.11-.35-.11-.46-.27-.46-.63v-1.85c0-.35-.02-.56-.06-.8h.99c-.04,.23-.05,.43-.05,.78v.29Z"/>
        <path class="cls-1" d="M394.56,21.9c0-.52-.02-.74-.07-1.07h1.08c-.05,.3-.06,.57-.06,1.04v.74h2.8c.39,0,.6,0,.85-.04-.03,.28-.04,.48-.04,.84v2.93c0,.39,0,.65,.05,.95h-.99v-.63h-2.67v2.15c0,.59,0,.87,.07,1.2h-1.09c.05-.35,.07-.64,.07-1.2v-2.15h-2.54v.63h-1c.04-.34,.06-.56,.06-.95v-2.93c0-.35,0-.55-.05-.84,.27,.03,.48,.04,.84,.04h2.69v-.71Zm-2.54,1.58v2.31h2.54v-2.31h-2.54Zm6.16,2.31v-2.31h-2.67v2.31h2.67Z"/>
        <path class="cls-1" d="M403.55,22.28c.28-.62,.4-.97,.43-1.29l1.1,.14c-.06,.09-.08,.13-.12,.23q-.11,.26-.31,.73c-.03,.06-.06,.13-.08,.17t.08,0h.05s.23,0,.5-.03c1.07-.04,2.13-.18,2.66-.34l.06,.95q-.22,.02-.78,.09c-.7,.09-1.99,.18-2.97,.2-.35,.68-.66,1.13-1.08,1.56v.02q.08-.06,.22-.16c.44-.34,.98-.52,1.52-.52,.38,0,.74,.12,.97,.32,.22,.19,.34,.4,.41,.76,.81-.3,1.35-.5,1.62-.59,.51-.17,.55-.19,.71-.29l.41,.96c-.56,.1-1.23,.31-2.63,.83q0,.36,0,.54v.47c0,.17,0,.28,0,.35,0,.19,0,.34,.03,.49l-.97,.02c.03-.2,.06-.76,.06-1.3v-.24c-1.23,.56-1.68,.96-1.68,1.49,0,.6,.52,.82,1.92,.82,1.05,0,2.14-.16,2.77-.41l.1,1.08c-.17,0-.22,0-.44,.05-.74,.11-1.68,.18-2.49,.18-1.01,0-1.67-.12-2.16-.4-.44-.25-.7-.7-.7-1.23,0-.93,.83-1.73,2.56-2.47-.05-.43-.27-.64-.68-.64-.6,0-1.34,.36-2.13,1.04-.4,.34-.63,.59-.82,.88l-.77-.77c.47-.35,1.07-1.04,1.61-1.82,.12-.19,.33-.53,.62-1.01h-1.14c-.25-.02-.44-.03-.58-.03h-.06s-.08,0-.15,0l.02-.95c.5,.09,1.04,.12,1.95,.12h.36Z"/>
        <path class="cls-1" d="M411.27,23.53c-.25,0-.45,0-.73,.05v-.91c.26,.04,.46,.06,.74,.06h.47v-.89c0-.48-.02-.74-.06-1.01h.98c-.04,.27-.05,.53-.05,1.01v.89h.31c.24,0,.39,0,.61-.04v.88c-.22-.03-.37-.04-.61-.04h-.31v1.75c.33-.13,.48-.19,.93-.39v.87c-.46,.19-.53,.22-.93,.39v2.9c0,.7-.23,.87-1.17,.87-.22,0-.38-.01-.67-.03-.03-.34-.06-.5-.17-.86,.33,.04,.55,.06,.78,.06,.29,0,.36-.06,.36-.29v-2.31q-.91,.34-1.15,.45l-.17-.95c.31-.04,.59-.13,1.32-.39v-2.07h-.48Zm3.45,3.3v.59h-.91c.02-.23,.04-.5,.04-.88v-4.3c0-.45,0-.71-.04-1,.26,.03,.63,.05,1.05,.05h3.26c.47,0,.88-.02,1.14-.05-.03,.26-.04,.56-.04,1.08v4.1c0,.4,0,.65,.04,.94h-.94v-.53h-1.42v1.99c0,.47,0,.77,.06,1.2h-1.01c.05-.42,.07-.74,.07-1.2v-1.99h-1.3Zm-.01-4.73v1.52h1.31v-1.52h-1.31Zm0,2.31v1.59h1.31v-1.59h-1.31Zm2.19-.79h1.43v-1.52h-1.43v1.52Zm0,2.38h1.43v-1.59h-1.43v1.59Z"/>
        <path class="cls-1" d="M423.37,21.32c-.05,.28-.08,.56-.11,1.29-.04,.86-.1,3.07-.1,3.75,0,.93,.06,1.3,.27,1.62,.24,.36,.74,.56,1.41,.56,1.1,0,1.99-.62,2.5-1.73,.23-.5,.35-.93,.47-1.64,.44,.37,.6,.47,1.01,.66-.4,1.29-.69,1.91-1.15,2.44-.74,.84-1.71,1.26-2.91,1.26-.69,0-1.31-.16-1.71-.44-.65-.46-.92-1.17-.92-2.46,0-.58,0-1.12,.08-4.05,0-.31,0-.5,0-.68,0-.24,0-.37-.04-.6l1.19,.02Z"/>
        <path class="cls-1" d="M438.37,29.22c-.48-.52-1.22-1.05-2.04-1.44-.11-.06-.34-.16-.47-.22v.17c0,1.2-.7,1.77-2.16,1.77-1.35,0-2.17-.55-2.17-1.47,0-1.02,.97-1.64,2.57-1.64,.32,0,.59,0,.78,.04v-.14s0-.05,0-.11,0-.22,0-.45c0-.1,0-.25-.02-.45-.39,0-.81,0-1.07,0-.62,0-1,0-1.76-.07-.12-.01-.21-.01-.28-.01h-.08v-.9c.45,.1,1.35,.16,2.33,.16,.22,0,.54,0,.85-.02l-.02-1.15c-.3,0-.46,0-.65,0-.57,0-1.71-.05-2.44-.1-.1-.01-.17-.01-.21-.01-.03,0-.08,0-.15,.01v-.93c.55,.12,1.51,.19,2.65,.19,.16,0,.49,0,.79,0q-.01-1.09-.04-1.33h1.08c-.05,.25-.06,.47-.07,1.3,1.42-.09,2.27-.2,2.9-.4l.04,.94q-.2,0-.74,.09c-.83,.11-1.28,.16-2.21,.21q0,.35,.02,1.14c1.2-.08,2.1-.2,2.69-.38l.04,.94c-.22,0-.3,.02-.99,.12-.41,.06-1.13,.12-1.73,.15,.03,.77,.04,1.22,.05,1.34,.97,.31,1.69,.68,2.75,1.43,.17,.12,.21,.15,.35,.23l-.57,.98Zm-4.39-1.98c-.54,0-1.02,.13-1.26,.34-.11,.1-.18,.26-.18,.41,0,.42,.43,.65,1.2,.65,.52,0,.86-.12,1.02-.36,.1-.15,.14-.33,.14-.64,0-.06,0-.31,0-.31-.35-.07-.52-.09-.91-.09Z"/>
        <path class="cls-1" d="M440.82,22.47c.21,.02,.29,.02,.45,.02,.28,0,.68-.01,1.79-.06q.65-.02,2.41-.07c0-.85-.02-1.03-.06-1.28h1.06c-.04,.3-.05,.48-.05,1.26,1.82,0,2.58-.03,2.93-.07v.97c-.36-.04-.83-.05-1.68-.05-.27,0-.44,0-1.24,.02v1.84c.2,.43,.28,.82,.28,1.32,0,1.07-.51,2.01-1.42,2.66-.4,.28-.85,.5-1.72,.81-.23-.48-.32-.61-.61-.93,.83-.19,1.23-.35,1.69-.65,.7-.47,1.06-1.01,1.12-1.69-.27,.54-.8,.84-1.49,.84-1.01,0-1.76-.71-1.76-1.68,0-1.02,.8-1.75,1.92-1.75,.46,0,.82,.12,1.06,.34t0-.13v-.97c-1.6,.02-4.01,.15-4.64,.25l-.03-1Zm2.68,3.18c0,.52,.37,.88,.91,.88,.61,0,1.05-.42,1.05-1.01,0-.22-.06-.37-.2-.49-.18-.18-.44-.27-.74-.27-.58,0-1.02,.38-1.02,.89Z"/>
      </g>
      <g>
        <path class="cls-1" d="M201.89,24.69c.25,.04,.42,.05,.79,.05h.65c.29,0,.52,0,.76-.05-.03,.31-.04,.56-.04,1.08v2.03c.23,.45,.41,.64,.79,.81,.47,.21,1.07,.29,2.23,.29,1.86,0,3.1-.06,4.09-.21-.16,.43-.2,.58-.27,1-.94,.04-2.14,.06-3.27,.06-1.82,0-2.45-.07-3.03-.34-.37-.17-.69-.45-.97-.86-.44,.43-.66,.61-1.19,1-.08,.06-.21,.17-.33,.28l-.43-.94c.4-.18,.91-.54,1.51-1.08v-2.26h-.59c-.31,0-.46,.01-.7,.05v-.91Zm.8-3.66c.69,.61,1.21,1.17,1.68,1.79l-.7,.66c-.59-.83-.9-1.18-1.64-1.85l.66-.6Zm5.83,6.25h1.31c.49,0,.75,0,.99-.05v.87c-.29-.04-.58-.05-.98-.05h-3.88c-.4,0-.59,0-.86,.04,.03-.3,.04-.54,.04-1.01v-2.57c0-.25,0-.45,.02-.7-.23,.35-.39,.55-.7,.86-.22-.35-.32-.48-.57-.7,.99-.93,1.51-1.66,1.93-2.73,.06-.16,.1-.27,.13-.42l.95,.19q-.06,.12-.2,.44c-.12,.25-.2,.41-.43,.82h1.42c.34-.56,.51-.93,.66-1.4l.92,.18c-.07,.1-.08,.14-.26,.49-.15,.29-.23,.44-.42,.73h1.16c.43,0,.72-.02,.97-.05v.86c-.26-.03-.49-.04-.86-.04h-1.34v.88h.9c.54,0,.74,0,1-.04v.82c-.27-.03-.49-.04-1-.04h-.9v.88h.9c.54,0,.74,0,1-.04v.82c-.27-.03-.49-.04-1-.04h-.9v1Zm-.84-4.24h-1.68v.88h1.68v-.88Zm0,1.62h-1.68v.88h1.68v-.88Zm-1.68,1.62v1h1.68v-1h-1.68Z"/>
        <path class="cls-1" d="M212.42,22.39c.28,.08,.61,.1,1.32,.1h.51q.01-.49,.01-.69c0-.36-.01-.45-.04-.68h1.06q-.07,.35-.1,1.32c.75-.06,1.41-.18,1.77-.31l.04,.93c-.11,0-.15,0-.3,.04-.58,.1-1.07,.17-1.53,.2-.02,.78-.02,.98-.02,1.16,.33,.27,.46,.57,.46,1.06,0,.33-.07,.62-.22,.92-.06,.12-.07,.14-.34,.57-.28,.45-.38,.71-.38,.97,0,.23,.11,.38,.35,.48,.28,.1,.75,.16,1.39,.16,.78,0,1.62-.12,2-.29,.37-.16,.52-.39,.52-.78,0-.5-.2-1.24-.51-1.85,.44,.13,.62,.17,1.11,.21,.02,.06,.09,.28,.21,.66,.14,.43,.19,.74,.19,1.13,0,.63-.24,1.08-.71,1.34-.37,.22-.77,.33-1.49,.42-.45,.06-.99,.09-1.43,.09-1,0-1.69-.13-2.11-.4-.36-.22-.52-.52-.52-.96,0-.34,.09-.6,.35-1-.14,.1-.25,.13-.42,.13-.69,0-1.2-.61-1.2-1.43,0-.93,.73-1.69,1.64-1.69,.03,0,.09,0,.19,0,0-.19,0-.21,0-.44,0-.22,0-.27,0-.45-.26,0-.61,0-.72,0-.27,0-.45,0-.76-.02-.09-.01-.16-.01-.2-.01-.03,0-.08,0-.15,.01v-.92Zm.88,3.5c0,.38,.24,.64,.58,.64,.44,0,.79-.41,.79-.92,0-.42-.21-.65-.58-.65-.46,0-.79,.39-.79,.93Zm5.21-3.96c.92,.66,1.61,1.32,2.27,2.17l-.79,.66c-.52-.81-1.45-1.74-2.21-2.25l.73-.58Z"/>
        <path class="cls-1" d="M222.67,22.24c.44,.1,1.02,.15,1.88,.15h.22q.02-.22,.05-.66c0-.12,.02-.46,.02-.57,0-.04,0-.09,0-.16l1.05,.06c-.08,.26-.13,.57-.19,1.3,1.6-.09,3.02-.29,3.8-.55l.05,.97c-.14,.01-.19,.02-.38,.05-1.2,.19-2.64,.34-3.53,.36q-.05,.74-.06,1.12c.52-.11,.85-.15,1.32-.15,.18,0,.3,0,.56,0,.12-.31,.19-.57,.22-.81l.95,.27q-.04,.09-.15,.37c-.07,.21-.09,.24-.13,.36,.42,.09,.71,.22,1.06,.47,.67,.47,1,1.09,1,1.89,0,1.05-.57,1.88-1.66,2.43-.59,.3-1.16,.45-2.04,.55-.11-.38-.18-.54-.45-.95,.61-.02,1-.08,1.47-.23,1.08-.37,1.68-1.03,1.68-1.86,0-.72-.48-1.26-1.35-1.53-.59,1.34-1.17,2.2-2,3-.8,.77-1.55,1.15-2.28,1.15-.83,0-1.43-.69-1.43-1.65,0-.8,.35-1.57,.98-2.19,.4-.39,.77-.64,1.36-.89q.01-.6,.05-1.33h-.32c-.19,0-.37,0-.65-.02-.38,0-.82-.03-.89-.03-.04,0-.11,0-.2,.01v-.94Zm1.12,3.98c-.34,.42-.52,.88-.52,1.33,0,.48,.25,.8,.62,.8,.32,0,.63-.13,.99-.42-.13-.7-.18-1.34-.19-2.45-.43,.26-.67,.45-.9,.74Zm1.86,.88q0,.08,.02,.13s0,.05,0,.09q.09-.11,.16-.2c.59-.7,.97-1.32,1.33-2.14-.12-.02-.16-.02-.26-.02-.52,0-.94,.07-1.35,.22,.02,1.04,.03,1.42,.09,1.92Z"/>
        <path class="cls-1" d="M235.63,21.11q-.06,.17-.16,.65c-.07,.32-.12,.53-.23,.97,.72-.07,1.25-.16,1.67-.3l.04,.97c-.12,0-.13,0-.34,.05-.37,.07-.96,.14-1.61,.19-.3,1.02-.66,1.98-1.1,2.91-.23,.49-.32,.66-.71,1.35-.08,.14-.15,.26-.19,.35l-.96-.55c.36-.45,.63-.9,.97-1.6,.41-.83,.76-1.7,.97-2.43-.21,0-.3,0-.59,0s-.28,0-.68,0h-.36v-.96c.35,.06,.7,.08,1.27,.08,.29,0,.47,0,.6-.01,.18-.65,.31-1.35,.33-1.79l1.08,.12Zm4.62,7.96c-.35-.44-.96-.92-1.61-1.28,0,.11,0,.12,0,.21,0,.37-.15,.79-.36,1.05-.32,.37-.91,.59-1.63,.59-1.28,0-2.09-.6-2.09-1.55s.86-1.66,2.08-1.66c.33,0,.57,.03,1.01,.11-.04-.51-.06-.89-.06-1.28s.02-.6,.08-.95l.97,.07c-.1,.37-.13,.58-.13,.96s.03,.86,.1,1.45c.71,.31,1.06,.51,1.65,.96,.22,.17,.22,.18,.31,.25q.08,.08,.15,.13l-.48,.94Zm-3.54-1.79c-.72,0-1.18,.3-1.18,.76s.4,.71,1.09,.71c.74,0,1.1-.31,1.1-.92,0-.11-.02-.37-.02-.38-.38-.12-.64-.17-.99-.17Zm3.57-2.77c-.84-.58-1.69-.99-2.79-1.39l.5-.79c1.17,.44,1.89,.79,2.75,1.32l-.46,.86Z"/>
        <path class="cls-1" d="M242.39,22.69c.37,.07,.65,.09,1.23,.09,.22,0,.37,0,.59,0,.12-.62,.21-1.31,.21-1.61,0-.03,0-.08,0-.14l1.11,.1q-.07,.23-.19,.95c-.05,.3-.06,.4-.11,.66,.76-.08,1.27-.17,1.74-.32l.05,.96q-.08,0-.3,.05c-.47,.1-1.17,.19-1.66,.22-.12,.68-.39,1.78-.65,2.69-.3,1.04-.54,1.73-1.13,3.21l-1.05-.42c.71-1.29,1.44-3.47,1.83-5.44-.09,0-.6,.01-.81,.01-.07,0-.15,0-.29-.01-.15,0-.32,0-.46,0h-.11v-.98Zm4.78,3.79c-.26,.32-.34,.43-.41,.58-.08,.17-.13,.37-.13,.53,0,.52,.56,.81,1.6,.81,.74,0,1.67-.15,2.24-.36l.08,1.04c-.16,.03-.22,.03-.47,.07-.79,.13-1.25,.17-1.82,.17-.85,0-1.47-.12-1.93-.38-.44-.25-.7-.7-.7-1.21,0-.48,.18-.88,.72-1.6l.82,.35Zm3.01-1.48c-.48-.05-.76-.06-1.23-.06-.95,0-1.6,.08-2.58,.3l-.08-.93c1.33-.26,1.83-.32,2.84-.32,.28,0,.44,0,1.03,0l.02,1Z"/>
        <path class="cls-1" d="M256.05,26.74c-.58,1.32-1.19,1.9-1.97,1.9-1.06,0-1.84-1.11-1.84-2.63,0-1.07,.38-2.08,1.08-2.85,.82-.9,1.97-1.37,3.36-1.37,2.33,0,3.86,1.43,3.86,3.59,0,1.67-.88,3.01-2.38,3.63-.47,.19-.86,.3-1.54,.43-.15-.46-.24-.63-.51-.98,.78-.12,1.23-.23,1.66-.41,1.07-.46,1.74-1.51,1.74-2.72,0-1.04-.49-1.87-1.37-2.34-.34-.18-.61-.25-1.07-.28-.18,1.49-.54,2.95-1.02,4.03Zm-1.37-3.54c-.91,.61-1.47,1.68-1.47,2.82,0,.87,.38,1.56,.86,1.56,.36,0,.73-.44,1.12-1.35,.39-.92,.73-2.32,.86-3.51-.55,.06-.94,.19-1.37,.48Z"/>
      </g>
      <g>
        <path class="cls-1" d="M24.32,22.2c-.27-.47-.44-.69-.91-1.22l.88-.28c.62,.78,.67,.84,1.03,1.5h1.38c.43-.49,.68-.87,.98-1.49l.94,.28c-.31,.47-.64,.9-.92,1.21h1.75c.48,0,.77-.02,1.04-.06v.91c-.3-.05-.57-.06-1.04-.06h-6.81c-.46,0-.71,0-1.04,.06v-.91c.35,.05,.54,.06,1.04,.06h1.68Zm-1.24,6.69c0,.52,.01,.79,.06,1.06h-.98c.04-.31,.05-.61,.05-1.11v-4.27c0-.48,0-.65-.03-.89,.33,.03,.54,.04,.95,.04h1.83c.53,0,.68,0,.9-.04-.02,.23-.03,.47-.03,1.02v4.28c0,.69-.21,.88-.98,.88-.21,0-.39,0-.75-.03-.06-.4-.09-.49-.21-.82,.34,.05,.57,.08,.75,.08,.28,0,.33-.04,.33-.24v-1.05h-1.89v1.09Zm1.89-3.53v-.85h-1.89v.85h1.89Zm0,1.65v-.86h-1.89v.86h1.89Zm2.87-3.18c-.04,.26-.05,.44-.05,.95v2.09c0,.68,0,.84,.04,1.1h-.96c.03-.29,.04-.45,.04-1.09v-2.11c0-.48,0-.64-.05-.94h.98Zm2.11-.28c-.04,.26-.06,.56-.06,1.07v4.25c0,.82-.24,1.03-1.22,1.03-.26,0-.58,0-1.12-.05-.05-.34-.11-.55-.26-.9,.55,.08,.94,.12,1.25,.12,.4,0,.46-.04,.46-.31v-4.17c0-.58-.01-.75-.05-1.04h1Z"/>
        <path class="cls-1" d="M34.55,22.28c.28-.62,.4-.97,.43-1.29l1.1,.14c-.06,.09-.08,.13-.12,.23q-.11,.26-.31,.73c-.03,.06-.06,.13-.08,.17t.08,0h.05s.23,0,.5-.03c1.07-.04,2.13-.18,2.66-.34l.06,.95q-.22,.02-.78,.09c-.7,.09-1.99,.18-2.97,.2-.35,.68-.66,1.13-1.08,1.56v.02q.08-.06,.22-.16c.44-.34,.98-.52,1.52-.52,.38,0,.74,.12,.97,.32,.22,.19,.34,.4,.41,.76,.81-.3,1.35-.5,1.62-.59,.51-.17,.55-.19,.71-.29l.41,.96c-.56,.1-1.23,.31-2.63,.83q0,.36,0,.54v.47c0,.17,0,.28,0,.35,0,.19,0,.34,.03,.49l-.97,.02c.03-.2,.06-.76,.06-1.3v-.24c-1.23,.56-1.68,.96-1.68,1.49,0,.6,.52,.82,1.92,.82,1.05,0,2.14-.16,2.77-.41l.1,1.08c-.17,0-.22,0-.44,.05-.74,.11-1.68,.18-2.49,.18-1.01,0-1.67-.12-2.16-.4-.44-.25-.7-.7-.7-1.23,0-.93,.83-1.73,2.56-2.47-.05-.43-.27-.64-.68-.64-.6,0-1.34,.36-2.13,1.04-.4,.34-.63,.59-.82,.88l-.77-.77c.47-.35,1.07-1.04,1.61-1.82,.12-.19,.33-.53,.62-1.01h-1.14c-.25-.02-.44-.03-.58-.03h-.06s-.08,0-.15,0l.02-.95c.5,.09,1.04,.12,1.95,.12h.36Z"/>
        <path class="cls-1" d="M44.76,22.29c.26-.49,.5-1.14,.58-1.54l1.05,.14c-.05,.1-.14,.29-.24,.54-.16,.39-.26,.63-.38,.86h3.44c.42,0,.64,0,.92-.04-.04,.3-.05,.58-.05,.94v5.64c0,.75-.27,.94-1.36,.94-.31,0-.43,0-1.11-.05-.04-.37-.08-.56-.22-.91,.49,.06,.98,.1,1.34,.1s.43-.04,.43-.29v-5.5h-6.24v5.66c0,.51,.02,.78,.07,1.06h-1.05c.05-.28,.06-.53,.06-1.06v-5.58c0-.35,0-.61-.04-.95,.27,.03,.49,.04,.9,.04h1.9Zm3.16,4.47c0,.36,0,.57,.05,.81-.23-.02-.6-.03-.85-.03h-2.17v.73h-.93c.04-.3,.06-.57,.06-.85v-2.49c0-.28,0-.48-.05-.74,.2,.03,.41,.04,.7,.04h2.53c.29,0,.5,0,.71-.04-.04,.25-.05,.46-.05,.76v1.81Zm-2.97-.03h2.1v-1.7h-2.1v1.7Z"/>
        <path class="cls-1" d="M53.37,21.97c-.06,.36-.08,.74-.08,1.33,0,1.02,.09,2.28,.21,2.91,.2,1.04,.55,1.7,.9,1.7,.16,0,.31-.16,.45-.46,.23-.53,.4-1.09,.52-1.77,.29,.34,.42,.46,.83,.77-.51,1.87-1.03,2.62-1.83,2.62-.66,0-1.26-.64-1.61-1.71-.33-1.02-.47-2.35-.52-4.78,0-.34-.01-.4-.03-.61h1.16Zm4.76,.48c1.26,1.51,1.92,3.06,2.23,5.21l-1.03,.4c-.07-.92-.3-1.92-.66-2.81-.34-.88-.81-1.65-1.41-2.37l.87-.43Z"/>
        <path class="cls-1" d="M61.9,22.4q.19,.01,.35,.01c.21,0,.32,0,.61-.03,1.17-.08,3.55-.22,5.9-.32,.69-.03,.99-.06,1.16-.1l.07,1.05h-.17c-.56,0-1.26,.18-1.87,.48-1.36,.68-2.2,1.76-2.2,2.84,0,.8,.5,1.43,1.36,1.72,.46,.15,1.12,.28,1.47,.28,.04,0,.1,0,.18,0l-.15,1.13c-.13-.02-.17-.03-.33-.06-1.09-.16-1.67-.34-2.26-.7-.84-.51-1.3-1.31-1.3-2.27s.44-1.84,1.31-2.65c.4-.37,.63-.53,1.2-.8-.7,.11-1.1,.15-2.16,.22-1.74,.12-2.59,.2-3.11,.31l-.06-1.1Z"/>
      </g>
    </g>
  </g>
</svg>