<?xml version="1.0" encoding="UTF-8"?>
<svg id="_レイヤー_2" data-name="レイヤー 2" xmlns="http://www.w3.org/2000/svg" viewBox="0 0 231.23 140.76">
  <defs>
    <style>
      .cls-1 {
        fill: #fff;
      }

      .cls-2 {
        fill: #231815;
        opacity: .6;
      }
    </style>
  </defs>
  <g id="_レイヤー1" data-name="レイヤー1">
    <g>
      <rect class="cls-2" width="231.23" height="140.76"/>
      <g>
        <path class="cls-1" d="M6.5,59.28c-.19,1.13-.34,1.59-.87,2.65-.24-.22-.44-.35-.77-.51,.47-.71,.7-1.32,.85-2.34l.79,.2Zm.54-4.92c0-.45-.01-.62-.05-.84h1.01c-.04,.18-.05,.36-.05,.82v.31h.97c.43,0,.65,0,.93-.06v.92c-.26-.04-.48-.05-.93-.05h-2.95c-.45,0-.68,.01-.97,.05v-.92c.27,.05,.46,.06,.95,.06h1.1v-.29Zm-.57,4.27c-.41,0-.71,0-.98,.04,.03-.29,.04-.53,.04-.93v-.75c0-.39,0-.62-.04-.93,.27,.03,.52,.04,.97,.04h2.02c.42,0,.67-.01,.93-.04-.03,.27-.04,.49-.04,.91v.76c0,.43,0,.67,.04,.93-.27-.03-.52-.04-.94-.04h-.56v3.14c0,.34-.11,.58-.33,.71-.16,.09-.41,.13-.91,.13q-.1,0-.46-.01c-.03-.36-.06-.47-.18-.86,.26,.03,.49,.05,.74,.05,.22,0,.27-.04,.27-.23v-2.94h-.56Zm-.06-.77h2.09v-.98h-2.09v.98Zm2.41,1.12c.3,.57,.45,.93,.68,1.57l-.71,.39c-.19-.71-.33-1.1-.61-1.69l.64-.27Zm1.8-2.13c-.42,0-.69,0-.92,.05v-.96c.23,.04,.45,.05,.93,.05h.37c.03-.43,.05-1,.05-1.46,0-.4,0-.69-.05-.94h.97c-.02,.18-.04,.5-.05,.88,0,.48-.02,.96-.06,1.52h1.22c.48,0,.72,0,.98-.05v.96c-.27-.04-.5-.05-.97-.05h-1.32c-.12,.94-.22,1.49-.38,2.05-.33,1.14-.83,2.17-1.47,3.02-.22,.29-.36,.44-.82,.88-.23-.3-.37-.45-.67-.71,.59-.5,.94-.9,1.38-1.61,.53-.84,.94-2.15,1.12-3.62h-.3Zm1.93,.68c-.04,.26-.05,.4-.05,.83l-.02,3.05c0,.22,.05,.25,.41,.25,.29,0,.39-.06,.43-.29,.06-.28,.08-.67,.08-1.48,.27,.16,.54,.27,.8,.33-.04,1.06-.09,1.45-.22,1.79-.15,.38-.43,.5-1.19,.5-.39,0-.65-.03-.83-.11-.22-.1-.31-.27-.3-.63l.02-3.41v-.29c0-.26,0-.28-.01-.53h.88Zm.3-3.81c.51,.59,.7,.83,1.11,1.49l-.68,.52c-.36-.69-.59-1.04-1.07-1.58l.64-.43Z"/>
        <path class="cls-1" d="M21.11,55.75c.58-.87,.86-1.36,1.16-2.15l.92,.35c-.57,1.03-.8,1.38-1.1,1.8h.76c.47,0,.73,0,1.06-.04-.03,.24-.04,.44-.04,.81v.74c0,.27,0,.46,.05,.71h-.95v-1.41h-6.66v1.41h-.95c.04-.28,.05-.46,.05-.72v-.71c0-.35,0-.57-.04-.82,.32,.03,.56,.04,1.05,.04h4.69Zm.95,2.44c.31,0,.78-.02,.99-.04-.02,.17-.03,.19-.04,.56-.08,1.67-.17,2.48-.36,3.04-.19,.6-.54,.79-1.51,.79-.27,0-.44,0-1.07-.04-.02-.38-.09-.66-.21-.96,.43,.07,.89,.11,1.22,.11,.51,0,.62-.08,.74-.48,.12-.41,.2-1.16,.23-2.16h-2.4c-.44,1.8-1.46,2.82-3.62,3.62-.17-.37-.33-.62-.57-.87,.95-.27,1.67-.63,2.23-1.13,.49-.44,.79-.94,1-1.63h-1.47c-.42,0-.86,.02-1.13,.06v-.94c.21,.03,.64,.05,1.13,.05h1.63c.04-.33,.06-.58,.06-.93,0-.12,0-.23-.03-.35h1.04c-.03,.13-.05,.25-.06,.58-.02,.3-.03,.47-.06,.69h2.28Zm-4.9-2.48c-.36-.81-.55-1.13-1.02-1.71l.84-.33c.49,.64,.63,.87,1.04,1.67l-.86,.37Zm2.37-.19c-.26-.68-.46-1.06-.92-1.71l.85-.28c.37,.55,.62,.98,.93,1.64l-.86,.35Z"/>
        <path class="cls-1" d="M26.68,54.85c-.41,.09-.56,.12-1.11,.21-.08-.3-.17-.48-.35-.79,1.31-.15,2.5-.49,3.03-.88l.53,.75c-.07,.03-.1,.05-.21,.1-.35,.15-.59,.24-1.02,.37v1.45h.36c.32,0,.49,0,.69-.04v.88c-.21-.03-.39-.04-.69-.04h-.33c.36,.75,.53,.99,1.08,1.51-.16,.23-.27,.42-.43,.79-.32-.41-.46-.64-.74-1.23,.03,.31,.06,.92,.06,1.27v2.3c0,.54,.01,.88,.06,1.21h-1c.04-.3,.06-.63,.06-1.21v-2.01c0-.36,.02-.87,.05-1.34-.32,1.04-.72,1.78-1.33,2.55-.11-.34-.24-.58-.46-.89,.64-.67,1.32-1.9,1.61-2.94h-.61c-.34,0-.52,0-.77,.05v-.9c.2,.04,.39,.05,.77,.05h.75v-1.22Zm5.82,2.55q-.05,.08-.16,.23s-.16,.23-.25,.35h1.13c.33,0,.53-.01,.72-.04l.52,.53c-.08,.13-.11,.18-.25,.43-.6,1.05-1.26,1.76-2.26,2.44-1.01,.71-1.94,1.09-3.29,1.37-.13-.34-.24-.55-.47-.85,1.26-.19,2-.45,3.08-1.1-.35-.35-.4-.38-.98-.79l.64-.48c.53,.37,.73,.52,1.03,.8,.58-.47,.96-.88,1.42-1.59h-1.95c-.78,.75-1.46,1.2-2.45,1.65-.2-.3-.25-.37-.56-.7,.97-.35,1.87-.92,2.55-1.58,.31-.31,.45-.49,.65-.85-.92,.65-1.62,1.03-2.64,1.38-.14-.3-.26-.47-.51-.73,.98-.28,1.52-.52,2.3-1.03-.16-.17-.16-.18-.24-.25-.07-.06-.27-.23-.62-.5l.6-.46c.42,.3,.62,.46,.92,.75,.63-.5,.93-.82,1.35-1.42h-1.98c-.53,.57-1.05,.99-1.81,1.43-.16-.26-.3-.42-.53-.63,.79-.4,1.5-.97,1.97-1.58,.19-.24,.37-.56,.43-.76l.9,.28q-.06,.07-.16,.23s-.07,.1-.16,.23c-.02,.01-.03,.04-.06,.07h1.33c.33,0,.53-.01,.73-.04l.48,.52q-.14,.21-.27,.41c-.53,.83-1.03,1.35-1.91,2.02l.78,.24Z"/>
        <path class="cls-1" d="M36.62,59.49c0-.42,0-.53,.02-1.18-.3,.37-.6,.65-1.01,.96-.13-.37-.25-.6-.46-.87,.75-.49,1.38-1.1,1.96-1.85,.25-.33,.41-.59,.53-.89l.82,.51c-.1,.12-.17,.22-.32,.44-.23,.34-.36,.52-.61,.83v4.02c0,.53,.02,.93,.06,1.25h-1.06c.04-.3,.07-.73,.07-1.26v-1.96Zm1.66-5.48c-.07,.08-.1,.12-.17,.21-.71,.89-1.36,1.49-2.36,2.17-.17-.33-.31-.51-.56-.75,.69-.4,1.13-.75,1.61-1.26,.33-.36,.52-.61,.65-.92l.83,.55Zm1.41,3.41c-.47,0-.92,.02-1.19,.06v-.96c.26,.04,.71,.06,1.19,.06h3.46c.54,0,.93-.02,1.18-.06v.96c-.29-.04-.7-.06-1.16-.06h-.48v4.17c0,.76-.29,.98-1.34,.98-.36,0-.71,0-1.18-.04-.05-.38-.1-.61-.24-.95,.56,.08,1.03,.12,1.39,.12,.38,0,.45-.04,.45-.25v-4.03h-2.08Zm-.79-3.43c.26,.04,.62,.06,1.12,.06h2.76c.48,0,.81-.02,1.11-.06v.95c-.34-.04-.7-.06-1.09-.06h-2.78c-.41,0-.81,.02-1.12,.06v-.95Z"/>
        <path class="cls-1" d="M49.27,54.37c0-.42-.02-.61-.06-.88h1.08c-.05,.24-.06,.44-.06,.88v.48h2.83c.48,0,.85-.02,1.16-.07v.99c-.29-.04-.67-.06-1.16-.06h-2.83v1.42h1.36c.42,0,.67,0,.87-.05l.57,.57c-.11,.13-.23,.3-.41,.57-.52,.8-1.15,1.48-1.94,2.14,1.08,.65,2.23,1.06,3.75,1.31-.22,.32-.33,.54-.48,.97-1.75-.41-2.84-.87-4.05-1.69-1.29,.84-2.5,1.33-4.11,1.66-.13-.35-.24-.56-.47-.91,1.5-.23,2.69-.64,3.83-1.32-.9-.75-1.36-1.35-1.93-2.45-.47,.01-.73,.02-1.04,.06v-.93c.28,.04,.67,.06,1.16,.06h1.95v-1.42h-2.68c-.48,0-.84,.02-1.15,.06v-.99c.31,.05,.67,.07,1.15,.07h2.68v-.48Zm-1.06,3.56c.39,.76,.89,1.32,1.69,1.92,.79-.59,1.24-1.09,1.78-1.92h-3.47Z"/>
        <path class="cls-1" d="M59.39,57.09c-.36,0-.67,0-.92,.04v-.81c.21,.03,.45,.04,.83,.04h.06c-.17-.5-.3-.78-.59-1.2l.71-.24c.27,.42,.41,.72,.56,1.16l-.63,.28h2.85c.46-.71,.67-1.17,.87-1.79l.86,.24c-.42,.82-.58,1.11-.89,1.55h.33c.39,0,.59,0,.83-.05v.82c-.29-.03-.55-.04-.96-.04h-2.67c-.03,.31-.04,.41-.08,.67h2.74c.55,0,.85-.01,1.13-.06v.88c-.3-.04-.7-.06-1.13-.06h-2.88c-.05,.22-.08,.32-.15,.57h2.15c.44,0,.67,0,.85-.04l.45,.55q-.07,.09-.2,.26c-.29,.42-.81,.99-1.2,1.32,.71,.35,1.25,.5,2.32,.67-.18,.32-.27,.5-.41,.9-1.11-.28-1.82-.57-2.6-1.05-.71,.45-1.5,.79-2.45,1.04-.12-.32-.26-.55-.48-.79,.92-.18,1.51-.38,2.21-.77-.48-.39-.79-.7-1.05-1.03-.48,1.02-1.06,1.75-1.93,2.5-.12-.24-.32-.49-.55-.67-.06,.53-.31,.67-1.24,.67-.16,0-.28,0-.56-.02-.02-.32-.07-.54-.19-.86,.38,.04,.62,.06,.88,.06,.2,0,.25-.05,.25-.24v-2.57q-.34,.12-.58,.21s-.06,.02-.31,.11c-.06,.02-.11,.04-.2,.08l-.2-.94c.41-.06,.64-.12,1.3-.34v-1.89h-.49c-.24,0-.42,0-.68,.04v-.9c.23,.04,.4,.05,.68,.05h.49v-.89c0-.49,0-.74-.06-1.04h1c-.05,.28-.06,.54-.06,1.03v.9h.28c.23,0,.37,0,.57-.03v.87c-.21-.02-.35-.03-.57-.03h-.28v1.56c.32-.12,.41-.16,.76-.32l.02,.83c-.36,.17-.48,.23-.78,.35v3.24c1.11-.86,1.83-1.98,2.19-3.4h-.24c-.43,0-.71,0-.99,.05v-.86c.29,.04,.57,.05,1.01,.05h.37c.03-.24,.05-.46,.07-.67h-.37Zm4.74-2.89q-.12,.02-.48,.09c-1.3,.27-3.42,.49-5.26,.55-.06-.3-.1-.42-.28-.74h.29c1.93,0,4.35-.3,5.12-.63l.61,.72Zm-3.09,2.12c-.12-.48-.28-.86-.54-1.32l.72-.23c.26,.45,.38,.74,.54,1.29l-.72,.26Zm-.53,3.51c.31,.33,.63,.62,1.04,.91,.4-.31,.62-.53,.9-.91h-1.93Z"/>
        <path class="cls-1" d="M69.4,58.48h-2.38c-.37,0-.67,0-.94,.04v-.79c.25,.04,.49,.05,.96,.05h2.36v-.47h-2.12c-.34,0-.61,0-.85,.04,.03-.24,.04-.41,.04-.68v-.57c0-.28,0-.44-.04-.71,.26,.03,.48,.04,.86,.04h2.11v-.48h-2.82c-.49,0-.84,.02-1.17,.06v-.86c.29,.04,.62,.06,1.21,.06h2.78c-.01-.4-.02-.53-.06-.78h1.01c-.05,.24-.07,.37-.07,.78h2.95c.58,0,.91-.02,1.2-.06v.86c-.34-.04-.67-.06-1.16-.06h-2.99v.48h2.32c.36,0,.59,0,.84-.04-.03,.23-.04,.4-.04,.71v.57c0,.29,.01,.45,.04,.68-.22-.03-.49-.04-.82-.04h-2.34v.47h2.26c.57,0,.81,0,1.09-.04-.02,.22-.03,.39-.03,.92v.37c.52,0,.75-.02,.96-.06v.83c-.23-.03-.46-.05-.96-.05v.63c0,.51,0,.8,.06,1.06h-.94v-.39h-2.44v.66c0,.82-.24,1-1.34,1-.21,0-.62-.02-.97-.04-.04-.34-.09-.51-.25-.86,.55,.07,.9,.1,1.27,.1,.33,0,.41-.05,.41-.25v-.61h-2.39c-.46,0-.7,0-1.01,.05v-.83c.29,.03,.46,.04,.98,.04h2.42v-.56h-2.94c-.57,0-.85,.01-1.11,.05v-.83c.25,.05,.52,.06,1.1,.06h2.95v-.54Zm-2.03-2.4v.55h2.03v-.55h-2.03Zm2.91,.55h2.23v-.55h-2.23v.55Zm2.44,2.39v-.54h-2.44v.54h2.44Zm-2.44,1.28h2.44v-.56h-2.44v.56Z"/>
        <path class="cls-1" d="M76.94,57.47c-.47,0-.75,0-1.04,.05v-.84c.28,.04,.53,.05,1.04,.05h1.31c-.15-.39-.27-.63-.43-.92h-1.16c-.48,0-.85,.02-1.16,.05v-.86c.28,.04,.6,.06,1.12,.06h.47c-.17-.31-.39-.6-.74-.99l.83-.33c.41,.54,.51,.69,.83,1.32h.68v-.73c0-.32-.02-.6-.06-.81h.94c-.02,.18-.03,.42-.03,.78v.76h.86v-.76c0-.33-.02-.58-.04-.78h.94c-.04,.21-.05,.48-.05,.81v.73h.77c.33-.45,.58-.92,.75-1.36l.88,.33c-.25,.41-.49,.78-.67,1.03h.4c.53,0,.84-.02,1.14-.06v.86c-.32-.03-.68-.05-1.18-.05h-1.08c-.16,.36-.27,.58-.44,.92h1.27c.51,0,.77,0,1.07-.05v.84c-.3-.04-.57-.05-1.07-.05h-2.68v.57h2.12c.46,0,.79-.01,1.06-.05v.81c-.28-.04-.59-.05-1.06-.05h-2.12v.59h2.91c.59,0,.91-.02,1.2-.06v.87c-.37-.04-.74-.06-1.19-.06h-2.25c.81,.71,2.05,1.24,3.67,1.53-.25,.31-.36,.49-.51,.86-1.74-.47-2.85-1.06-3.87-2.06,.03,.38,.03,.54,.03,.77v.57c0,.42,.02,.75,.06,1.03h-.98c.04-.29,.06-.62,.06-1.04v-.55c0-.23,0-.34,.02-.75-.52,.53-.9,.82-1.54,1.18-.67,.37-1.22,.6-2.07,.87-.17-.36-.26-.5-.53-.82,.9-.2,1.42-.36,2-.65,.59-.28,1.03-.55,1.44-.92h-2.09c-.46,0-.82,.02-1.18,.06v-.87c.29,.04,.62,.06,1.18,.06h2.77v-.59h-2.01c-.45,0-.76,0-1.04,.05v-.81c.29,.04,.58,.05,1.04,.05h2.01v-.57h-2.58Zm3.93-.74c.19-.36,.3-.62,.4-.92h-2.5c.17,.36,.23,.51,.37,.92h1.72Z"/>
        <path class="cls-1" d="M89.69,58.27c0,.39,0,.55,.03,.79-.15-.02-.23-.02-.28-.02h-.67s-1.75,0-1.75,0c-.08,1.63-.31,2.58-.91,3.61-.26-.3-.44-.45-.76-.63,.66-1.09,.84-2.16,.84-4.9,0-.68,0-1.02-.05-1.38,.34,.03,.58,.04,1.06,.04h1.54c.46,0,.67,0,.99-.04-.02,.2-.03,.49-.03,.85v1.71Zm-3.98-4.34c.28,.05,.54,.06,1.04,.06h2.27c.55,0,.79-.01,1.03-.05v.95c-.23-.04-.5-.05-1-.05h-2.34c-.43,0-.72,0-1,.05v-.96Zm3.11,4.3v-1.69h-1.78v.87c0,.4,0,.52,0,.83h1.79Zm2.52-.79c-.08,1.36-.2,2.14-.47,2.92-.3,.88-.69,1.46-1.5,2.32-.23-.31-.41-.48-.71-.68,1.47-1.38,1.8-2.54,1.8-6.32,0-.63,0-.93-.04-1.25,1.14,0,2.96-.43,3.72-.88l.51,.85c-.17,.04-.23,.06-.44,.13-1.05,.34-1.74,.5-2.85,.67v1.39h2.43c.44,0,.67-.01,.96-.06v.98c-.28-.04-.51-.05-.9-.05h-.23v4.13c0,.52,0,.75,.06,1.07h-1.01c.04-.3,.06-.58,.06-1.08v-4.12h-1.39Z"/>
        <path class="cls-1" d="M101.09,56.64c-.71,.46-1.1,.68-1.81,1.02-.11-.31-.24-.52-.52-.85,.95-.38,1.84-.92,2.64-1.57,.7-.58,1.15-1.06,1.56-1.71h1.03c.43,.67,.88,1.13,1.67,1.75,.83,.64,1.67,1.12,2.65,1.49-.23,.32-.34,.54-.48,.92-.74-.34-1.14-.57-1.86-1.07v.81c-.24-.03-.51-.04-.89-.04h-3.15c-.29,0-.57,0-.83,.04v-.79Zm-.9,6c.04-.3,.06-.6,.06-1.02v-2.31c0-.39-.02-.67-.05-.97,.21,.03,.45,.04,.84,.04h4.89c.38,0,.62,0,.85-.04-.04,.28-.05,.55-.05,.97v2.31c0,.43,.01,.71,.06,1.02h-1.01v-.53h-4.58v.53h-1.01Zm1.01-1.35h4.58v-2.08h-4.58v2.08Zm3.87-4.77c.31,0,.48,0,.69-.02-1.05-.76-1.63-1.31-2.28-2.18-.67,.94-1.21,1.47-2.2,2.18,.21,0,.37,.02,.64,.02h3.13Z"/>
        <path class="cls-1" d="M109.47,54.85c0-.41-.01-.69-.04-.98,.21,.02,.62,.04,1.06,.04h6.26c.43,0,.81-.01,1.02-.04-.03,.3-.04,.58-.04,1.03v6.75c0,.73-.27,.9-1.49,.9-.37,0-.76,0-1.19-.05-.04-.36-.09-.56-.23-.9,.61,.07,1.07,.1,1.5,.1,.38,0,.47-.04,.47-.22v-6.73h-6.38v6.81c0,.54,0,.82,.06,1.13h-1.06c.04-.34,.06-.7,.06-1.15v-6.69Zm1.49,.75c.21,.04,.39,.05,.87,.05h3.59c.48,0,.62,0,.86-.05v.91c-.24-.03-.44-.04-.85-.04h-3.62c-.4,0-.6,0-.86,.04v-.91Zm4.67,4.45c0,.22,0,.43,.03,.61-.23-.02-.43-.03-.64-.03h-2.55v.81h-.92c.03-.27,.04-.53,.04-.9v-2.53c0-.24-.01-.44-.03-.64,.24,.02,.42,.03,.68,.03h2.67c.37,0,.55-.01,.75-.03-.02,.19-.03,.35-.03,.64v2.03Zm-3.17-.22h2.3v-1.62h-2.3v1.62Z"/>
        <path class="cls-1" d="M121.16,56.67c-.59,.4-1.02,.64-1.69,.95-.14-.34-.3-.59-.52-.85,1.87-.77,3.3-1.86,4.18-3.22h1c.5,.73,.93,1.16,1.69,1.72,.88,.64,1.75,1.13,2.67,1.46-.23,.32-.38,.62-.49,.94-.65-.3-1.09-.53-1.8-1.01v.82c-.26-.03-.51-.04-.89-.04h-3.31c-.28,0-.58,0-.83,.04v-.81Zm-.6,2.63c-.51,0-.85,.02-1.17,.06v-.99c.32,.04,.68,.06,1.17,.06h6.24c.5,0,.86-.02,1.17-.06v.99c-.33-.04-.66-.06-1.17-.06h-3.52c-.38,.87-.71,1.47-1.14,2.14q2.36-.18,3.5-.31c-.42-.47-.62-.68-1.1-1.15l.78-.41c1.17,1.17,1.74,1.81,2.37,2.67l-.79,.55c-.32-.49-.44-.66-.64-.93-1.67,.22-3.59,.41-5.09,.52-.82,.06-1.21,.1-1.46,.15l-.15-1.03c.22,0,.42,.02,.56,.02,.08,0,.23,0,.46-.02q.09,0,.49-.02c.49-.75,.84-1.41,1.16-2.19h-1.66Zm4.74-2.73c.29,0,.49-.01,.7-.02-1.08-.74-1.71-1.32-2.36-2.19-.59,.82-1.26,1.44-2.31,2.19,.22,.02,.35,.02,.65,.02h3.3Z"/>
        <path class="cls-1" d="M131.6,61.72c0,.47,0,.74,.05,1.02h-1.02c.04-.3,.06-.57,.06-1.03v-2.79c-.43,.41-.67,.61-1.24,1.01-.1-.3-.27-.61-.45-.85,.74-.44,1.24-.85,1.79-1.45,.48-.52,.79-.97,1.13-1.65h-1.73c-.35,0-.56,0-.84,.04v-.94c.27,.03,.47,.04,.8,.04h.54v-.89c0-.26-.02-.54-.06-.77h1.03c-.04,.22-.06,.46-.06,.79v.87h.48c.31,0,.45,0,.58-.03l.41,.45c-.09,.13-.14,.24-.22,.4-.33,.71-.6,1.16-1.06,1.74,.5,.56,.91,.9,1.61,1.32-.2,.27-.33,.49-.46,.82-.57-.38-.93-.7-1.35-1.19v3.08Zm4.22-.35h1.36c.51,0,.84-.02,1.13-.06v1.05c-.33-.05-.71-.07-1.13-.07h-3.5c-.43,0-.79,.02-1.12,.07v-1.05c.31,.04,.62,.06,1.13,.06h1.21v-4.07h-.85c-.36,0-.69,.02-1,.05v-.99c.27,.04,.55,.06,1,.06h.85v-1.93c0-.38-.02-.62-.07-1h1.07c-.06,.38-.07,.59-.07,1v1.93h1.17c.45,0,.71-.02,.99-.06v.99c-.31-.03-.62-.05-.99-.05h-1.17v4.07Z"/>
        <path class="cls-1" d="M142.87,54.73c-.04,.13-.04,.15-.08,.38,0,0,0,.07-.02,.15-.01,.03-.02,.11-.03,.21-.44,2.99-1.19,4.82-2.61,6.45-.4-.39-.53-.49-.95-.73,.6-.59,1.03-1.2,1.45-2.08,.45-.94,.82-2.23,.99-3.47,.06-.43,.09-.74,.09-.97v-.15l1.16,.21Zm2.83-.21c.03,.56,.2,1.47,.44,2.37,.48,1.82,1.18,3.13,2.26,4.27-.42,.27-.56,.39-.91,.78-.69-.79-1.22-1.67-1.7-2.82-.45-1.07-.81-2.39-1-3.68-.06-.37-.09-.54-.13-.71l1.04-.21Z"/>
        <path class="cls-1" d="M149.61,57.47c.37,.05,.81,.07,1.55,.07h5.45c.87,0,1.11,0,1.5-.06v1.17c-.44-.04-.77-.05-1.51-.05h-5.43c-.85,0-1.15,0-1.56,.05v-1.18Z"/>
        <path class="cls-1" d="M161.69,62.32c.05-.43,.06-.68,.06-1.29v-5.99c0-.69,0-.93-.06-1.21h1.19c-.04,.32-.06,.66-.06,1.23v1.7c1.44,.5,2.85,1.17,4.53,2.12l-.58,1c-.45-.31-.71-.47-1.25-.77-.76-.41-1.86-.96-2.41-1.19q-.17-.07-.32-.17,0,.14,.02,.39c0,.09,.01,.4,.01,.5v2.38c0,.53,.02,.92,.06,1.29h-1.19Z"/>
        <path class="cls-1" d="M177.79,55.17q-.09,.16-.24,.71c-.51,1.9-1.29,3.28-2.51,4.41-.91,.86-1.79,1.4-3.2,1.98-.22-.45-.34-.61-.72-1,.9-.27,1.48-.54,2.24-1.05,1.59-1.05,2.58-2.49,3.1-4.54h-4.8c-.67,0-.96,.01-1.34,.06v-1.12c.4,.06,.68,.07,1.36,.07h4.62c.51,0,.64-.01,.91-.09l.59,.56Z"/>
        <path class="cls-1" d="M182.69,54.19q-.04,.26-.1,2.24c-.07,1.93-.29,3.02-.83,4.05-.34,.67-.72,1.16-1.4,1.81-.3-.4-.44-.53-.85-.81,.79-.64,1.29-1.35,1.62-2.31,.3-.9,.43-2.17,.43-4.24,0-.42,0-.56-.03-.81l1.15,.06Zm2.6-.12c-.05,.34-.06,.5-.06,1.22l-.06,5.59c.77-.32,1.21-.63,1.67-1.16,.5-.55,.85-1.16,1.08-1.91,.29,.38,.4,.49,.8,.81-.41,.96-.92,1.69-1.55,2.27-.57,.51-1.12,.82-2.16,1.22-.19,.07-.3,.12-.41,.18l-.54-.59c.06-.24,.07-.4,.08-.92l.05-5.49v-.24c0-.52,0-.71-.05-.98h1.16Z"/>
        <path class="cls-1" d="M198,61.97c-.07-.34-.18-.76-.29-1.05l-.45-1.18h-3.34l-.45,1.18c-.17,.43-.23,.67-.3,1.05h-1.41c.17-.3,.32-.63,.53-1.18l2.24-5.71c.19-.49,.27-.74,.32-.99h1.45c.05,.22,.1,.37,.34,.99l2.25,5.71c.25,.62,.38,.93,.52,1.18h-1.4Zm-2.23-6.31q-.04-.1-.2-.6-.17,.52-.2,.6l-1.15,3.12h2.71l-1.16-3.12Z"/>
        <path class="cls-1" d="M205.65,56.48c-.12-.42-.23-.63-.44-.89-.37-.43-.92-.67-1.58-.67-1.52,0-2.45,1.17-2.45,3.08s.96,3.11,2.46,3.11c.73,0,1.36-.28,1.71-.79,.2-.27,.29-.51,.37-.96l1.2,.23c-.18,.67-.34,1.02-.62,1.38-.57,.73-1.53,1.13-2.69,1.13-1.04,0-1.89-.32-2.5-.94-.71-.72-1.1-1.86-1.1-3.13,0-1.34,.43-2.49,1.23-3.24,.61-.58,1.39-.87,2.38-.87s1.76,.27,2.36,.85c.41,.39,.62,.75,.84,1.4l-1.16,.29Z"/>
        <path class="cls-1" d="M213.59,62.04c-.34-.05-.64-.07-1.23-.07h-3.07c-.56,0-.79,0-1.21,.03,.06-.39,.08-.73,.08-1.28v-5.42c0-.48-.02-.8-.08-1.24,.36,.02,.64,.03,1.21,.03h2.97c.49,0,.91-.02,1.23-.07v1.13c-.36-.05-.67-.07-1.23-.07h-2.98v2.29h2.53c.5,0,.84-.02,1.24-.07v1.13c-.37-.05-.64-.07-1.24-.07h-2.54v2.62h3.09c.55,0,.83-.02,1.23-.07v1.14Z"/>
        <path class="cls-1" d="M13.51,74.31v.96H5.51v-.96h8Zm-8,3.58v-.95h8v.95h-3.47v4.29h-1.07v-4.29h-3.45Z"/>
        <path class="cls-1" d="M20.32,78.45c.48,.38,.73,.9,.73,1.57,0,1.45-1.08,2.26-3.01,2.26s-3.04-.82-3.04-2.25c0-.71,.28-1.27,.86-1.66,.32-.22,.56-.31,.96-.38-.37-.09-.63-.22-.92-.49-.33-.31-.54-.82-.54-1.32,0-1.29,1.03-2.09,2.67-2.09s2.68,.79,2.68,2.04c0,.95-.53,1.64-1.44,1.86,.43,.06,.72,.19,1.07,.46Zm-4.15,1.49c0,.89,.67,1.4,1.83,1.4s1.86-.51,1.86-1.4-.7-1.44-1.84-1.44-1.85,.54-1.85,1.44Zm.29-3.71c0,.81,.59,1.3,1.56,1.3s1.54-.48,1.54-1.29-.6-1.25-1.55-1.25-1.55,.48-1.55,1.24Z"/>
        <path class="cls-1" d="M23.08,74.18c.28,.05,.49,.06,.94,.06h.81c.44,0,.59,0,.95-.05-.06,.61-.08,1.09-.08,1.67v5.01c0,.51,.02,.85,.08,1.25h-1.3c.06-.38,.08-.75,.08-1.25v-5.66h-.5c-.34,0-.62,.02-.97,.06v-1.09Z"/>
        <path class="cls-1" d="M29.9,81.49c-.29-.29-.5-.62-.63-.98-.26-.71-.39-1.5-.39-2.33,0-1.06,.24-2.17,.59-2.76,.52-.87,1.38-1.34,2.45-1.34,.82,0,1.5,.26,2.01,.78,.29,.29,.51,.62,.63,.98,.26,.71,.39,1.51,.39,2.34,0,1.23-.27,2.32-.72,2.95-.54,.75-1.33,1.14-2.33,1.14-.82,0-1.49-.26-2-.78Zm.83-5.92c-.21,.23-.35,.49-.43,.76-.18,.56-.27,1.21-.27,1.88,0,.89,.19,1.82,.45,2.27,.32,.54,.81,.82,1.44,.82,.47,0,.89-.16,1.16-.44,.21-.22,.37-.5,.46-.82,.18-.58,.27-1.19,.27-1.86,0-.82-.17-1.74-.41-2.21-.31-.6-.8-.91-1.49-.91-.5,0-.88,.16-1.18,.51Z"/>
        <path class="cls-1" d="M35.71,78.54c.28,.04,.53,.06,.94,.06h1.41c.41,0,.67-.01,.95-.06v1.15c-.31-.05-.53-.06-.95-.06h-1.41c-.4,0-.62,.01-.94,.06v-1.15Z"/>
        <path class="cls-1" d="M40.78,81.49c-.29-.29-.5-.62-.63-.98-.26-.71-.39-1.5-.39-2.33,0-1.06,.24-2.17,.59-2.76,.52-.87,1.38-1.34,2.45-1.34,.82,0,1.5,.26,2.01,.78,.29,.29,.51,.62,.63,.98,.26,.71,.39,1.51,.39,2.34,0,1.23-.27,2.32-.72,2.95-.54,.75-1.33,1.14-2.33,1.14-.82,0-1.49-.26-2-.78Zm.83-5.92c-.21,.23-.35,.49-.43,.76-.18,.56-.27,1.21-.27,1.88,0,.89,.19,1.82,.45,2.27,.32,.54,.81,.82,1.44,.82,.47,0,.89-.16,1.16-.44,.21-.22,.37-.5,.46-.82,.18-.58,.27-1.19,.27-1.86,0-.82-.17-1.74-.41-2.21-.31-.6-.8-.91-1.49-.91-.5,0-.88,.16-1.18,.51Z"/>
        <path class="cls-1" d="M47.73,81.49c-.29-.29-.5-.62-.63-.98-.26-.71-.39-1.5-.39-2.33,0-1.06,.24-2.17,.59-2.76,.52-.87,1.38-1.34,2.45-1.34,.82,0,1.5,.26,2.01,.78,.29,.29,.51,.62,.63,.98,.26,.71,.39,1.51,.39,2.34,0,1.23-.27,2.32-.72,2.95-.54,.75-1.33,1.14-2.33,1.14-.82,0-1.49-.26-2-.78Zm.83-5.92c-.21,.23-.35,.49-.43,.76-.18,.56-.27,1.21-.27,1.88,0,.89,.19,1.82,.45,2.27,.32,.54,.81,.82,1.44,.82,.47,0,.89-.16,1.16-.44,.21-.22,.37-.5,.46-.82,.18-.58,.27-1.19,.27-1.86,0-.82-.17-1.74-.41-2.21-.31-.6-.8-.91-1.49-.91-.5,0-.88,.16-1.18,.51Z"/>
        <path class="cls-1" d="M54.68,81.49c-.29-.29-.5-.62-.63-.98-.26-.71-.39-1.5-.39-2.33,0-1.06,.24-2.17,.59-2.76,.52-.87,1.38-1.34,2.45-1.34,.82,0,1.5,.26,2.01,.78,.29,.29,.51,.62,.63,.98,.26,.71,.39,1.51,.39,2.34,0,1.23-.27,2.32-.72,2.95-.54,.75-1.33,1.14-2.33,1.14-.82,0-1.49-.26-2-.78Zm.83-5.92c-.21,.23-.35,.49-.43,.76-.18,.56-.27,1.21-.27,1.88,0,.89,.19,1.82,.45,2.27,.32,.54,.81,.82,1.44,.82,.47,0,.89-.16,1.16-.44,.21-.22,.37-.5,.46-.82,.18-.58,.27-1.19,.27-1.86,0-.82-.17-1.74-.41-2.21-.31-.6-.8-.91-1.49-.91-.5,0-.88,.16-1.18,.51Z"/>
        <path class="cls-1" d="M61.75,74.18c.28,.05,.49,.06,.94,.06h.81c.44,0,.59,0,.95-.05-.06,.61-.08,1.09-.08,1.67v5.01c0,.51,.02,.85,.08,1.25h-1.3c.06-.38,.08-.75,.08-1.25v-5.66h-.5c-.34,0-.62,.02-.97,.06v-1.09Z"/>
        <path class="cls-1" d="M6.22,91.64c-.41,.42-.59,.59-1.13,1.02-.1-.33-.25-.63-.43-.89,.73-.49,1.19-.91,1.7-1.53,.41-.5,.67-.92,.98-1.57h-1.55c-.26,0-.5,.01-.79,.04v-.91c.25,.03,.48,.04,.75,.04h.46v-.86c0-.26-.02-.55-.06-.79h1c-.04,.2-.06,.5-.06,.79v.85h.42c.25,0,.4-.01,.48-.03l.4,.52c-.07,.12-.14,.27-.21,.42-.25,.58-.59,1.18-1.01,1.73,.29,.36,.68,.67,1.19,.93-.2,.29-.29,.45-.4,.79-.4-.3-.58-.46-.88-.79v2.98c0,.49,.02,.83,.05,1.07h-.98c.04-.33,.06-.69,.06-1.09v-2.74Zm1.98-5.11c.31,.03,.64,.05,1.06,.05h3.7c.45,0,.77-.02,1.05-.05v.93c-.29-.04-.56-.05-.97-.05h-3.87c-.39,0-.67,.01-.97,.05v-.93Zm4.64,4.41c.47,0,.78,0,1.01-.04-.03,.27-.04,.55-.04,1.01v2.5c0,.43,.02,.76,.06,1.03h-.91v-.44h-3.74v.42h-.9c.04-.31,.06-.6,.06-1.03v-2.46c0-.44-.01-.73-.04-1.02,.26,.02,.56,.03,1.01,.03h3.48Zm-4.04-2.2c0-.35,0-.56-.04-.8,.29,.03,.56,.04,.97,.04h2.72c.37,0,.67,0,.95-.04-.03,.26-.04,.42-.04,.79v.82c0,.37,0,.54,.04,.81-.27-.03-.52-.04-.97-.04h-2.7c-.4,0-.68,0-.97,.04,.03-.23,.04-.44,.04-.79v-.83Zm.42,3.81h1.41v-.87h-1.41v.87Zm0,1.69h1.41v-.96h-1.41v.96Zm.41-4.64h2.84v-.88h-2.84v.88Zm1.81,2.95h1.51v-.87h-1.51v.87Zm0,1.69h1.51v-.96h-1.51v.96Z"/>
        <path class="cls-1" d="M15.49,87.52c0-.39,0-.64-.04-.94,.3,.03,.56,.04,1.09,.04h6.24c.5,0,.75,0,1.02-.04-.04,.3-.05,.57-.05,1.03v6.86c0,.67-.31,.87-1.36,.87-.38,0-.65,0-1.07-.05-.06-.35-.1-.48-.26-.91,.44,.07,1,.12,1.44,.12,.27,0,.34-.05,.34-.27v-6.77h-6.45v6.89c0,.53,0,.81,.05,1.06h-1.02c.04-.31,.06-.64,.06-1.08v-6.81Zm4.51,1.86c.36-.52,.63-1.1,.85-1.76l.85,.3c-.29,.64-.46,.95-.81,1.46h.75c.44,0,.64-.01,.91-.05v.9c-.23-.03-.51-.04-.91-.04h-1.64v2.56h1.15v-1.21c0-.32,0-.53-.04-.79h.89c-.04,.26-.05,.48-.05,.85v1.46c0,.42,0,.63,.04,.94h-.84v-.44h-3.04v.81h-.85c.04-.29,.05-.54,.05-1.04v-1.71c0-.35,0-.49-.05-.86h.89c-.03,.23-.04,.44-.04,.8v1.2h1.07v-2.56h-1.55c-.41,0-.67,0-.92,.04v-.9c.29,.04,.49,.05,.92,.05h2.38Zm-1.62-1.77c.38,.59,.47,.75,.75,1.38l-.79,.31c-.23-.58-.41-.92-.74-1.36l.78-.33Z"/>
        <path class="cls-1" d="M29.08,87.01c0-.29-.03-.6-.07-.79h1.09c-.05,.23-.07,.47-.07,.79v.54h2.97c.52,0,.88-.02,1.22-.07v.98c-.3-.05-.59-.06-1.2-.06h-6.69c-.48,0-.87,.02-1.2,.06v-.98c.37,.05,.72,.07,1.21,.07h2.74v-.54Zm0,2.39c0-.28,0-.52-.04-.76h1.02c-.02,.13-.04,.41-.04,.77v.2h2.36c.41,0,.66,0,.97-.04-.03,.26-.04,.49-.04,.85v2.94c0,.82-.25,1.02-1.28,1.02-.3,0-.47,0-.93-.04-.05-.39-.08-.53-.23-.92,.46,.06,.82,.1,1.04,.1,.4,0,.49-.05,.49-.3v-2.79h-2.38v3.85c0,.45,.02,.8,.07,1.19h-1.08c.05-.41,.07-.75,.07-1.18v-3.86h-2.17v2.95c0,.51,.02,.83,.06,1.15h-1.05c.04-.38,.06-.68,.06-1.14v-2.97c0-.3-.01-.58-.04-.85,.31,.03,.58,.04,1.01,.04h2.12v-.21Z"/>
        <path class="cls-1" d="M39.25,87.28c0-.52-.02-.75-.07-1.08h1.09c-.05,.3-.06,.57-.06,1.05v.75h2.82c.39,0,.6,0,.86-.04-.03,.28-.04,.48-.04,.85v2.95c0,.39,0,.65,.05,.96h-1v-.63h-2.69v2.17c0,.59,.01,.88,.07,1.21h-1.1c.05-.35,.07-.64,.07-1.21v-2.17h-2.56v.63h-1.01c.04-.34,.06-.56,.06-.96v-2.95c0-.35-.01-.55-.05-.85,.27,.03,.48,.04,.85,.04h2.71v-.71Zm-2.56,1.59v2.33h2.56v-2.33h-2.56Zm6.2,2.33v-2.33h-2.69v2.33h2.69Z"/>
        <path class="cls-1" d="M50.5,91.68c.36,.61,.83,1.13,1.42,1.56,.75,.55,1.63,.97,2.52,1.19-.23,.33-.31,.47-.52,.97-1.1-.37-2.02-.93-2.88-1.69-.56-.51-.9-.95-1.28-1.69-.31,.83-.71,1.39-1.41,2-.68,.61-1.43,1.04-2.56,1.45-.18-.41-.25-.53-.54-.9,.99-.28,1.76-.67,2.46-1.22,.6-.49,.95-.96,1.24-1.67h-2.61c-.46,0-.82,.02-1.13,.06v-1c.35,.04,.59,.06,1.16,.06v-2.33c0-.34-.01-.56-.04-.79,.33,.04,.62,.05,1.09,.05h1.92v-.64c0-.33-.02-.55-.06-.85h1.04c-.05,.29-.06,.45-.06,.86v.63h1.99c.53,0,.83,0,1.09-.05-.03,.24-.04,.42-.04,.78v2.35c.56,0,.81-.02,1.15-.06v1c-.32-.04-.66-.06-1.14-.06h-2.8Zm-1.33-.88c.09-.55,.13-1.14,.15-2.21h-2.08v2.21h1.92Zm3.23,0v-2.21h-2.17c-.03,1-.08,1.68-.16,2.21h2.33Z"/>
        <path class="cls-1" d="M64.3,94.96c-.3-.05-.57-.07-1.06-.07h-6.52v.51h-1.01c.04-.37,.06-.67,.06-1.15v-6.51c0-.42,0-.75-.04-1.06,.33,.04,.62,.05,1.09,.05h6.15c.55,0,.85-.02,1.15-.07v1c-.34-.05-.61-.06-1.14-.06h-6.26v6.42h6.51c.55,0,.81,0,1.07-.06v1Zm-1.46-1.46c-.91-.95-1.38-1.39-2.2-2.07-.87,.91-1.62,1.5-2.9,2.28-.21-.27-.41-.48-.68-.72,1.21-.67,2.07-1.3,2.9-2.12-.67-.53-1.42-1.06-2.42-1.67l.62-.67c1.14,.75,1.49,1,2.39,1.67,.67-.84,1.2-1.73,1.37-2.33l.93,.44c-.13,.19-.15,.22-.3,.51-.37,.71-.79,1.32-1.29,1.91,.74,.58,1.42,1.19,2.28,2l-.7,.77Z"/>
        <path class="cls-1" d="M70.47,90.49c.38,.94,.77,1.57,1.27,2.12,.79,.85,1.72,1.41,2.87,1.73-.28,.35-.41,.55-.57,.95-2.02-.82-3.34-2.12-4.15-4.05-.32,1.01-.78,1.76-1.5,2.46-.68,.67-1.35,1.08-2.52,1.55-.19-.41-.33-.62-.57-.87,1.37-.47,2.2-1,2.87-1.84,.48-.61,.79-1.25,.97-2.05h-2.08c-.43,0-.84,.02-1.19,.06v-.95c.34,.04,.71,.06,1.18,.06h2.23c.08-.71,.09-.84,.09-1.91h-2.64c-.52,0-.89,.02-1.23,.07v-1c.31,.05,.75,.07,1.24,.07h6.46c.48,0,.91-.02,1.23-.07v1c-.34-.05-.71-.07-1.22-.07h-2.88c-.02,1.09-.03,1.29-.1,1.91h2.64c.47,0,.84-.02,1.2-.06v.95c-.36-.04-.75-.06-1.19-.06h-2.39Z"/>
        <path class="cls-1" d="M77.73,94.3c0,.46,0,.8,.05,1.15h-.99c.04-.28,.06-.67,.06-1.15v-2.66c-.37,.39-.69,.69-1.19,1.09-.14-.38-.24-.6-.42-.87,.53-.36,1.09-.87,1.55-1.41,.49-.57,.83-1.11,1.14-1.78h-1.53c-.31,0-.57,.02-.82,.05v-.91c.21,.04,.39,.05,.75,.05h.51v-.91c0-.23-.03-.53-.06-.78h1c-.03,.2-.05,.49-.05,.79v.9h.34c.31,0,.47,0,.56-.03l.4,.44q-.05,.08-.27,.58c-.25,.54-.55,1.09-.89,1.54,.33,.38,.73,.73,1.29,1.12-.22,.29-.31,.45-.44,.8-.51-.43-.72-.62-1-.96v2.94Zm3.48-7.04c0-.45-.02-.76-.06-1.07h.99c-.05,.34-.06,.61-.06,1.08v.46h1.22c.53,0,.75,0,1.01-.05-.04,.26-.04,.44-.04,.97v3.38c0,.43,.01,.74,.04,1.03h-.91v-.54h-1.32v1.73c0,.52,0,.89,.06,1.21h-.99c.04-.34,.06-.67,.06-1.19v-1.75h-1.18v.58h-.91c.03-.28,.05-.54,.05-1v-3.45c0-.44-.01-.67-.04-.97,.23,.04,.47,.05,1.01,.05h1.07v-.47Zm-1.18,1.28v1.16h1.18v-1.16h-1.18Zm0,1.93v1.25h1.18v-1.25h-1.18Zm3.37-.78v-1.16h-1.33v1.16h1.33Zm0,2.02v-1.25h-1.33v1.25h1.33Z"/>
        <path class="cls-1" d="M86.73,86.77c.28,.05,.49,.06,.94,.06h.81c.44,0,.59,0,.95-.05-.06,.61-.08,1.09-.08,1.67v5c0,.51,.02,.85,.08,1.25h-1.3c.06-.38,.08-.75,.08-1.25v-5.66h-.5c-.34,0-.62,.02-.97,.06v-1.09Z"/>
        <path class="cls-1" d="M92.41,91.13c.28,.04,.53,.06,.94,.06h1.41c.41,0,.67,0,.95-.06v1.15c-.31-.05-.53-.06-.95-.06h-1.41c-.4,0-.62,.01-.94,.06v-1.15Z"/>
        <path class="cls-1" d="M97.6,86.77c.28,.05,.49,.06,.94,.06h.81c.44,0,.59,0,.95-.05-.06,.61-.08,1.09-.08,1.67v5c0,.51,.02,.85,.08,1.25h-1.3c.06-.38,.08-.75,.08-1.25v-5.66h-.5c-.34,0-.62,.02-.97,.06v-1.09Z"/>
        <path class="cls-1" d="M104.6,92.65c.13,.46,.25,.65,.53,.87,.34,.25,.76,.38,1.26,.38,1.06,0,1.74-.54,1.74-1.4,0-.91-.65-1.4-1.85-1.4-.38,0-.66,0-.98,.05v-1.07c.24,.04,.55,.06,.81,.06,.51,0,.98-.1,1.23-.27,.37-.24,.56-.62,.56-1.07,0-.78-.53-1.19-1.52-1.19-.55,0-.96,.17-1.22,.5-.14,.18-.2,.32-.29,.66l-1.2-.22c.17-.56,.33-.85,.65-1.16,.49-.48,1.22-.74,2.12-.74,1.59,0,2.62,.82,2.62,2.07,0,.61-.26,1.16-.7,1.48-.24,.18-.45,.26-.96,.38,.69,.09,1.08,.26,1.43,.64,.33,.36,.48,.8,.48,1.39,0,.54-.22,1.09-.59,1.45-.52,.51-1.33,.79-2.34,.79-1.11,0-1.9-.29-2.45-.9-.24-.27-.36-.52-.54-1.07l1.2-.25Z"/>
        <path class="cls-1" d="M110.23,91.13c.28,.04,.53,.06,.94,.06h1.41c.41,0,.67,0,.95-.06v1.15c-.31-.05-.53-.06-.95-.06h-1.41c-.4,0-.62,.01-.94,.06v-1.15Z"/>
        <path class="cls-1" d="M115.43,86.77c.28,.05,.49,.06,.94,.06h.81c.44,0,.59,0,.95-.05-.06,.61-.08,1.09-.08,1.67v5c0,.51,.02,.85,.08,1.25h-1.3c.06-.38,.08-.75,.08-1.25v-5.66h-.5c-.34,0-.62,.02-.97,.06v-1.09Z"/>
        <path class="cls-1" d="M122.59,92.87c.11,.3,.18,.43,.32,.59,.26,.29,.68,.44,1.22,.44,.69,0,1.17-.28,1.53-.89,.19-.32,.33-.78,.4-1.27,.03-.21,.05-.47,.07-.91-.17,.28-.26,.39-.48,.57-.47,.38-.98,.55-1.68,.55-.83,0-1.5-.24-1.96-.71-.45-.45-.71-1.13-.71-1.89,0-1.63,1.16-2.72,2.92-2.72,1.05,0,1.94,.49,2.43,1.36,.33,.56,.49,1.41,.49,2.51,0,1.57-.34,2.79-.97,3.47-.53,.57-1.19,.84-2.12,.84-.75,0-1.33-.17-1.79-.52-.35-.27-.55-.53-.84-1.12l1.17-.32Zm1.56-1.81c1,0,1.77-.75,1.77-1.73s-.75-1.73-1.77-1.73c-.49,0-.94,.18-1.26,.5s-.47,.73-.47,1.25c0,1.08,.63,1.71,1.73,1.71Z"/>
        <path class="cls-1" d="M135.26,90.49c.38,.94,.77,1.57,1.27,2.12,.79,.85,1.72,1.41,2.87,1.73-.28,.35-.41,.55-.57,.95-2.02-.82-3.34-2.12-4.15-4.05-.32,1.01-.78,1.76-1.5,2.46-.68,.67-1.35,1.08-2.52,1.55-.19-.41-.33-.62-.57-.87,1.37-.47,2.2-1,2.87-1.84,.48-.61,.79-1.25,.97-2.05h-2.08c-.43,0-.84,.02-1.19,.06v-.95c.34,.04,.71,.06,1.18,.06h2.23c.08-.71,.09-.84,.09-1.91h-2.64c-.52,0-.89,.02-1.23,.07v-1c.31,.05,.75,.07,1.24,.07h6.46c.48,0,.91-.02,1.23-.07v1c-.34-.05-.71-.07-1.22-.07h-2.88c-.02,1.09-.03,1.29-.1,1.91h2.64c.47,0,.83-.02,1.2-.06v.95c-.36-.04-.75-.06-1.19-.06h-2.39Z"/>
        <path class="cls-1" d="M142.52,94.3c0,.46,0,.8,.05,1.15h-.99c.04-.28,.06-.67,.06-1.15v-2.66c-.37,.39-.69,.69-1.19,1.09-.14-.38-.24-.6-.42-.87,.53-.36,1.09-.87,1.55-1.41,.49-.57,.84-1.11,1.14-1.78h-1.53c-.31,0-.57,.02-.82,.05v-.91c.21,.04,.39,.05,.75,.05h.51v-.91c0-.23-.03-.53-.06-.78h1c-.03,.2-.05,.49-.05,.79v.9h.34c.31,0,.47,0,.56-.03l.4,.44q-.05,.08-.27,.58c-.25,.54-.55,1.09-.89,1.54,.33,.38,.73,.73,1.29,1.12-.22,.29-.31,.45-.44,.8-.51-.43-.72-.62-1-.96v2.94Zm3.48-7.04c0-.45-.02-.76-.06-1.07h.99c-.05,.34-.06,.61-.06,1.08v.46h1.22c.53,0,.75,0,1.01-.05-.04,.26-.04,.44-.04,.97v3.38c0,.43,.01,.74,.04,1.03h-.91v-.54h-1.32v1.73c0,.52,0,.89,.06,1.21h-.99c.04-.34,.06-.67,.06-1.19v-1.75h-1.18v.58h-.91c.03-.28,.05-.54,.05-1v-3.45c0-.44-.01-.67-.04-.97,.23,.04,.47,.05,1.01,.05h1.07v-.47Zm-1.18,1.28v1.16h1.18v-1.16h-1.18Zm0,1.93v1.25h1.18v-1.25h-1.18Zm3.37-.78v-1.16h-1.33v1.16h1.33Zm0,2.02v-1.25h-1.33v1.25h1.33Z"/>
        <path class="cls-1" d="M154.91,94.71c-.05-.3-.19-.75-.41-1.24l-1.7-3.93c-.15-.35-.24-.59-.47-1.36,.04,.48,.08,1.2,.08,1.45v3.72c0,.62,.02,.99,.08,1.36h-1.21c.06-.4,.08-.74,.08-1.36v-5.15c0-.58-.02-.98-.08-1.37h1.57c.06,.33,.19,.74,.35,1.12l2.23,5.23,2.21-5.23c.19-.45,.28-.77,.35-1.12h1.57c-.06,.43-.08,.76-.08,1.37v5.15c0,.67,.02,1,.08,1.36h-1.21c.05-.33,.08-.8,.08-1.36v-3.77c.03-.7,.06-1.17,.08-1.4-.12,.46-.28,.97-.42,1.29l-1.76,4.01c-.21,.48-.31,.78-.42,1.23h-1Z"/>
        <path class="cls-1" d="M166.68,94.71c-.07-.34-.18-.76-.29-1.05l-.45-1.18h-3.34l-.45,1.18c-.17,.43-.23,.67-.3,1.05h-1.41c.17-.3,.32-.63,.53-1.18l2.24-5.71c.19-.49,.27-.74,.32-.99h1.45c.05,.22,.1,.37,.34,.99l2.25,5.71c.25,.62,.38,.93,.52,1.18h-1.4Zm-2.23-6.31q-.04-.1-.2-.6-.17,.52-.2,.6l-1.15,3.12h2.71l-1.16-3.12Z"/>
        <path class="cls-1" d="M174.04,94.71c-.04-.31-.18-.72-.55-1.66-.55-1.37-.93-1.76-1.71-1.76h-1.65v2.18c0,.56,.02,.88,.08,1.25h-1.27c.06-.4,.08-.67,.08-1.24v-5.43c0-.48-.02-.8-.08-1.24,.37,.02,.67,.03,1.21,.03h2.34c.81,0,1.38,.18,1.8,.58,.36,.34,.55,.84,.55,1.45s-.18,1.13-.55,1.49c-.29,.28-.54,.4-1.11,.55,.44,.13,.69,.39,1.04,1.11,.21,.42,.45,.95,.79,1.71,.11,.26,.33,.73,.46,.98h-1.42Zm-1.74-4.39c.51,0,.98-.23,1.2-.6,.12-.2,.18-.43,.18-.75,0-.35-.1-.64-.3-.85-.23-.23-.54-.33-1.03-.33h-2.23v2.53h2.17Z"/>
        <path class="cls-1" d="M183.19,86.83c-.06,.36-.08,.7-.08,1.28v3.64c0,2-1.19,3.13-3.29,3.13-1.05,0-1.92-.32-2.47-.9-.51-.54-.75-1.25-.75-2.24v-3.63c0-.57-.02-.94-.08-1.29h1.28c-.06,.32-.08,.67-.08,1.29v3.61c0,.67,.15,1.16,.46,1.52,.35,.41,.95,.64,1.67,.64,.81,0,1.42-.26,1.77-.75,.25-.36,.36-.79,.36-1.41v-3.61c0-.59-.02-.94-.08-1.29h1.28Z"/>
        <path class="cls-1" d="M187.38,90c1.07-.21,2.07-.53,3.11-1.02,.72-.32,1.13-.56,1.43-.84l.68,.96-.45,.22c-.86,.45-1.84,.86-2.81,1.16q-.78,.24-1.97,.48v1.54c0,.63,.04,.86,.19,1.01,.19,.19,.79,.28,1.82,.28,.67,0,1.62-.06,2.36-.16,.41-.06,.61-.1,1.05-.21l.06,1.12-.43,.04c-1.11,.13-2.17,.2-3.2,.2-1.31,0-2-.12-2.39-.43-.27-.2-.41-.51-.46-1-.02-.17-.03-.36-.03-.87v-4.41c0-.54-.02-.84-.06-1.15h1.18c-.06,.37-.07,.63-.07,1.17v1.9Zm4.87-3.62c.47,.53,.7,.86,1.05,1.51l-.62,.34c-.33-.62-.61-1.05-1.05-1.54l.62-.31Zm1.18-.57c.48,.53,.69,.84,1.04,1.47l-.61,.35c-.31-.58-.59-1.01-1.03-1.51l.6-.31Z"/>
        <path class="cls-1" d="M198.13,86.92q-.04,.26-.1,2.24c-.07,1.93-.29,3.02-.83,4.05-.34,.67-.72,1.16-1.4,1.81-.3-.4-.44-.53-.85-.81,.79-.64,1.29-1.35,1.62-2.31,.3-.9,.43-2.17,.43-4.24,0-.42,0-.56-.03-.81l1.15,.06Zm2.6-.12c-.05,.34-.06,.5-.06,1.22l-.06,5.59c.77-.32,1.21-.63,1.67-1.16,.5-.55,.85-1.16,1.08-1.91,.29,.38,.4,.49,.8,.81-.41,.96-.92,1.69-1.55,2.27-.57,.51-1.12,.82-2.16,1.22-.19,.07-.3,.12-.41,.18l-.54-.59c.06-.24,.07-.4,.08-.92l.05-5.49v-.24c0-.52,0-.71-.05-.98h1.16Z"/>
        <path class="cls-1" d="M206.24,86.77c.28,.05,.49,.06,.94,.06h.81c.44,0,.59,0,.95-.05-.06,.61-.08,1.09-.08,1.67v5c0,.51,.02,.85,.08,1.25h-1.3c.06-.38,.08-.75,.08-1.25v-5.66h-.5c-.34,0-.62,.02-.97,.06v-1.09Z"/>
        <path class="cls-1" d="M213.07,94.08c-.29-.29-.5-.62-.63-.98-.26-.71-.39-1.5-.39-2.33,0-1.06,.24-2.17,.59-2.76,.52-.87,1.38-1.34,2.45-1.34,.82,0,1.5,.26,2.01,.78,.29,.29,.51,.62,.63,.98,.26,.71,.39,1.51,.39,2.34,0,1.23-.27,2.32-.72,2.95-.54,.75-1.33,1.14-2.33,1.14-.82,0-1.49-.26-2-.78Zm.83-5.92c-.21,.23-.35,.49-.43,.76-.18,.56-.27,1.21-.27,1.88,0,.89,.19,1.82,.45,2.27,.32,.54,.81,.82,1.44,.82,.47,0,.89-.16,1.16-.44,.21-.22,.37-.5,.46-.82,.18-.58,.27-1.19,.27-1.86,0-.82-.17-1.74-.41-2.21-.31-.6-.8-.91-1.49-.91-.5,0-.88,.16-1.18,.51Z"/>
        <path class="cls-1" d="M220.49,93.37c0,.64,.02,.96,.08,1.34h-1.28c.06-.34,.08-.72,.08-1.33v-5.34c0-.51-.02-.86-.08-1.24,.36,.02,.64,.03,1.21,.03h2.77c.56,0,.88-.02,1.28-.07v1.15c-.35-.05-.68-.07-1.28-.07h-2.78v2.34h2.25c.57,0,.92-.02,1.28-.07v1.15c-.35-.05-.71-.07-1.28-.07h-2.25v2.19Z"/>
        <path class="cls-1" d="M8.08,110.34h-2.32v-9.41h2.32v.93h-1.26v7.55h1.26v.93Z"/>
        <path class="cls-1" d="M13.31,108.56c0,.53,.02,.86,.08,1.25h-1.29c.05-.29,.08-.73,.08-1.25v-5.62h-1.44c-.56,0-.95,.02-1.29,.07v-1.15c.42,.05,.71,.07,1.28,.07h3.96c.69,0,1.03-.02,1.37-.07v1.15c-.35-.05-.7-.07-1.37-.07h-1.38v5.62Z"/>
        <path class="cls-1" d="M22.43,109.88c-.34-.05-.64-.07-1.23-.07h-3.07c-.56,0-.79,0-1.21,.03,.06-.39,.08-.73,.08-1.28v-5.42c0-.48-.02-.8-.08-1.24,.36,.02,.64,.03,1.21,.03h2.97c.49,0,.91-.02,1.23-.07v1.13c-.36-.05-.67-.07-1.23-.07h-2.98v2.29h2.53c.5,0,.84-.02,1.24-.07v1.13c-.37-.05-.64-.07-1.24-.07h-2.54v2.62h3.09c.55,0,.83-.02,1.23-.07v1.14Z"/>
        <path class="cls-1" d="M24.86,109.81c-.52,0-.86,0-1.21,.03,.06-.37,.08-.74,.08-1.27v-5.26c0-.62-.02-1.01-.08-1.38h1.29c-.06,.4-.08,.7-.08,1.37v5.5h2.96c.6,0,.93-.02,1.33-.07v1.15c-.35-.05-.66-.07-1.33-.07h-2.96Z"/>
        <path class="cls-1" d="M32.12,109.42v-7.55h-1.26v-.93h2.32v9.41h-2.32v-.93h1.26Z"/>
        <path class="cls-1" d="M39.28,109.19c-.29-.29-.5-.62-.63-.98-.26-.71-.39-1.5-.39-2.33,0-1.06,.24-2.17,.59-2.76,.52-.87,1.38-1.34,2.45-1.34,.82,0,1.5,.26,2.01,.78,.29,.29,.51,.62,.63,.98,.26,.71,.39,1.51,.39,2.34,0,1.23-.27,2.32-.72,2.95-.54,.75-1.33,1.14-2.33,1.14-.82,0-1.49-.26-2-.78Zm.83-5.92c-.21,.23-.35,.49-.43,.76-.18,.56-.27,1.21-.27,1.88,0,.89,.19,1.82,.45,2.27,.32,.54,.81,.82,1.44,.82,.47,0,.89-.16,1.16-.44,.21-.22,.37-.5,.46-.82,.18-.58,.27-1.19,.27-1.86,0-.82-.17-1.74-.41-2.21-.31-.6-.8-.91-1.49-.91-.5,0-.88,.16-1.18,.51Z"/>
        <path class="cls-1" d="M46.56,107.98c.11,.3,.18,.43,.32,.59,.26,.29,.68,.44,1.22,.44,.69,0,1.17-.28,1.53-.89,.19-.32,.33-.78,.4-1.27,.03-.21,.05-.47,.07-.91-.17,.28-.26,.39-.48,.57-.47,.38-.98,.55-1.68,.55-.83,0-1.5-.24-1.96-.71-.45-.45-.71-1.13-.71-1.89,0-1.63,1.16-2.72,2.92-2.72,1.05,0,1.94,.49,2.43,1.36,.33,.56,.49,1.41,.49,2.51,0,1.57-.34,2.79-.97,3.47-.53,.57-1.19,.84-2.12,.84-.75,0-1.33-.17-1.79-.52-.35-.27-.55-.53-.84-1.12l1.17-.32Zm1.56-1.81c1,0,1.77-.75,1.77-1.73s-.75-1.73-1.77-1.73c-.49,0-.94,.18-1.26,.5s-.47,.73-.47,1.25c0,1.08,.63,1.71,1.73,1.71Z"/>
        <path class="cls-1" d="M53.51,109.81c-.74,0-.89,0-1.23,.05,.07-.62,.14-.95,.28-1.31,.26-.69,.71-1.3,1.35-1.87,.34-.3,.65-.53,1.61-1.18s1.24-1.02,1.24-1.63c0-.69-.57-1.13-1.48-1.13-.62,0-1.09,.21-1.37,.62-.17,.26-.25,.48-.32,.97l-1.2-.16c.13-.72,.31-1.13,.67-1.55,.47-.55,1.23-.85,2.19-.85,1.67,0,2.71,.82,2.71,2.12,0,.77-.29,1.3-1.02,1.85-.31,.23-.45,.33-1.35,.94-1.13,.75-1.63,1.33-1.89,2.11h3c.58,0,1.03-.02,1.37-.07v1.14c-.44-.04-.83-.06-1.41-.06h-3.15Z"/>
        <path class="cls-1" d="M58.98,106.24c.28,.04,.53,.06,.94,.06h1.41c.41,0,.67-.01,.95-.06v1.15c-.31-.05-.53-.06-.95-.06h-1.41c-.4,0-.62,.01-.94,.06v-1.15Z"/>
        <path class="cls-1" d="M68.91,102.87c-.26,.24-.49,.55-.93,1.26-.8,1.29-1.23,2.25-1.59,3.51-.2,.73-.3,1.19-.43,2.17h-1.34c.35-1.86,.62-2.74,1.22-3.97,.5-1.04,.94-1.74,1.78-2.9h-3.18c-.55,0-.84,.02-1.24,.07v-1.15c.43,.05,.74,.07,1.29,.07h3.13c.7,0,.94,0,1.29-.05v.99Z"/>
        <path class="cls-1" d="M71.57,104.83c-.01,.1-.03,.25-.06,.43,.49-.44,1.04-.64,1.76-.64s1.41,.25,1.88,.73,.7,1.07,.7,1.84c0,1.72-1.12,2.79-2.91,2.79-.91,0-1.62-.26-2.14-.8-.28-.29-.42-.52-.63-1.05l1.17-.26c.1,.29,.16,.42,.3,.58,.3,.35,.76,.54,1.32,.54,1.06,0,1.75-.71,1.75-1.77s-.64-1.7-1.71-1.7c-.49,0-.98,.19-1.31,.52-.14,.13-.19,.22-.28,.43l-1.06-.1c.09-.58,.11-.7,.14-1.04l.22-2.42c.03-.24,.04-.46,.04-.62v-.18c0-.05,0-.13,0-.22,.3,.03,.52,.04,1.07,.04h2.32c.64,0,.87,0,1.31-.08v1.12c-.42-.06-.78-.08-1.31-.08h-2.36l-.19,1.93Z"/>
        <path class="cls-1" d="M78.12,107.76c.13,.46,.25,.65,.53,.87,.34,.25,.76,.38,1.26,.38,1.06,0,1.74-.54,1.74-1.4,0-.91-.65-1.4-1.85-1.4-.38,0-.66,0-.98,.05v-1.07c.24,.04,.55,.06,.81,.06,.51,0,.98-.1,1.23-.27,.37-.24,.56-.61,.56-1.07,0-.78-.53-1.19-1.52-1.19-.55,0-.96,.17-1.22,.5-.14,.18-.2,.32-.29,.65l-1.2-.22c.17-.56,.33-.85,.65-1.16,.49-.48,1.22-.74,2.12-.74,1.59,0,2.62,.82,2.62,2.07,0,.61-.26,1.16-.7,1.48-.24,.18-.45,.26-.96,.38,.69,.09,1.08,.26,1.43,.64,.33,.36,.48,.8,.48,1.39,0,.54-.22,1.09-.59,1.45-.52,.51-1.33,.79-2.34,.79-1.11,0-1.9-.29-2.45-.9-.24-.27-.36-.52-.54-1.07l1.2-.25Z"/>
        <path class="cls-1" d="M83.75,106.24c.28,.04,.53,.06,.94,.06h1.41c.41,0,.67-.01,.95-.06v1.15c-.31-.05-.53-.06-.95-.06h-1.41c-.4,0-.62,.01-.94,.06v-1.15Z"/>
        <path class="cls-1" d="M93.68,102.87c-.26,.24-.49,.55-.93,1.26-.8,1.29-1.23,2.25-1.59,3.51-.2,.73-.3,1.19-.43,2.17h-1.34c.35-1.86,.62-2.74,1.22-3.97,.5-1.04,.94-1.74,1.78-2.9h-3.18c-.55,0-.84,.02-1.24,.07v-1.15c.43,.05,.74,.07,1.29,.07h3.13c.7,0,.94,0,1.29-.05v.99Z"/>
        <path class="cls-1" d="M96.11,109.81c-.74,0-.89,0-1.23,.05,.07-.62,.14-.95,.28-1.31,.26-.69,.71-1.3,1.35-1.87,.34-.3,.65-.53,1.61-1.18s1.24-1.02,1.24-1.63c0-.69-.57-1.13-1.48-1.13-.62,0-1.09,.21-1.37,.62-.17,.26-.25,.48-.32,.97l-1.2-.16c.13-.72,.31-1.13,.67-1.55,.47-.55,1.23-.85,2.19-.85,1.67,0,2.71,.82,2.71,2.12,0,.77-.29,1.3-1.02,1.85-.31,.23-.45,.33-1.35,.94-1.13,.75-1.63,1.33-1.89,2.11h3c.58,0,1.03-.02,1.37-.07v1.14c-.44-.04-.83-.06-1.41-.06h-3.15Z"/>
        <path class="cls-1" d="M101.52,106.9q.24-.26,.75-.87l2.45-3.02c.4-.49,.56-.72,.8-1.08h1.13c-.06,.58-.07,.93-.07,1.7v3.3h.37c.41,0,.65-.02,1.03-.07v1.11c-.38-.05-.61-.07-1.03-.07h-.37v.78c0,.5,.02,.76,.08,1.13h-1.23c.07-.34,.09-.66,.09-1.14v-.76h-2.75c-.58,0-.88,0-1.24,.04v-1.05Zm3.99-2.21c0-.5,0-.83,.05-1.27-.2,.29-.35,.48-.69,.93l-2.09,2.61h2.74v-2.27Z"/>
        <path class="cls-1" d="M110.24,104.83c-.01,.1-.03,.25-.06,.43,.49-.44,1.04-.64,1.76-.64s1.41,.25,1.88,.73,.7,1.07,.7,1.84c0,1.72-1.12,2.79-2.91,2.79-.91,0-1.62-.26-2.14-.8-.28-.29-.42-.52-.63-1.05l1.17-.26c.1,.29,.16,.42,.3,.58,.3,.35,.76,.54,1.32,.54,1.06,0,1.75-.71,1.75-1.77s-.64-1.7-1.71-1.7c-.49,0-.98,.19-1.31,.52-.14,.13-.19,.22-.28,.43l-1.06-.1c.09-.58,.11-.7,.14-1.04l.22-2.42c.03-.24,.04-.46,.04-.62v-.18c0-.05,0-.13,0-.22,.3,.03,.52,.04,1.07,.04h2.32c.64,0,.87,0,1.31-.08v1.12c-.42-.06-.78-.08-1.31-.08h-2.36l-.19,1.93Z"/>
        <path class="cls-1" d="M8.08,125.45h-2.32v-9.41h2.32v.93h-1.26v7.55h1.26v.93Z"/>
        <path class="cls-1" d="M13.89,124.92c-.05-.3-.19-.75-.41-1.24l-1.7-3.93c-.15-.35-.24-.59-.47-1.36,.04,.48,.08,1.2,.08,1.45v3.72c0,.62,.02,.99,.08,1.36h-1.21c.06-.4,.08-.74,.08-1.36v-5.15c0-.58-.02-.98-.08-1.37h1.57c.06,.33,.19,.74,.35,1.12l2.23,5.23,2.21-5.23c.19-.45,.28-.77,.35-1.12h1.57c-.06,.43-.08,.76-.08,1.37v5.15c0,.67,.02,1,.08,1.36h-1.21c.05-.33,.08-.8,.08-1.36v-3.77c.03-.7,.06-1.17,.08-1.4-.12,.46-.28,.97-.42,1.29l-1.76,4.01c-.21,.48-.31,.78-.42,1.23h-1Z"/>
        <path class="cls-1" d="M25.66,124.92c-.07-.34-.18-.76-.29-1.05l-.45-1.18h-3.34l-.45,1.18c-.17,.43-.23,.67-.3,1.05h-1.41c.17-.3,.32-.63,.53-1.18l2.24-5.71c.19-.49,.27-.74,.32-.99h1.45c.05,.22,.1,.37,.34,.99l2.25,5.71c.25,.62,.38,.93,.52,1.18h-1.4Zm-2.23-6.31q-.04-.1-.2-.6-.17,.52-.2,.6l-1.15,3.12h2.71l-1.16-3.12Z"/>
        <path class="cls-1" d="M29.21,117.04c-.06,.37-.08,.7-.08,1.23v5.42c0,.53,.02,.88,.08,1.23h-1.29c.06-.38,.08-.69,.08-1.23v-5.42c0-.56-.02-.85-.08-1.23h1.29Z"/>
        <path class="cls-1" d="M31.9,124.92c-.52,0-.86,0-1.21,.03,.06-.37,.08-.73,.08-1.27v-5.26c0-.62-.02-1.01-.08-1.38h1.29c-.06,.4-.08,.7-.08,1.37v5.5h2.96c.6,0,.93-.02,1.33-.07v1.15c-.35-.05-.66-.07-1.33-.07h-2.96Z"/>
        <path class="cls-1" d="M38.76,124.52v-7.55h-1.26v-.93h2.32v9.41h-2.32v-.93h1.26Z"/>
        <path class="cls-1" d="M48.87,124.28c-.36,.3-.53,.41-.85,.53-.35,.13-.75,.2-1.15,.2-1.19,0-1.9-.61-1.9-1.63,0-.75,.47-1.37,1.27-1.66,.63-.23,1.23-.3,2.63-.34v-.43c0-.36-.08-.59-.25-.73-.21-.17-.53-.26-.96-.26-.83,0-1.26,.27-1.48,.94l-1.11-.21c.2-.52,.37-.79,.71-1.04,.46-.36,1.08-.53,1.89-.53s1.4,.17,1.79,.55c.31,.3,.44,.67,.44,1.3v2.76c0,.49,.02,.77,.08,1.2h-1.12v-.63Zm0-2.12c-1.08,.03-1.62,.1-2.08,.27-.5,.19-.75,.5-.75,.95,0,.49,.37,.8,.99,.8,.51,0,1.1-.23,1.47-.59,.24-.24,.36-.51,.36-.86v-.56Z"/>
        <path class="cls-1" d="M55.2,121.1c-.26-.75-.72-1.1-1.4-1.1-1.03,0-1.68,.81-1.68,2.08s.66,2.07,1.71,2.07c.52,0,.98-.22,1.22-.58,.08-.13,.13-.24,.2-.49l1.07,.22c-.15,.41-.24,.6-.42,.83-.46,.62-1.19,.95-2.07,.95-1.7,0-2.8-1.16-2.8-2.96s1.1-3.01,2.76-3.01c1.21,0,2.05,.59,2.47,1.72l-1.05,.27Z"/>
        <path class="cls-1" d="M58.19,122.35c.04,.6,.14,.92,.39,1.24,.3,.39,.76,.6,1.32,.6,.52,0,.95-.17,1.26-.52,.13-.16,.2-.27,.3-.55l1,.34c-.19,.42-.33,.63-.58,.89-.5,.49-1.18,.75-1.98,.75-1.69,0-2.77-1.16-2.77-2.98s1.07-2.99,2.7-2.99c1.42,0,2.41,.89,2.62,2.36q.02,.13,.07,.88h-4.32Zm3.22-.86c-.06-.49-.2-.81-.48-1.08-.28-.28-.64-.42-1.12-.42-.57,0-1.04,.27-1.34,.78-.14,.23-.19,.39-.25,.72h3.19Z"/>
        <path class="cls-1" d="M69.95,118.62c-.09,.24-.17,.48-.28,.94l-.71,2.65c-.03,.11-.04,.2-.04,.29,0,.16,.11,.25,.29,.25,.2,0,.53-.13,.79-.32,.6-.44,.96-1.21,.96-2.07,0-1.63-1.22-2.74-3.02-2.74-2.1,0-3.67,1.48-3.67,3.47s1.4,3.24,3.43,3.24c.55,0,1.16-.1,1.65-.28,.34-.12,.54-.23,.93-.51l.47,.66c-.53,.32-.8,.45-1.25,.59-.58,.18-1.22,.28-1.83,.28-2.53,0-4.23-1.61-4.23-4.01,0-1.14,.39-2.12,1.16-2.9,.85-.84,1.97-1.28,3.3-1.28,2.3,0,3.83,1.37,3.83,3.41,0,.93-.31,1.75-.91,2.34-.49,.5-1.16,.81-1.76,.81-.47,0-.79-.27-.79-.67,0-.03,0-.05,0-.1-.21,.26-.32,.37-.5,.47-.24,.14-.54,.22-.85,.22-.91,0-1.46-.66-1.46-1.74,0-1.75,1.11-3.18,2.48-3.18,.56,0,.93,.23,1.05,.65l.13-.47h.83Zm-3.14,1.27c-.29,.48-.5,1.19-.5,1.72,0,.68,.23,1.03,.68,1.03,.4,0,.85-.31,1.14-.8,.3-.5,.51-1.29,.51-1.91,0-.52-.22-.8-.65-.8-.47,0-.87,.26-1.18,.76Z"/>
        <path class="cls-1" d="M72.9,124.92c.06-.41,.08-.71,.08-1.24v-5.39c0-.56-.02-.86-.07-1.25h1.21c-.05,.38-.07,.68-.07,1.25v1.46q0,.15-.03,.48c.53-.74,1.18-1.06,2.08-1.06,1.24,0,1.96,.73,1.96,1.96v2.54c0,.51,.02,.88,.07,1.24h-1.24c.06-.35,.08-.72,.08-1.24v-2.3c0-.43-.08-.75-.26-.94-.18-.21-.47-.33-.82-.33-.79,0-1.46,.56-1.85,1.57v1.99c0,.46,.02,.83,.07,1.24h-1.22Z"/>
        <path class="cls-1" d="M80.27,122.35c.04,.6,.14,.92,.39,1.24,.3,.39,.76,.6,1.32,.6,.52,0,.95-.17,1.26-.52,.13-.16,.2-.27,.3-.55l1,.34c-.19,.42-.33,.63-.58,.89-.5,.49-1.18,.75-1.98,.75-1.69,0-2.77-1.16-2.77-2.98s1.07-2.99,2.7-2.99c1.42,0,2.41,.89,2.62,2.36q.02,.13,.07,.88h-4.32Zm3.22-.86c-.06-.49-.2-.81-.48-1.08-.28-.28-.64-.42-1.12-.42-.57,0-1.04,.27-1.34,.78-.14,.23-.19,.39-.25,.72h3.19Z"/>
        <path class="cls-1" d="M89.41,124.28c-.36,.3-.53,.41-.85,.53-.35,.13-.75,.2-1.15,.2-1.19,0-1.9-.61-1.9-1.63,0-.75,.47-1.37,1.27-1.66,.63-.23,1.23-.3,2.63-.34v-.43c0-.36-.08-.59-.25-.73-.21-.17-.53-.26-.96-.26-.83,0-1.26,.27-1.48,.94l-1.11-.21c.2-.52,.37-.79,.71-1.04,.46-.36,1.08-.53,1.89-.53s1.4,.17,1.79,.55c.31,.3,.44,.67,.44,1.3v2.76c0,.49,.02,.77,.08,1.2h-1.12v-.63Zm0-2.12c-1.08,.03-1.62,.1-2.08,.27-.5,.19-.75,.5-.75,.95,0,.49,.37,.8,.99,.8,.51,0,1.1-.23,1.47-.59,.24-.24,.36-.51,.36-.86v-.56Z"/>
        <path class="cls-1" d="M95.43,120.35c-.36-.11-.56-.15-.86-.15-.52,0-.92,.17-1.21,.53-.24,.3-.34,.54-.39,1.02v1.93c0,.5,.02,.8,.07,1.24h-1.23c.05-.49,.07-.77,.07-1.24v-3.16c0-.56-.02-.85-.07-1.24h1.16v.45c0,.08-.01,.28-.02,.36,.42-.65,.96-.92,1.84-.92,.31,0,.53,.02,.93,.1l-.29,1.07Z"/>
        <path class="cls-1" d="M98.37,117.75c-.05,.34-.07,.75-.07,1.19v.34h.45c.47,0,.68-.01,1.03-.06v1.02c-.32-.05-.55-.06-1.01-.06h-.47v3.25c0,.5,.15,.67,.62,.67,.27,0,.48-.06,.79-.23l.21,.95c-.42,.17-.76,.23-1.22,.23-.51,0-.9-.11-1.13-.32-.25-.22-.35-.54-.35-1.08v-3.46h-.39c-.35,0-.57,.02-.9,.06v-1.02c.28,.05,.49,.06,.91,.06h.38v-.34c0-.41-.03-.84-.07-1.19h1.22Z"/>
        <path class="cls-1" d="M100.35,121.34c.28,.04,.53,.06,.94,.06h1.41c.41,0,.67,0,.95-.06v1.15c-.31-.05-.53-.06-.95-.06h-1.41c-.4,0-.62,.01-.94,.06v-1.15Z"/>
        <path class="cls-1" d="M105.01,120.16c-.35,0-.62,.02-.94,.06v-1.01c.27,.04,.56,.06,.94,.06h.41v-.56c0-.61,.12-1.01,.41-1.32,.27-.29,.8-.46,1.42-.46,.42,0,.77,.06,1.18,.2l-.25,.9c-.3-.15-.54-.21-.88-.21-.3,0-.52,.08-.66,.23-.11,.14-.15,.34-.15,.76v.47h.49c.4,0,.71-.02,1.11-.06v1.01c-.35-.04-.61-.06-1.11-.06h-.49v3.51c0,.53,.02,.89,.07,1.24h-1.22c.05-.35,.07-.76,.07-1.25v-3.5h-.41Z"/>
        <path class="cls-1" d="M114.42,119.28c-.06,.42-.08,.7-.08,1.24v3.15c0,.52,.02,.85,.08,1.25h-1.15v-.48c0-.07,.01-.21,.02-.42-.51,.7-1.15,1.01-2.02,1.01-.77,0-1.35-.26-1.69-.76-.22-.31-.32-.71-.32-1.3v-2.46c0-.53-.02-.88-.07-1.23h1.23c-.05,.43-.07,.75-.07,1.24v2.29c0,.89,.34,1.31,1.08,1.31,.5,0,.9-.2,1.29-.63,.26-.3,.41-.55,.56-.97v-1.99c0-.46-.02-.83-.07-1.24h1.22Z"/>
        <path class="cls-1" d="M116.98,117.04c-.05,.38-.07,.68-.07,1.25v5.39c0,.51,.02,.8,.07,1.24h-1.23c.05-.41,.07-.71,.07-1.24v-5.4c0-.55-.02-.88-.07-1.24h1.23Z"/>
        <path class="cls-1" d="M119.54,117.04c-.05,.38-.07,.68-.07,1.25v5.39c0,.51,.02,.8,.07,1.24h-1.23c.05-.41,.07-.71,.07-1.24v-5.4c0-.55-.02-.88-.07-1.24h1.23Z"/>
        <path class="cls-1" d="M122.16,123.64v1.28h-1.28v-1.28h1.28Z"/>
        <path class="cls-1" d="M123.24,122.1c0-1.82,1.12-2.98,2.87-2.98s2.86,1.16,2.86,2.97-1.13,2.99-2.85,2.99-2.88-1.16-2.88-2.98Zm1.09-.02c0,1.31,.67,2.11,1.78,2.11s1.77-.79,1.77-2.08-.67-2.11-1.76-2.11-1.79,.79-1.79,2.08Z"/>
        <path class="cls-1" d="M133.66,120.35c-.36-.11-.56-.15-.86-.15-.52,0-.92,.17-1.21,.53-.24,.3-.34,.54-.39,1.02v1.93c0,.5,.02,.8,.07,1.24h-1.23c.05-.49,.07-.77,.07-1.24v-3.16c0-.56-.02-.85-.07-1.24h1.16v.45c0,.08-.01,.28-.02,.36,.42-.65,.96-.92,1.84-.92,.31,0,.53,.02,.93,.1l-.29,1.07Z"/>
        <path class="cls-1" d="M135.54,125.29c.41,.54,.91,.78,1.59,.78,.81,0,1.41-.32,1.69-.88,.13-.28,.2-.7,.21-1.25-.16,.24-.27,.35-.44,.47-.41,.28-.93,.43-1.47,.43-1.62,0-2.64-1.09-2.64-2.82s1.03-2.84,2.64-2.84c.85,0,1.48,.27,1.92,.84,0-.04,0-.07,0-.09,0-.08,0-.11,0-.21v-.44h1.1c-.05,.4-.07,.69-.07,1.21v3.45c0,1.17-.2,1.81-.71,2.31-.44,.43-1.28,.69-2.18,.69-1.14,0-1.83-.28-2.53-1.03l.9-.62Zm1.65-1.32c1.06,0,1.78-.83,1.78-2s-.69-1.9-1.72-1.9-1.66,.75-1.66,1.97,.61,1.93,1.6,1.93Z"/>
      </g>
      <g>
        <g>
          <path class="cls-1" d="M10.03,44.69L24.48,9.48h1.31l15.28,35.22h4.17v.68H28.95v-.68h4.51l-5.63-13h-11.64l-5.38,13h4.32v.68H5.95v-.68h4.07Zm6.4-13.68h11.16l-5.72-13.24-5.43,13.24Z"/>
          <path class="cls-1" d="M75.22,20.73c-.36-1.07-.78-2.19-1.29-3.37-.5-1.18-1.15-2.26-1.94-3.25-.79-.99-1.78-1.79-2.96-2.43-1.18-.63-2.64-.95-4.39-.95-2.36,0-4.22,.44-5.58,1.31-1.36,.87-2.39,2.09-3.08,3.64-.7,1.55-1.14,3.4-1.33,5.55-.19,2.15-.29,4.5-.29,7.06,0,3.36,.19,6.14,.58,8.34,.39,2.2,.99,3.95,1.82,5.24,.82,1.29,1.89,2.2,3.2,2.72,1.31,.52,2.87,.78,4.68,.78,1.46,0,2.77-.29,3.95-.87,1.18-.58,2.22-1.35,3.13-2.3,.91-.95,1.67-2.04,2.28-3.27,.61-1.23,1.07-2.51,1.36-3.83h.78v10.28h-.78c-.16-.39-.36-.65-.58-.8-.23-.15-.57-.22-1.02-.22-.39,0-.89,.09-1.5,.27-.61,.18-1.32,.37-2.11,.58-.79,.21-1.66,.4-2.6,.58-.94,.18-1.92,.27-2.96,.27-2.36,0-4.64-.46-6.84-1.38-2.2-.92-4.13-2.18-5.8-3.78-1.67-1.6-3-3.48-4-5.65-1-2.17-1.5-4.51-1.5-7.03,0-2.75,.56-5.24,1.67-7.47,1.12-2.23,2.55-4.14,4.29-5.72,1.75-1.58,3.69-2.81,5.85-3.66,2.15-.86,4.26-1.29,6.33-1.29,1.03,0,2,.1,2.89,.29,.89,.19,1.71,.4,2.47,.61,.76,.21,1.45,.41,2.06,.61,.61,.19,1.13,.29,1.55,.29,.45,0,.79-.06,1.02-.17,.23-.11,.39-.4,.49-.85h.78v9.9h-.63Z"/>
          <path class="cls-1" d="M109.81,10.84v8.29h-.63c-.16-.55-.44-1.25-.82-2.11-.39-.86-.93-1.69-1.63-2.5-.7-.81-1.59-1.51-2.69-2.11-1.1-.6-2.44-.9-4.03-.9h-7.71v14.99h2.72c1.2,0,2.21-.17,3.03-.51,.82-.34,1.51-.82,2.06-1.46,.55-.63,1-1.39,1.36-2.28,.36-.89,.65-1.88,.87-2.98h.63v15.09h-.63c-.23-.94-.49-1.84-.8-2.72-.31-.87-.72-1.64-1.24-2.3-.52-.66-1.16-1.19-1.92-1.58-.76-.39-1.71-.58-2.84-.58h-3.25v17.51h7.96c1.49,0,2.83-.25,4.03-.75,1.2-.5,2.26-1.2,3.18-2.11,.92-.9,1.69-1.96,2.3-3.18,.61-1.21,1.08-2.51,1.41-3.9h.63v10.62h-31v-.68h4.46V11.51h-4.46v-.68h29.01Z"/>
        </g>
        <g>
          <path class="cls-1" d="M124.45,17.82c-.2,0-.3-.07-.34-.2l-.54-1.35h-2.18c-.13,0-.26-.11-.26-.32,0-.19,.14-.32,.26-.32h1.92l-1.36-3.44s-.05-.07-.07-.07-.04,.02-.06,.07l-2.16,5.44c-.04,.12-.14,.18-.33,.18-.23,0-.33-.11-.33-.26,0-.03,0-.07,.02-.11l2.18-5.54c.08-.2,.26-.37,.52-.37h.32c.24,0,.45,.17,.52,.36l2.2,5.55s.02,.06,.02,.09c0,.14-.14,.26-.33,.26Z"/>
          <path class="cls-1" d="M131.13,17.82c-.2,0-.34-.07-.34-.2v-.43c-.34,.35-.83,.55-1.43,.55h-.35c-1.22,0-1.98-.68-1.98-1.85v-.94c0-1.23,.76-1.87,1.98-1.87h.79c.13,0,.26,.14,.26,.33s-.14,.33-.26,.33h-.73c-.79,0-1.38,.43-1.38,1.27v.82c0,.82,.55,1.26,1.38,1.26h.3c.74,0,1.33-.36,1.41-1.1v-4.19c0-.13,.14-.28,.34-.28s.33,.15,.33,.28v5.75c0,.14-.14,.28-.33,.28Z"/>
          <path class="cls-1" d="M138.34,13.4l-1.61,4c-.08,.18-.24,.36-.45,.36h-.22c-.23,0-.36-.16-.45-.35l-1.68-4.03s-.03-.08-.03-.13c0-.17,.16-.27,.36-.27,.16,0,.24,.05,.29,.17l1.53,3.75c.02,.06,.05,.09,.08,.09,.03,0,.05-.04,.08-.1l1.49-3.75c.04-.1,.14-.15,.29-.15,.25,0,.35,.11,.35,.26,0,.04,0,.1-.03,.15Z"/>
          <path class="cls-1" d="M145.29,17.7h-.14c-.33,0-.61-.18-.75-.51-.23,.27-.67,.54-1.47,.54h-.66c-1.29,0-1.69-.6-1.69-1.35v-.19c0-.79,.6-1.36,1.8-1.36h.98c.11,0,.23,.11,.23,.26s-.12,.28-.23,.28h-1.01c-.79,0-1.11,.35-1.11,.82v.14c0,.42,.25,.79,1.12,.79h.51c.8,0,1.26-.23,1.43-.72v-1.93c0-.54-.35-.79-1.3-.79h-1.16c-.12,0-.26-.12-.26-.3s.14-.31,.26-.31h1.16c1.33,0,1.96,.45,1.96,1.4v2.09c0,.28,.11,.48,.33,.48h.07c.13,.02,.23,.11,.23,.33,0,.21-.14,.32-.28,.32Z"/>
          <path class="cls-1" d="M151.98,17.82c-.21,0-.33-.14-.33-.27v-2.68c0-.8-.48-1.13-1.2-1.13h-.35c-1,0-1.39,.62-1.39,.98v2.83c0,.14-.13,.27-.33,.27s-.33-.14-.33-.27v-4.28c0-.13,.13-.27,.33-.27s.33,.12,.33,.25v.39c.34-.32,.85-.55,1.48-.55h.32c1.15,0,1.8,.61,1.8,1.68v2.79c0,.14-.13,.27-.33,.27Z"/>
          <path class="cls-1" d="M157.38,17.73h-.57c-1.28,0-2.02-.57-2.02-1.87v-.93c0-1.24,.79-1.87,2.02-1.87h.88c.13,0,.27,.13,.27,.33s-.14,.33-.27,.33h-.85c-.88,0-1.39,.45-1.39,1.25v.84c0,.83,.47,1.27,1.39,1.27h.54c1.66,0,.87-1.14,1.61-1.14,.2,0,.32,.14,.32,.26v.02c-.11,1.05-.6,1.5-1.92,1.5Z"/>
          <path class="cls-1" d="M165.75,15.65h-2.38c-.11,0-.2-.1-.2-.26s.09-.26,.2-.26h2.08c.11,0,.17-.08,.17-.17v-.04c0-.9-.51-1.22-1.4-1.22h-.48c-.85,0-1.44,.35-1.44,1.27v.89c0,.94,.56,1.26,1.44,1.26h.96c.13,0,.26,.12,.26,.3s-.13,.31-.26,.31h-.98c-1.44,0-2.06-.75-2.06-1.9v-.89c0-1.21,.82-1.87,2.06-1.87h.5c1.35,0,2.07,.6,2.07,1.92v.11c0,.3-.25,.54-.55,.54Z"/>
          <path class="cls-1" d="M122.17,30.95h-.47c-1.8,0-2.54-.82-2.54-2.51v-1.13c0-1.75,.8-2.51,2.54-2.51h1.18c.12,0,.26,.13,.26,.33s-.14,.33-.26,.33h-1.18c-1.31,0-1.88,.57-1.88,1.85v1.13c0,1.34,.63,1.87,1.88,1.87h.47c1.29,0,1.64-.54,1.69-1.45,0-.14,.11-.27,.34-.27,.2,0,.32,.14,.32,.26h0c0,1.15-.43,2.11-2.36,2.11Z"/>
          <path class="cls-1" d="M130,31.03c-.2,0-.33-.14-.33-.27v-2.61c0-.82-.51-1.2-1.26-1.2h-.35c-.9,0-1.28,.57-1.28,1.08v2.73c0,.14-.13,.27-.33,.27s-.33-.14-.33-.27v-5.79c0-.14,.13-.27,.33-.27s.33,.14,.33,.27v1.9c.3-.35,.76-.57,1.34-.57h.34c1.22,0,1.87,.63,1.87,1.82v2.65c0,.13-.14,.27-.33,.27Z"/>
          <path class="cls-1" d="M136.49,30.92h-.14c-.33,0-.61-.18-.75-.51-.23,.27-.67,.54-1.47,.54h-.66c-1.29,0-1.69-.6-1.69-1.35v-.19c0-.79,.6-1.36,1.8-1.36h.98c.11,0,.23,.11,.23,.26s-.12,.28-.23,.28h-1.01c-.79,0-1.11,.36-1.11,.82v.14c0,.42,.25,.79,1.12,.79h.51c.8,0,1.26-.23,1.43-.72v-1.93c0-.54-.35-.79-1.3-.79h-1.16c-.12,0-.26-.12-.26-.3s.14-.31,.26-.31h1.16c1.33,0,1.96,.45,1.96,1.4v2.09c0,.28,.11,.48,.33,.48h.07c.13,.02,.23,.11,.23,.33,0,.21-.14,.32-.28,.32Z"/>
          <path class="cls-1" d="M138.7,31.03c-.2,0-.33-.14-.33-.26v-5.8c0-.13,.13-.26,.33-.26s.33,.14,.33,.26v5.8c0,.13-.13,.26-.33,.26Z"/>
          <path class="cls-1" d="M141.28,31.03c-.2,0-.33-.14-.33-.26v-5.8c0-.13,.13-.26,.33-.26s.33,.14,.33,.26v5.8c0,.13-.13,.26-.33,.26Z"/>
          <path class="cls-1" d="M147.37,28.86h-2.38c-.11,0-.2-.1-.2-.26s.09-.26,.2-.26h2.08c.11,0,.17-.08,.17-.17v-.04c0-.9-.51-1.22-1.4-1.22h-.48c-.85,0-1.44,.35-1.44,1.27v.89c0,.94,.56,1.26,1.44,1.26h.96c.13,0,.26,.12,.26,.3s-.13,.31-.26,.31h-.98c-1.44,0-2.06-.75-2.06-1.9v-.89c0-1.21,.82-1.87,2.06-1.87h.5c1.35,0,2.07,.6,2.07,1.92v.11c0,.3-.25,.54-.55,.54Z"/>
          <path class="cls-1" d="M153.4,31.03c-.21,0-.33-.14-.33-.27v-2.68c0-.8-.48-1.13-1.2-1.13h-.35c-1,0-1.39,.62-1.39,.98v2.83c0,.14-.13,.27-.33,.27s-.33-.14-.33-.27v-4.28c0-.13,.13-.27,.33-.27s.33,.12,.33,.25v.39c.34-.32,.85-.55,1.48-.55h.32c1.15,0,1.8,.61,1.8,1.68v2.79c0,.14-.13,.27-.33,.27Z"/>
          <path class="cls-1" d="M159.97,26.3l-.53,.2c.27,.14,.39,.38,.39,.77v.17c0,.58-.29,.92-1.65,.92h-1.05c-.15,0-.29,0-.42-.01-.56,.13-.67,.29-.67,.41,0,.2,.06,.35,.9,.35h1.29c1.31,0,1.83,.17,1.83,1.01v.12c0,.68-.3,1.06-1.83,1.06h-1.16c-1.43,0-1.84-.32-1.84-1.01v-.05c0-.14,.15-.24,.39-.24,.19,0,.32,.13,.33,.22v.09c0,.38,.36,.52,1.08,.52h1.22c.76,0,1.1-.17,1.1-.55v-.2c0-.44-.35-.51-1.15-.51h-1.63c-.9,0-1.16-.34-1.16-.75,0-.17,.03-.47,.57-.64-.35-.15-.52-.4-.52-.74v-.17c0-.63,.35-.95,1.51-.95h1.34c.08,0,.17,0,.24,0l1.17-.45c.05-.02,.1-.03,.15-.03,.13,0,.23,.08,.23,.21,0,.14-.07,.2-.16,.24Zm-.82,.97c0-.4-.26-.49-.85-.49h-1.29c-.66,0-.85,.21-.85,.49v.17c0,.29,.26,.45,.98,.45h1.02c.71,0,.98-.18,.98-.45v-.17Z"/>
          <path class="cls-1" d="M165.75,28.86h-2.38c-.11,0-.2-.1-.2-.26s.09-.26,.2-.26h2.08c.11,0,.17-.08,.17-.17v-.04c0-.9-.51-1.22-1.4-1.22h-.48c-.85,0-1.44,.35-1.44,1.27v.89c0,.94,.56,1.26,1.44,1.26h.96c.13,0,.26,.12,.26,.3s-.13,.31-.26,.31h-.98c-1.44,0-2.06-.75-2.06-1.9v-.89c0-1.21,.82-1.87,2.06-1.87h.5c1.35,0,2.07,.6,2.07,1.92v.11c0,.3-.25,.54-.55,.54Z"/>
          <path class="cls-1" d="M123.89,44.17h-4.03c-.3,0-.54-.23-.54-.54v-5.07c0-.31,.23-.55,.54-.55h3.1c.14,0,.28,.14,.28,.32,0,.2-.14,.33-.28,.33h-2.8c-.11,0-.18,.08-.18,.17v1.81h2.7c.13,0,.26,.12,.26,.32s-.14,.33-.26,.33h-2.7v2.05c0,.11,.08,.18,.18,.18h3.73c.12,0,.26,.12,.26,.33,0,.19-.14,.31-.26,.31Z"/>
          <path class="cls-1" d="M128.95,44.25c-.21,0-.33-.14-.33-.27v-2.68c0-.8-.48-1.13-1.2-1.13h-.35c-1,0-1.39,.62-1.39,.98v2.83c0,.14-.13,.27-.33,.27s-.33-.14-.33-.27v-4.28c0-.13,.13-.27,.33-.27s.33,.12,.33,.25v.39c.34-.32,.85-.55,1.48-.55h.32c1.15,0,1.8,.61,1.8,1.68v2.79c0,.14-.13,.27-.33,.27Z"/>
          <path class="cls-1" d="M132.77,44.17h-.57c-1.28,0-2.02-.57-2.02-1.87v-.93c0-1.24,.79-1.87,2.02-1.87h.88c.13,0,.27,.13,.27,.33s-.14,.33-.27,.33h-.85c-.88,0-1.39,.45-1.39,1.25v.84c0,.83,.47,1.27,1.39,1.27h.54c1.66,0,.87-1.14,1.61-1.14,.2,0,.32,.14,.32,.26v.02c-.11,1.05-.6,1.5-1.92,1.5Z"/>
          <path class="cls-1" d="M137.88,44.18h-.44c-1.3,0-1.98-.6-1.98-1.8v-1.05c0-1.16,.7-1.81,1.98-1.81h.44c1.17,0,1.96,.6,1.96,1.81v1.05c0,1.19-.73,1.8-1.96,1.8Zm1.29-2.79c0-.82-.48-1.22-1.36-1.22h-.3c-.94,0-1.38,.42-1.38,1.22v.93c0,.83,.49,1.21,1.38,1.21h.3c.88,0,1.36-.37,1.36-1.21v-.93Z"/>
          <path class="cls-1" d="M144.63,44.25c-.2,0-.33-.07-.33-.2v-.42c-.33,.33-.82,.54-1.44,.54h-.26c-1.32,0-1.89-.62-1.89-1.76v-2.71c0-.14,.13-.27,.33-.27s.33,.14,.33,.27v2.67c0,.79,.42,1.16,1.31,1.16h.22c.94,0,1.4-.47,1.4-1.24v-2.59c0-.13,.13-.27,.33-.27s.33,.14,.33,.27v4.28c0,.14-.13,.27-.33,.27Z"/>
          <path class="cls-1" d="M149.28,40.17h-1.02c-1.05,0-1.5,.68-1.5,1.09v2.71c0,.14-.13,.27-.34,.27-.2,0-.32-.14-.32-.27v-4.28c0-.13,.12-.27,.32-.27,.21,0,.34,.11,.34,.24v.41c.32-.32,.81-.57,1.5-.57h1.02c.12,0,.27,.14,.27,.33,0,.2-.15,.34-.27,.34Z"/>
          <path class="cls-1" d="M154.87,44.14h-.14c-.33,0-.61-.18-.75-.51-.23,.27-.67,.54-1.47,.54h-.66c-1.29,0-1.69-.6-1.69-1.35v-.19c0-.79,.6-1.36,1.8-1.36h.98c.11,0,.23,.11,.23,.26s-.12,.28-.23,.28h-1.01c-.79,0-1.11,.36-1.11,.82v.14c0,.42,.25,.79,1.12,.79h.51c.8,0,1.26-.23,1.43-.72v-1.93c0-.54-.35-.79-1.3-.79h-1.16c-.12,0-.26-.12-.26-.3s.14-.31,.26-.31h1.16c1.33,0,1.96,.45,1.96,1.4v2.09c0,.28,.11,.48,.33,.48h.07c.13,.02,.23,.11,.23,.33,0,.21-.14,.32-.28,.32Z"/>
          <path class="cls-1" d="M160.6,39.52l-.53,.2c.27,.14,.39,.38,.39,.77v.17c0,.58-.29,.92-1.65,.92h-1.05c-.15,0-.29,0-.42-.01-.56,.13-.67,.29-.67,.41,0,.2,.06,.35,.9,.35h1.29c1.31,0,1.83,.17,1.83,1.01v.12c0,.68-.3,1.06-1.83,1.06h-1.16c-1.43,0-1.84-.32-1.84-1.01v-.05c0-.14,.15-.24,.39-.24,.19,0,.32,.13,.33,.22v.09c0,.38,.36,.52,1.08,.52h1.22c.75,0,1.1-.17,1.1-.55v-.2c0-.44-.35-.51-1.15-.51h-1.63c-.9,0-1.16-.34-1.16-.75,0-.17,.03-.47,.57-.64-.35-.15-.52-.4-.52-.74v-.17c0-.63,.35-.95,1.51-.95h1.34c.08,0,.17,0,.24,0l1.17-.45c.05-.02,.1-.03,.15-.03,.13,0,.23,.08,.23,.21,0,.14-.07,.2-.16,.24Zm-.82,.97c0-.4-.26-.49-.85-.49h-1.29c-.66,0-.85,.21-.85,.49v.17c0,.29,.26,.45,.98,.45h1.02c.71,0,.98-.18,.98-.45v-.17Z"/>
          <path class="cls-1" d="M165.75,42.08h-2.38c-.11,0-.2-.1-.2-.26s.09-.26,.2-.26h2.08c.11,0,.17-.08,.17-.17v-.04c0-.9-.51-1.22-1.4-1.22h-.48c-.85,0-1.44,.35-1.44,1.27v.89c0,.94,.56,1.26,1.44,1.26h.96c.13,0,.26,.12,.26,.3s-.13,.31-.26,.31h-.98c-1.44,0-2.06-.75-2.06-1.9v-.89c0-1.21,.82-1.87,2.06-1.87h.5c1.35,0,2.07,.6,2.07,1.92v.11c0,.3-.25,.54-.55,.54Z"/>
        </g>
      </g>
    </g>
  </g>
</svg>