<?xml version="1.0" encoding="UTF-8"?><svg id="_レイヤー_2" xmlns="http://www.w3.org/2000/svg" viewBox="0 0 192.43 58.93"><defs><style>.cls-1{fill:#0000ff;}</style></defs><g id="_レイヤー1"><g><g><path class="cls-1" d="M6.23,41.96L23.45,0h1.56l18.21,41.96h4.97v.81H28.77v-.81h5.38l-6.7-15.49H13.57l-6.42,15.49h5.14v.81H1.37v-.81H6.23Zm7.63-16.3h13.29l-6.82-15.78-6.47,15.78Z"/><path class="cls-1" d="M83.91,13.41c-.42-1.27-.93-2.61-1.53-4.02-.6-1.41-1.37-2.7-2.31-3.87-.94-1.17-2.12-2.14-3.53-2.89-1.41-.75-3.15-1.13-5.23-1.13-2.81,0-5.03,.52-6.65,1.56-1.62,1.04-2.84,2.49-3.67,4.33-.83,1.85-1.36,4.06-1.59,6.62-.23,2.56-.35,5.37-.35,8.41,0,4.01,.23,7.32,.69,9.94,.46,2.62,1.19,4.7,2.17,6.24,.98,1.54,2.25,2.62,3.81,3.24,1.56,.62,3.42,.92,5.58,.92,1.73,0,3.3-.35,4.71-1.04,1.41-.69,2.65-1.61,3.73-2.75,1.08-1.14,1.98-2.44,2.72-3.9,.73-1.46,1.27-2.99,1.62-4.57h.92v12.25h-.92c-.19-.46-.42-.78-.69-.95-.27-.17-.67-.26-1.21-.26-.46,0-1.06,.11-1.79,.32-.73,.21-1.57,.44-2.51,.69-.94,.25-1.98,.48-3.09,.69-1.12,.21-2.29,.32-3.53,.32-2.81,0-5.53-.55-8.15-1.65-2.62-1.1-4.92-2.6-6.91-4.51-1.99-1.91-3.57-4.15-4.77-6.73-1.19-2.58-1.79-5.38-1.79-8.38,0-3.27,.66-6.24,1.99-8.9,1.33-2.66,3.03-4.93,5.12-6.82,2.08-1.89,4.4-3.34,6.96-4.36,2.56-1.02,5.08-1.53,7.54-1.53,1.23,0,2.38,.12,3.44,.35,1.06,.23,2.04,.47,2.95,.72,.9,.25,1.72,.49,2.46,.72,.73,.23,1.35,.35,1.85,.35,.54,0,.94-.07,1.21-.2,.27-.13,.46-.47,.58-1.01h.92V13.41h-.75Z"/><path class="cls-1" d="M125.12,1.62V11.5h-.75c-.19-.65-.52-1.49-.98-2.51-.46-1.02-1.11-2.01-1.94-2.98-.83-.96-1.9-1.8-3.21-2.51-1.31-.71-2.91-1.07-4.8-1.07h-9.19V20.29h3.24c1.43,0,2.63-.2,3.61-.61,.98-.4,1.8-.98,2.46-1.73,.65-.75,1.19-1.66,1.62-2.72,.42-1.06,.77-2.24,1.04-3.55h.75V29.65h-.75c-.27-1.12-.59-2.2-.95-3.24-.37-1.04-.86-1.96-1.47-2.75-.62-.79-1.38-1.42-2.28-1.88-.91-.46-2.03-.69-3.38-.69h-3.87v20.87h9.48c1.77,0,3.37-.3,4.8-.9,1.43-.6,2.69-1.44,3.79-2.51,1.1-1.08,2.01-2.34,2.75-3.79,.73-1.45,1.29-3,1.68-4.65h.75v12.66h-36.93v-.81h5.32V2.43h-5.32v-.81h34.56Z"/></g><g><path class="cls-1" d="M142.57,9.94c-.24,0-.36-.08-.41-.23l-.65-1.61h-2.59c-.15,0-.32-.14-.32-.38,0-.22,.16-.38,.32-.38h2.29l-1.62-4.1c-.02-.05-.05-.08-.08-.08s-.05,.03-.07,.08l-2.57,6.48c-.05,.14-.17,.22-.4,.22-.27,0-.4-.13-.4-.31,0-.04,0-.08,.03-.13l2.6-6.6c.09-.23,.32-.44,.62-.44h.38c.29,0,.53,.21,.62,.43l2.62,6.62s.03,.07,.03,.11c0,.17-.16,.31-.4,.31Z"/><path class="cls-1" d="M150.53,9.94c-.24,0-.41-.08-.41-.24v-.51c-.41,.41-.99,.66-1.7,.66h-.41c-1.46,0-2.36-.81-2.36-2.21v-1.12c0-1.47,.9-2.22,2.36-2.22h.95c.15,0,.31,.16,.31,.4s-.16,.39-.31,.39h-.87c-.94,0-1.64,.51-1.64,1.51v.98c0,.97,.66,1.5,1.64,1.5h.36c.88,0,1.58-.43,1.68-1.31V2.75c0-.15,.16-.33,.41-.33s.4,.18,.4,.33v6.85c0,.16-.16,.33-.4,.33Z"/><path class="cls-1" d="M159.11,4.67l-1.92,4.77c-.09,.22-.29,.43-.53,.43h-.26c-.27,0-.43-.19-.53-.42l-2-4.8c-.02-.05-.04-.1-.04-.15,0-.2,.19-.32,.43-.32,.19,0,.29,.06,.34,.2l1.83,4.47c.03,.07,.06,.11,.09,.11,.04,0,.06-.04,.09-.12l1.77-4.46c.04-.12,.16-.18,.34-.18,.3,0,.41,.13,.41,.31,0,.05,0,.12-.04,.18Z"/><path class="cls-1" d="M167.4,9.8h-.17c-.4,0-.73-.22-.9-.6-.28,.32-.79,.64-1.76,.64h-.78c-1.54,0-2.02-.71-2.02-1.61v-.23c0-.95,.71-1.62,2.14-1.62h1.17c.14,0,.28,.13,.28,.32s-.14,.33-.28,.33h-1.21c-.95,0-1.32,.42-1.32,.97v.17c0,.5,.3,.94,1.34,.94h.6c.95,0,1.5-.28,1.7-.86v-2.3c0-.65-.42-.94-1.55-.94h-1.38c-.14,0-.31-.14-.31-.36s.16-.37,.31-.37h1.38c1.58,0,2.33,.53,2.33,1.67v2.49c0,.33,.13,.58,.4,.58h.08c.15,.03,.27,.13,.27,.4,0,.25-.16,.39-.33,.39Z"/><path class="cls-1" d="M175.37,9.94c-.25,0-.4-.16-.4-.32v-3.2c0-.95-.58-1.35-1.43-1.35h-.41c-1.2,0-1.66,.74-1.66,1.17v3.38c0,.16-.15,.32-.4,.32s-.39-.16-.39-.32V4.51c0-.15,.15-.32,.39-.32s.4,.14,.4,.3v.46c.41-.38,1.01-.66,1.76-.66h.38c1.37,0,2.14,.73,2.14,2v3.33c0,.16-.15,.32-.39,.32Z"/><path class="cls-1" d="M181.8,9.84h-.68c-1.53,0-2.41-.68-2.41-2.22v-1.11c0-1.48,.95-2.22,2.41-2.22h1.04c.15,0,.32,.15,.32,.4s-.17,.39-.32,.39h-1.02c-1.05,0-1.66,.54-1.66,1.49v1c0,.99,.56,1.51,1.66,1.51h.64c1.98,0,1.04-1.36,1.92-1.36,.23,0,.39,.16,.39,.31v.03c-.13,1.25-.72,1.79-2.29,1.79Z"/><path class="cls-1" d="M191.78,7.35h-2.84c-.13,0-.24-.12-.24-.31s.11-.32,.24-.32h2.48c.13,0,.21-.09,.21-.21v-.04c0-1.07-.61-1.45-1.67-1.45h-.57c-1.01,0-1.71,.41-1.71,1.51v1.06c0,1.12,.67,1.5,1.71,1.5h1.14c.15,0,.31,.14,.31,.36s-.15,.37-.31,.37h-1.17c-1.71,0-2.46-.89-2.46-2.26v-1.06c0-1.44,.98-2.23,2.46-2.23h.59c1.61,0,2.47,.72,2.47,2.29v.13c0,.36-.3,.65-.66,.65Z"/><path class="cls-1" d="M139.85,25.59h-.56c-2.15,0-3.03-.97-3.03-3v-1.34c0-2.09,.95-3,3.03-3h1.4c.14,0,.31,.15,.31,.4s-.17,.4-.31,.4h-1.4c-1.57,0-2.24,.67-2.24,2.21v1.34c0,1.59,.75,2.22,2.24,2.22h.56c1.54,0,1.95-.65,2.02-1.73,0-.16,.14-.32,.41-.32,.23,0,.39,.16,.39,.32h0c0,1.37-.51,2.51-2.81,2.51Z"/><path class="cls-1" d="M149.18,25.69c-.24,0-.4-.17-.4-.32v-3.11c0-.98-.6-1.43-1.5-1.43h-.41c-1.07,0-1.52,.68-1.52,1.29v3.25c0,.16-.15,.32-.4,.32s-.4-.16-.4-.32v-6.9c0-.16,.15-.32,.4-.32s.4,.16,.4,.32v2.26c.36-.41,.9-.68,1.59-.68h.41c1.46,0,2.23,.76,2.23,2.17v3.16c0,.15-.16,.32-.4,.32Z"/><path class="cls-1" d="M156.92,25.55h-.17c-.4,0-.73-.22-.9-.6-.28,.32-.79,.64-1.76,.64h-.78c-1.54,0-2.02-.71-2.02-1.61v-.23c0-.95,.71-1.62,2.14-1.62h1.17c.13,0,.28,.13,.28,.32s-.14,.33-.28,.33h-1.21c-.95,0-1.32,.42-1.32,.97v.17c0,.5,.3,.94,1.34,.94h.6c.95,0,1.5-.28,1.7-.86v-2.3c0-.65-.42-.94-1.55-.94h-1.38c-.14,0-.31-.14-.31-.36s.16-.37,.31-.37h1.38c1.58,0,2.33,.53,2.33,1.67v2.49c0,.33,.13,.58,.4,.58h.08c.15,.03,.27,.13,.27,.4,0,.25-.16,.39-.33,.39Z"/><path class="cls-1" d="M159.55,25.68c-.24,0-.4-.16-.4-.32v-6.91c0-.15,.15-.31,.4-.31s.39,.16,.39,.31v6.91c0,.15-.15,.32-.39,.32Z"/><path class="cls-1" d="M162.62,25.68c-.24,0-.4-.16-.4-.32v-6.91c0-.15,.15-.31,.4-.31s.39,.16,.39,.31v6.91c0,.15-.15,.32-.39,.32Z"/><path class="cls-1" d="M169.87,23.1h-2.84c-.13,0-.24-.12-.24-.31s.11-.32,.24-.32h2.48c.13,0,.21-.09,.21-.21v-.04c0-1.07-.61-1.45-1.67-1.45h-.57c-1.01,0-1.71,.41-1.71,1.51v1.06c0,1.12,.67,1.5,1.71,1.5h1.14c.15,0,.31,.14,.31,.36s-.15,.37-.31,.37h-1.17c-1.71,0-2.46-.89-2.46-2.26v-1.06c0-1.44,.98-2.23,2.46-2.23h.59c1.61,0,2.47,.72,2.47,2.29v.13c0,.36-.3,.65-.66,.65Z"/><path class="cls-1" d="M177.06,25.69c-.25,0-.4-.16-.4-.32v-3.2c0-.95-.58-1.35-1.43-1.35h-.42c-1.2,0-1.66,.74-1.66,1.17v3.38c0,.16-.15,.32-.4,.32s-.39-.16-.39-.32v-5.1c0-.15,.15-.32,.39-.32s.4,.14,.4,.3v.46c.41-.38,1.01-.66,1.76-.66h.38c1.37,0,2.14,.73,2.14,2v3.33c0,.16-.15,.32-.39,.32Z"/><path class="cls-1" d="M184.89,20.04l-.63,.23c.32,.17,.47,.46,.47,.92v.2c0,.69-.35,1.1-1.96,1.1h-1.25c-.18,0-.34,0-.5-.02-.67,.15-.79,.34-.79,.49,0,.23,.07,.41,1.07,.41h1.54c1.56,0,2.18,.2,2.18,1.21v.14c0,.81-.36,1.27-2.18,1.27h-1.39c-1.7,0-2.19-.38-2.19-1.21v-.05c0-.17,.18-.29,.46-.29,.22,0,.38,.15,.4,.26v.11c0,.45,.43,.62,1.29,.62h1.46c.9,0,1.31-.2,1.31-.66v-.24c0-.52-.41-.6-1.37-.6h-1.95c-1.07,0-1.39-.41-1.39-.89,0-.21,.04-.56,.68-.77-.41-.18-.62-.48-.62-.88v-.2c0-.76,.41-1.13,1.8-1.13h1.59c.1,0,.2,0,.29,0l1.4-.53c.06-.03,.12-.04,.18-.04,.15,0,.28,.09,.28,.25,0,.17-.08,.24-.19,.29Zm-.97,1.15c0-.48-.31-.58-1.01-.58h-1.54c-.78,0-1.01,.25-1.01,.58v.21c0,.34,.31,.54,1.17,.54h1.22c.85,0,1.17-.22,1.17-.54v-.21Z"/><path class="cls-1" d="M191.77,23.1h-2.84c-.13,0-.24-.12-.24-.31s.11-.32,.24-.32h2.48c.13,0,.21-.09,.21-.21v-.04c0-1.07-.61-1.45-1.67-1.45h-.57c-1.01,0-1.71,.41-1.71,1.51v1.06c0,1.12,.67,1.5,1.71,1.5h1.14c.15,0,.31,.14,.31,.36s-.15,.37-.31,.37h-1.17c-1.71,0-2.46-.89-2.46-2.26v-1.06c0-1.44,.98-2.23,2.46-2.23h.59c1.61,0,2.47,.72,2.47,2.29v.13c0,.36-.3,.65-.66,.65Z"/><path class="cls-1" d="M141.9,41.34h-4.81c-.36,0-.64-.28-.64-.64v-6.04c0-.37,.28-.66,.64-.66h3.7c.16,0,.33,.16,.33,.39,0,.24-.17,.39-.33,.39h-3.34c-.13,0-.22,.09-.22,.21v2.16h3.22c.15,0,.32,.14,.32,.39s-.16,.39-.32,.39h-3.22v2.45c0,.13,.09,.22,.22,.22h4.45c.14,0,.32,.14,.32,.39,0,.22-.17,.37-.32,.37Z"/><path class="cls-1" d="M147.93,41.44c-.25,0-.4-.16-.4-.32v-3.2c0-.95-.58-1.35-1.43-1.35h-.41c-1.2,0-1.66,.74-1.66,1.17v3.38c0,.16-.15,.32-.4,.32s-.39-.16-.39-.32v-5.1c0-.15,.15-.32,.39-.32s.4,.14,.4,.3v.46c.41-.38,1.01-.66,1.76-.66h.38c1.37,0,2.14,.73,2.14,2v3.33c0,.16-.15,.32-.39,.32Z"/><path class="cls-1" d="M152.48,41.34h-.68c-1.53,0-2.41-.68-2.41-2.22v-1.11c0-1.48,.95-2.22,2.41-2.22h1.04c.15,0,.32,.15,.32,.4s-.17,.39-.32,.39h-1.02c-1.05,0-1.66,.54-1.66,1.49v1c0,.99,.56,1.51,1.66,1.51h.64c1.98,0,1.04-1.36,1.92-1.36,.23,0,.39,.16,.39,.31v.03c-.13,1.25-.72,1.79-2.29,1.79Z"/><path class="cls-1" d="M158.56,41.35h-.52c-1.55,0-2.36-.72-2.36-2.14v-1.25c0-1.39,.84-2.16,2.36-2.16h.52c1.4,0,2.34,.72,2.34,2.16v1.25c0,1.42-.86,2.14-2.34,2.14Zm1.54-3.32c0-.98-.58-1.45-1.62-1.45h-.36c-1.13,0-1.65,.5-1.65,1.45v1.11c0,.99,.58,1.44,1.65,1.44h.36c1.05,0,1.62-.44,1.62-1.44v-1.11Z"/><path class="cls-1" d="M166.61,41.44c-.24,0-.4-.08-.4-.24v-.5c-.4,.4-.97,.65-1.72,.65h-.31c-1.58,0-2.25-.74-2.25-2.1v-3.23c0-.16,.15-.32,.4-.32s.4,.17,.4,.32v3.18c0,.94,.5,1.39,1.56,1.39h.26c1.12,0,1.67-.56,1.67-1.48v-3.09c0-.15,.15-.32,.4-.32s.4,.17,.4,.32v5.1c0,.16-.15,.32-.4,.32Z"/><path class="cls-1" d="M172.15,36.57h-1.21c-1.25,0-1.78,.81-1.78,1.31v3.23c0,.16-.15,.32-.41,.32-.23,0-.38-.16-.38-.32v-5.1c0-.15,.14-.32,.38-.32,.25,0,.41,.13,.41,.29v.49c.38-.38,.96-.67,1.78-.67h1.21c.14,0,.32,.16,.32,.39,0,.24-.18,.41-.32,.41Z"/><path class="cls-1" d="M178.81,41.3h-.17c-.4,0-.73-.22-.9-.6-.28,.32-.79,.64-1.76,.64h-.78c-1.54,0-2.02-.71-2.02-1.61v-.23c0-.95,.71-1.62,2.14-1.62h1.17c.13,0,.28,.13,.28,.32s-.14,.33-.28,.33h-1.21c-.95,0-1.32,.42-1.32,.97v.17c0,.5,.3,.94,1.34,.94h.6c.95,0,1.5-.28,1.7-.86v-2.3c0-.65-.42-.94-1.55-.94h-1.38c-.14,0-.31-.14-.31-.36s.16-.37,.31-.37h1.38c1.58,0,2.33,.53,2.33,1.67v2.49c0,.33,.13,.58,.4,.58h.08c.15,.03,.27,.13,.27,.4,0,.25-.16,.39-.33,.39Z"/><path class="cls-1" d="M185.64,35.79l-.63,.23c.32,.17,.47,.46,.47,.92v.2c0,.69-.35,1.1-1.96,1.1h-1.25c-.18,0-.34,0-.5-.02-.67,.15-.79,.34-.79,.49,0,.23,.07,.41,1.07,.41h1.54c1.56,0,2.18,.2,2.18,1.21v.14c0,.81-.36,1.27-2.18,1.27h-1.39c-1.7,0-2.19-.38-2.19-1.21v-.05c0-.17,.18-.29,.46-.29,.22,0,.38,.15,.4,.26v.11c0,.45,.43,.62,1.29,.62h1.46c.9,0,1.31-.2,1.31-.66v-.24c0-.52-.41-.6-1.37-.6h-1.94c-1.07,0-1.39-.41-1.39-.89,0-.21,.04-.56,.68-.77-.41-.18-.62-.48-.62-.88v-.2c0-.76,.41-1.13,1.8-1.13h1.59c.1,0,.2,0,.29,0l1.4-.53c.06-.03,.12-.04,.18-.04,.15,0,.28,.09,.28,.25,0,.17-.08,.24-.19,.29Zm-.97,1.15c0-.48-.31-.58-1.01-.58h-1.54c-.78,0-1.01,.25-1.01,.58v.21c0,.34,.31,.54,1.17,.54h1.22c.85,0,1.17-.22,1.17-.54v-.21Z"/><path class="cls-1" d="M191.77,38.85h-2.84c-.13,0-.24-.12-.24-.31s.11-.32,.24-.32h2.49c.13,0,.21-.09,.21-.21v-.04c0-1.07-.61-1.45-1.67-1.45h-.57c-1.01,0-1.71,.41-1.71,1.51v1.06c0,1.12,.67,1.5,1.71,1.5h1.14c.15,0,.31,.14,.31,.36s-.15,.37-.31,.37h-1.17c-1.71,0-2.46-.89-2.46-2.26v-1.06c0-1.44,.98-2.23,2.46-2.23h.59c1.61,0,2.47,.72,2.47,2.29v.13c0,.36-.3,.65-.66,.65Z"/></g><g><path class="cls-1" d="M1.62,55.44c-.19,1.12-.34,1.58-.86,2.63-.24-.22-.44-.35-.76-.51,.47-.71,.69-1.31,.84-2.32l.78,.2Zm.54-4.89c0-.45,0-.62-.05-.83h1c-.04,.18-.05,.36-.05,.81v.31h.96c.43,0,.65,0,.92-.06v.91c-.26-.04-.48-.05-.92-.05H1.09c-.45,0-.68,0-.96,.05v-.91c.27,.05,.46,.06,.94,.06h1.09v-.29Zm-.57,4.24c-.41,0-.7,.01-.97,.04,.03-.29,.04-.53,.04-.92v-.74c0-.39,0-.62-.04-.92,.27,.03,.52,.04,.96,.04H3.59c.42,0,.67,0,.92-.04-.03,.27-.04,.49-.04,.9v.76c0,.43,0,.66,.04,.92-.27-.03-.52-.04-.93-.04h-.56v3.12c0,.34-.11,.58-.33,.71-.16,.09-.41,.13-.9,.13q-.1,0-.46,0c-.03-.36-.06-.47-.18-.85,.26,.03,.49,.05,.73,.05,.22,0,.27-.04,.27-.23v-2.92h-.56Zm-.06-.76H3.61v-.97H1.53v.97Zm2.39,1.11c.3,.57,.45,.92,.68,1.56l-.71,.39c-.19-.7-.33-1.09-.61-1.68l.64-.27Zm1.79-2.12c-.42,0-.68,0-.91,.05v-.95c.23,.04,.45,.05,.92,.05h.37c.03-.43,.05-.99,.05-1.45,0-.4,0-.68-.05-.93h.96c-.02,.18-.04,.5-.05,.87,0,.48-.02,.95-.06,1.51h1.21c.48,0,.72,0,.97-.05v.95c-.27-.04-.5-.05-.96-.05h-1.31c-.12,.93-.22,1.48-.38,2.04-.33,1.13-.82,2.15-1.46,3-.22,.29-.36,.44-.81,.87-.23-.3-.37-.45-.67-.71,.59-.5,.93-.89,1.37-1.6,.53-.83,.93-2.13,1.11-3.6h-.3Zm1.92,.68c-.04,.26-.05,.4-.05,.82l-.02,3.03c0,.22,.05,.25,.41,.25,.29,0,.39-.06,.43-.29,.06-.28,.08-.67,.08-1.47,.27,.16,.54,.27,.79,.33-.04,1.05-.09,1.44-.22,1.78-.15,.38-.43,.5-1.18,.5-.39,0-.65-.03-.82-.11-.22-.1-.31-.27-.3-.63l.02-3.39v-.29c0-.26,0-.28,0-.53h.87Zm.3-3.78c.51,.59,.69,.82,1.1,1.48l-.68,.52c-.36-.69-.59-1.03-1.06-1.57l.64-.43Z"/><path class="cls-1" d="M17.45,51.94c.58-.86,.85-1.35,1.15-2.14l.91,.35c-.57,1.02-.79,1.37-1.09,1.79h.75c.47,0,.73,0,1.05-.04-.03,.24-.04,.44-.04,.8v.73c0,.27,0,.46,.05,.71h-.94v-1.4h-6.61v1.4h-.94c.04-.28,.05-.46,.05-.72v-.71c0-.35,0-.57-.04-.81,.32,.03,.56,.04,1.04,.04h4.66Zm.94,2.42c.31,0,.77-.02,.98-.04-.02,.17-.03,.19-.04,.56-.08,1.66-.17,2.46-.36,3.02-.19,.6-.54,.78-1.5,.78-.27,0-.44,0-1.06-.04-.02-.38-.09-.65-.21-.95,.43,.07,.88,.11,1.21,.11,.51,0,.62-.08,.73-.48,.12-.41,.2-1.15,.23-2.14h-2.38c-.44,1.79-1.45,2.8-3.59,3.6-.17-.37-.33-.62-.57-.86,.94-.27,1.66-.63,2.21-1.12,.49-.44,.78-.93,.99-1.62h-1.46c-.42,0-.85,.02-1.12,.06v-.93c.21,.03,.64,.05,1.12,.05h1.62c.04-.33,.06-.58,.06-.92,0-.12,0-.23-.03-.35h1.03c-.03,.13-.05,.25-.06,.58-.02,.3-.03,.47-.06,.69h2.26Zm-4.87-2.46c-.36-.8-.55-1.12-1.01-1.7l.83-.33c.49,.64,.63,.86,1.03,1.66l-.85,.37Zm2.35-.19c-.26-.68-.46-1.05-.91-1.7l.84-.28c.37,.55,.62,.97,.92,1.63l-.85,.35Z"/><path class="cls-1" d="M24.31,51.05c-.41,.09-.56,.12-1.1,.21-.08-.3-.17-.48-.35-.78,1.3-.15,2.48-.49,3.01-.87l.53,.74c-.07,.03-.1,.05-.21,.1-.35,.15-.59,.24-1.01,.37v1.44h.36c.32,0,.49,0,.69-.04v.87c-.21-.03-.39-.04-.69-.04h-.33c.36,.74,.53,.98,1.07,1.5-.16,.23-.27,.42-.43,.78-.32-.41-.46-.64-.73-1.22,.03,.31,.06,.91,.06,1.26v2.28c0,.54,0,.87,.06,1.2h-.99c.04-.3,.06-.63,.06-1.2v-2c0-.36,.02-.86,.05-1.33-.32,1.03-.71,1.77-1.32,2.53-.11-.34-.24-.58-.46-.88,.64-.67,1.31-1.89,1.6-2.92h-.61c-.34,0-.52,.01-.76,.05v-.89c.2,.04,.39,.05,.76,.05h.74v-1.21Zm5.78,2.53q-.05,.08-.16,.23s-.16,.23-.25,.35h1.12c.33,0,.53,0,.72-.04l.52,.53c-.08,.13-.11,.18-.25,.43-.6,1.04-1.25,1.75-2.24,2.42-1,.7-1.93,1.08-3.27,1.36-.13-.34-.24-.55-.47-.84,1.25-.19,1.99-.45,3.06-1.09-.35-.35-.4-.38-.97-.78l.64-.48c.53,.37,.72,.52,1.02,.79,.58-.47,.95-.87,1.41-1.58h-1.94c-.77,.74-1.45,1.19-2.43,1.64-.2-.3-.25-.37-.56-.69,.96-.35,1.86-.91,2.53-1.57,.31-.31,.45-.49,.65-.84-.91,.65-1.61,1.02-2.62,1.37-.14-.3-.26-.47-.51-.73,.97-.28,1.51-.52,2.28-1.02-.16-.17-.16-.18-.24-.25-.07-.06-.27-.23-.62-.5l.6-.46c.42,.3,.62,.46,.91,.74,.63-.5,.92-.81,1.34-1.41h-1.97c-.53,.57-1.04,.98-1.8,1.42-.16-.26-.3-.42-.53-.63,.79-.4,1.49-.96,1.96-1.57,.19-.24,.37-.56,.43-.75l.89,.28q-.06,.07-.16,.23s-.07,.1-.16,.23c-.02,0-.03,.04-.06,.07h1.32c.33,0,.53,0,.73-.04l.48,.52q-.14,.21-.27,.41c-.53,.82-1.02,1.34-1.9,2.01l.77,.24Z"/><path class="cls-1" d="M35.5,55.64c0-.42,0-.53,.02-1.17-.3,.37-.6,.65-1,.95-.13-.37-.25-.6-.46-.86,.74-.49,1.37-1.09,1.95-1.84,.25-.33,.41-.59,.53-.88l.81,.51c-.1,.12-.17,.22-.32,.44-.23,.34-.36,.52-.61,.82v3.99c0,.53,.02,.92,.06,1.24h-1.05c.04-.3,.07-.73,.07-1.25v-1.95Zm1.65-5.44c-.07,.08-.1,.12-.17,.21-.7,.88-1.35,1.48-2.34,2.15-.17-.33-.31-.51-.56-.75,.69-.4,1.12-.74,1.6-1.25,.33-.36,.52-.61,.65-.91l.82,.55Zm1.4,3.39c-.47,0-.91,.02-1.18,.06v-.95c.26,.04,.7,.06,1.18,.06h3.44c.54,0,.92-.02,1.17-.06v.95c-.29-.04-.7-.06-1.15-.06h-.48v4.14c0,.76-.29,.97-1.33,.97-.36,0-.71,0-1.17-.04-.05-.38-.1-.61-.24-.94,.56,.08,1.02,.12,1.38,.12,.38,0,.45-.04,.45-.25v-4h-2.07Zm-.78-3.41c.26,.04,.62,.06,1.11,.06h2.74c.48,0,.8-.02,1.1-.06v.94c-.34-.04-.69-.06-1.08-.06h-2.76c-.41,0-.8,.02-1.11,.06v-.94Z"/><path class="cls-1" d="M49.38,50.57c0-.42-.02-.61-.06-.87h1.07c-.05,.24-.06,.44-.06,.87v.48h2.81c.48,0,.84-.02,1.15-.07v.98c-.29-.04-.67-.06-1.15-.06h-2.81v1.41h1.35c.42,0,.66,0,.86-.05l.57,.57c-.11,.13-.23,.3-.41,.57-.52,.79-1.14,1.47-1.93,2.12,1.07,.65,2.21,1.05,3.72,1.3-.22,.32-.33,.54-.48,.96-1.74-.41-2.82-.86-4.02-1.68-1.28,.83-2.48,1.32-4.08,1.65-.13-.35-.24-.56-.47-.9,1.49-.23,2.67-.64,3.8-1.31-.89-.75-1.35-1.34-1.92-2.43-.47,0-.72,.02-1.03,.06v-.92c.28,.04,.66,.06,1.15,.06h1.94v-1.41h-2.66c-.48,0-.83,.02-1.14,.06v-.98c.31,.05,.67,.07,1.14,.07h2.66v-.48Zm-1.05,3.54c.39,.75,.88,1.31,1.68,1.91,.78-.59,1.23-1.08,1.77-1.91h-3.45Z"/><path class="cls-1" d="M60.76,53.26c-.36,0-.66,.01-.91,.04v-.8c.21,.03,.45,.04,.82,.04h.06c-.17-.5-.3-.77-.59-1.19l.71-.24c.27,.42,.41,.72,.56,1.15l-.63,.28h2.83c.46-.71,.67-1.16,.86-1.78l.85,.24c-.42,.81-.58,1.1-.88,1.54h.33c.39,0,.59-.01,.82-.05v.81c-.29-.03-.55-.04-.95-.04h-2.65c-.03,.31-.04,.41-.08,.66h2.72c.55,0,.84,0,1.12-.06v.87c-.3-.04-.69-.06-1.12-.06h-2.86c-.05,.22-.08,.32-.15,.57h2.13c.44,0,.67,0,.84-.04l.45,.55q-.07,.09-.2,.26c-.29,.42-.8,.98-1.19,1.31,.7,.35,1.24,.5,2.3,.67-.18,.32-.27,.5-.41,.89-1.1-.28-1.81-.57-2.58-1.04-.7,.45-1.49,.78-2.43,1.03-.12-.32-.26-.55-.48-.79,.91-.18,1.5-.38,2.19-.76-.48-.39-.78-.69-1.04-1.02-.48,1.01-1.05,1.74-1.92,2.48-.12-.24-.32-.49-.55-.67-.06,.53-.31,.67-1.23,.67-.16,0-.28,0-.56-.02-.02-.32-.07-.54-.19-.85,.38,.04,.62,.06,.87,.06,.2,0,.25-.05,.25-.24v-2.55q-.34,.12-.58,.21s-.06,.02-.31,.11c-.06,.02-.11,.04-.2,.08l-.2-.93c.41-.06,.64-.12,1.29-.34v-1.88h-.49c-.24,0-.42,0-.68,.04v-.89c.23,.04,.4,.05,.68,.05h.49v-.88c0-.49,0-.73-.06-1.03h.99c-.05,.28-.06,.54-.06,1.02v.89h.28c.23,0,.37,0,.57-.03v.86c-.21-.02-.35-.03-.57-.03h-.28v1.55c.32-.12,.41-.16,.75-.32l.02,.82c-.36,.17-.48,.23-.77,.35v3.22c1.1-.85,1.82-1.97,2.17-3.38h-.24c-.43,0-.71,0-.98,.05v-.85c.29,.04,.57,.05,1,.05h.37c.03-.24,.05-.46,.07-.66h-.37Zm4.71-2.87q-.12,.02-.48,.09c-1.29,.27-3.4,.49-5.22,.55-.06-.3-.1-.42-.28-.73h.29c1.92,0,4.32-.3,5.08-.63l.61,.72Zm-3.07,2.1c-.12-.48-.28-.85-.54-1.31l.72-.23c.26,.45,.38,.73,.54,1.28l-.72,.26Zm-.53,3.49c.31,.33,.63,.62,1.03,.9,.4-.31,.61-.53,.89-.9h-1.92Z"/><path class="cls-1" d="M72.02,54.64h-2.36c-.37,0-.66,0-.93,.04v-.79c.25,.04,.49,.05,.95,.05h2.34v-.47h-2.1c-.34,0-.61,.01-.84,.04,.03-.24,.04-.41,.04-.68v-.57c0-.28-.01-.44-.04-.7,.26,.03,.48,.04,.85,.04h2.09v-.48h-2.8c-.49,0-.83,.02-1.16,.06v-.85c.29,.04,.62,.06,1.2,.06h2.76c-.01-.4-.02-.53-.06-.77h1c-.05,.24-.07,.37-.07,.77h2.93c.58,0,.9-.02,1.19-.06v.85c-.34-.04-.67-.06-1.15-.06h-2.97v.48h2.3c.36,0,.59-.01,.83-.04-.03,.23-.04,.4-.04,.7v.57c0,.29,.01,.45,.04,.68-.22-.03-.49-.04-.81-.04h-2.32v.47h2.24c.57,0,.8,0,1.08-.04-.02,.22-.03,.39-.03,.91v.37c.52,0,.74-.02,.95-.06v.82c-.23-.03-.46-.05-.95-.05v.63c0,.51,0,.79,.06,1.05h-.93v-.39h-2.42v.66c0,.81-.24,.99-1.33,.99-.21,0-.62-.02-.96-.04-.04-.34-.09-.51-.25-.85,.55,.07,.89,.1,1.26,.1,.33,0,.41-.05,.41-.25v-.61h-2.37c-.46,0-.69,.01-1,.05v-.82c.29,.03,.46,.04,.97,.04h2.4v-.56h-2.92c-.57,0-.84,0-1.1,.05v-.82c.25,.05,.52,.06,1.09,.06h2.93v-.54Zm-2.02-2.38v.55h2.02v-.55h-2.02Zm2.89,.55h2.21v-.55h-2.21v.55Zm2.42,2.37v-.54h-2.42v.54h2.42Zm-2.42,1.27h2.42v-.56h-2.42v.56Z"/><path class="cls-1" d="M80.83,53.64c-.47,0-.74,.01-1.03,.05v-.83c.28,.04,.53,.05,1.03,.05h1.3c-.15-.39-.27-.63-.43-.91h-1.15c-.48,0-.84,.02-1.15,.05v-.85c.28,.04,.6,.06,1.11,.06h.47c-.17-.31-.39-.6-.73-.98l.82-.33c.41,.54,.51,.69,.82,1.31h.68v-.73c0-.32-.02-.6-.06-.8h.93c-.02,.18-.03,.42-.03,.77v.76h.85v-.76c0-.33-.02-.58-.04-.77h.93c-.04,.21-.05,.48-.05,.8v.73h.76c.33-.45,.58-.91,.74-1.35l.87,.33c-.25,.41-.49,.77-.67,1.02h.4c.53,0,.83-.02,1.13-.06v.85c-.32-.03-.68-.05-1.17-.05h-1.07c-.16,.36-.27,.58-.44,.91h1.26c.51,0,.76,0,1.06-.05v.83c-.3-.04-.57-.05-1.06-.05h-2.66v.57h2.11c.46,0,.78,0,1.05-.05v.8c-.28-.04-.59-.05-1.05-.05h-2.1v.59h2.89c.59,0,.9-.02,1.19-.06v.86c-.37-.04-.73-.06-1.18-.06h-2.23c.8,.71,2.04,1.23,3.64,1.52-.25,.31-.36,.49-.51,.85-1.73-.47-2.83-1.05-3.84-2.05,.03,.38,.03,.54,.03,.76v.57c0,.42,.02,.74,.06,1.02h-.97c.04-.29,.06-.61,.06-1.03v-.55c0-.23,0-.34,.02-.75-.52,.53-.89,.81-1.53,1.17-.66,.37-1.21,.6-2.06,.86-.17-.36-.26-.5-.53-.81,.89-.2,1.41-.36,1.99-.65,.59-.28,1.02-.55,1.43-.91h-2.08c-.46,0-.81,.02-1.17,.06v-.86c.29,.04,.61,.06,1.17,.06h2.75v-.59h-2c-.45,0-.76,0-1.03,.05v-.8c.29,.04,.58,.05,1.03,.05h2v-.57h-2.56Zm3.9-.73c.19-.36,.3-.62,.4-.91h-2.48c.17,.36,.23,.51,.37,.91h1.71Z"/><path class="cls-1" d="M94.81,54.43c0,.39,0,.55,.03,.78-.15-.02-.23-.02-.28-.02h-.67s-1.74,0-1.74,0c-.08,1.62-.31,2.56-.9,3.58-.26-.3-.44-.45-.75-.63,.65-1.08,.83-2.14,.83-4.87,0-.68,0-1.01-.05-1.37,.34,.03,.58,.04,1.05,.04h1.53c.46,0,.67,0,.98-.04-.02,.2-.03,.49-.03,.84v1.7Zm-3.95-4.31c.28,.05,.54,.06,1.03,.06h2.25c.55,0,.78,0,1.02-.05v.94c-.23-.04-.5-.05-.99-.05h-2.32c-.43,0-.71,0-.99,.05v-.95Zm3.09,4.27v-1.68h-1.77v.86c0,.4,0,.52,0,.82h1.78Zm2.5-.79c-.08,1.35-.2,2.13-.47,2.9-.3,.87-.68,1.45-1.49,2.3-.23-.31-.41-.48-.7-.68,1.46-1.37,1.79-2.52,1.79-6.28,0-.63,0-.92-.04-1.24,1.13,0,2.94-.43,3.69-.87l.51,.84c-.17,.04-.23,.06-.44,.13-1.04,.34-1.73,.5-2.83,.66v1.38h2.41c.44,0,.67,0,.95-.06v.97c-.28-.04-.51-.05-.89-.05h-.23v4.1c0,.52,0,.75,.06,1.06h-1c.04-.3,.06-.58,.06-1.07v-4.09h-1.38Z"/><path class="cls-1" d="M114.29,50.93c-.04,.13-.04,.15-.08,.38,0,0-.01,.07-.02,.15,0,.03-.02,.11-.03,.21-.44,2.97-1.18,4.79-2.59,6.4-.4-.39-.53-.49-.94-.72,.6-.59,1.02-1.19,1.44-2.07,.45-.93,.81-2.21,.98-3.45,.06-.43,.09-.73,.09-.96v-.15l1.15,.21Zm2.81-.21c.03,.56,.2,1.46,.44,2.35,.48,1.81,1.17,3.11,2.24,4.24-.42,.27-.56,.39-.9,.77-.69-.79-1.21-1.66-1.69-2.8-.45-1.06-.8-2.37-.99-3.65-.06-.37-.09-.54-.13-.7l1.03-.21Z"/><path class="cls-1" d="M122.31,53.64c.37,.05,.8,.07,1.54,.07h5.41c.86,0,1.1,0,1.49-.06v1.16c-.44-.04-.76-.05-1.5-.05h-5.39c-.84,0-1.14,0-1.55,.05v-1.17Z"/><path class="cls-1" d="M135.62,58.45c.05-.43,.06-.68,.06-1.28v-5.95c0-.69,0-.92-.06-1.2h1.18c-.04,.32-.06,.66-.06,1.22v1.69c1.43,.5,2.83,1.16,4.5,2.11l-.58,.99c-.45-.31-.71-.47-1.24-.76-.76-.41-1.85-.95-2.39-1.18q-.17-.07-.32-.17,0,.14,.02,.39c0,.09,0,.4,0,.5v2.36c0,.53,.02,.91,.06,1.28h-1.18Z"/><path class="cls-1" d="M152.93,51.36q-.09,.16-.24,.7c-.51,1.89-1.28,3.26-2.49,4.38-.9,.85-1.78,1.39-3.18,1.97-.22-.45-.34-.61-.72-.99,.89-.27,1.47-.54,2.22-1.04,1.58-1.04,2.56-2.47,3.08-4.51h-4.77c-.67,0-.95,0-1.33,.06v-1.11c.4,.06,.68,.07,1.35,.07h4.59c.51,0,.64-.01,.9-.09l.59,.56Z"/><path class="cls-1" d="M159.12,50.39q-.04,.26-.1,2.22c-.07,1.92-.29,3-.82,4.02-.34,.66-.72,1.15-1.39,1.8-.3-.4-.44-.53-.84-.8,.79-.64,1.28-1.34,1.61-2.29,.3-.89,.43-2.15,.43-4.21,0-.42,0-.56-.03-.8l1.14,.06Zm2.58-.12c-.05,.34-.06,.5-.06,1.21l-.06,5.55c.76-.32,1.2-.63,1.66-1.15,.5-.55,.84-1.15,1.07-1.9,.29,.38,.4,.49,.79,.8-.41,.95-.91,1.68-1.54,2.25-.57,.51-1.11,.81-2.14,1.21-.19,.07-.3,.12-.41,.18l-.54-.59c.06-.24,.07-.4,.08-.91l.05-5.45v-.24c0-.52,0-.71-.05-.97h1.15Z"/><path class="cls-1" d="M176.83,58.11c-.07-.34-.18-.75-.29-1.04l-.45-1.17h-3.32l-.45,1.17c-.17,.43-.23,.66-.3,1.04h-1.4c.17-.3,.32-.63,.53-1.17l2.22-5.67c.19-.49,.27-.73,.32-.98h1.44c.05,.22,.1,.37,.34,.98l2.23,5.67c.25,.62,.38,.92,.52,1.17h-1.39Zm-2.21-6.27q-.04-.1-.2-.6-.17,.52-.2,.6l-1.14,3.1h2.69l-1.15-3.1Z"/><path class="cls-1" d="M184.42,52.66c-.12-.42-.23-.63-.44-.88-.37-.43-.91-.66-1.57-.66-1.51,0-2.43,1.16-2.43,3.06s.95,3.09,2.44,3.09c.73,0,1.35-.28,1.7-.78,.2-.27,.29-.51,.37-.95l1.19,.23c-.18,.66-.34,1.01-.62,1.37-.57,.72-1.52,1.12-2.67,1.12-1.03,0-1.88-.32-2.48-.93-.7-.72-1.09-1.85-1.09-3.11,0-1.33,.43-2.47,1.22-3.22,.61-.58,1.38-.86,2.36-.86s1.75,.27,2.34,.84c.41,.39,.62,.74,.83,1.39l-1.15,.29Z"/><path class="cls-1" d="M192.31,58.18c-.34-.05-.64-.07-1.22-.07h-3.05c-.56,0-.79,0-1.2,.03,.06-.39,.08-.72,.08-1.27v-5.38c0-.48-.02-.79-.08-1.23,.36,.02,.64,.03,1.2,.03h2.95c.49,0,.9-.02,1.22-.07v1.12c-.36-.05-.67-.07-1.22-.07h-2.96v2.27h2.51c.5,0,.83-.02,1.23-.07v1.12c-.37-.05-.64-.07-1.23-.07h-2.52v2.6h3.07c.55,0,.82-.02,1.22-.07v1.13Z"/></g></g></g></svg>