<?xml version="1.0" encoding="UTF-8"?>
<svg id="_レイヤー_2" data-name="レイヤー 2" xmlns="http://www.w3.org/2000/svg" viewBox="0 0 164.13 67.35">
  <defs>
    <style>
      .cls-1 {
        fill: #fff;
      }

      .cls-2 {
        fill: #036eb8;
      }
    </style>
  </defs>
  <g id="_レイヤー1" data-name="レイヤー1">
    <g>
      <rect class="cls-2" width="164.13" height="67.35"/>
      <g>
        <path class="cls-1" d="M100.08,15.92c2.54,4.44,3.81,10.76,3.81,18.94s-1.27,14.48-3.81,18.9c-2.54,4.42-6.97,6.63-13.28,6.63s-10.74-2.21-13.28-6.63c-2.54-4.42-3.81-10.72-3.81-18.9s1.27-14.49,3.81-18.94,6.97-6.67,13.28-6.67,10.74,2.22,13.28,6.67Zm-19.02,32.01c.93,3.02,2.85,4.53,5.74,4.53s4.79-1.51,5.69-4.53c.9-3.02,1.35-7.38,1.35-13.07s-.45-10.39-1.35-13.26c-.9-2.87-2.8-4.31-5.69-4.31s-4.81,1.44-5.74,4.31c-.93,2.87-1.4,7.29-1.4,13.26s.47,10.05,1.4,13.07Z"/>
        <path class="cls-1" d="M111.3,24.98v-6.63c3.07-.14,5.22-.34,6.44-.62,1.96-.43,3.55-1.3,4.77-2.6,.84-.89,1.48-2.07,1.91-3.55,.25-.89,.38-1.55,.38-1.98h8.13V59.16h-9.98V24.98h-11.66Z"/>
      </g>
    </g>
  </g>
</svg>