<?xml version="1.0" encoding="UTF-8"?>
<svg id="_レイヤー_2" data-name="レイヤー 2" xmlns="http://www.w3.org/2000/svg" viewBox="0 0 164.13 67.35">
  <defs>
    <style>
      .cls-1 {
        fill: #fff;
      }

      .cls-2 {
        fill: #036eb8;
      }
    </style>
  </defs>
  <g id="_レイヤー1" data-name="レイヤー1">
    <g>
      <rect class="cls-2" width="164.13" height="67.35"/>
      <g>
        <path class="cls-1" d="M53.12,15.92c2.54,4.44,3.81,10.76,3.81,18.94s-1.27,14.48-3.81,18.9c-2.54,4.42-6.97,6.63-13.28,6.63s-10.74-2.21-13.28-6.63c-2.54-4.42-3.81-10.72-3.81-18.9s1.27-14.49,3.81-18.94c2.54-4.44,6.97-6.67,13.28-6.67s10.74,2.22,13.28,6.67Zm-19.02,32.01c.93,3.02,2.85,4.53,5.74,4.53s4.79-1.51,5.69-4.53c.9-3.02,1.35-7.38,1.35-13.07s-.45-10.39-1.35-13.26c-.9-2.87-2.8-4.31-5.69-4.31s-4.81,1.44-5.74,4.31c-.93,2.87-1.4,7.29-1.4,13.26s.47,10.05,1.4,13.07Z"/>
        <path class="cls-1" d="M96.1,48.5h-5.61v10.66h-9.54v-10.66h-19.62v-8.51l18.22-30.08h10.94v30.97h5.61v7.62Zm-15.14-7.62V19.53l-12.37,21.35h12.37Z"/>
      </g>
    </g>
  </g>
</svg>