<?xml version="1.0" encoding="UTF-8"?>
<svg id="_レイヤー_2" data-name="レイヤー 2" xmlns="http://www.w3.org/2000/svg" viewBox="0 0 164.13 67.35">
  <defs>
    <style>
      .cls-1 {
        fill: #fff;
      }

      .cls-2 {
        fill: #036eb8;
      }
    </style>
  </defs>
  <g id="_レイヤー1" data-name="レイヤー1">
    <g>
      <rect class="cls-2" width="164.13" height="67.35"/>
      <g>
        <path class="cls-1" d="M100.07,15.92c2.54,4.44,3.81,10.76,3.81,18.94s-1.27,14.48-3.81,18.9c-2.54,4.42-6.97,6.63-13.28,6.63s-10.74-2.21-13.28-6.63c-2.54-4.42-3.81-10.72-3.81-18.9s1.27-14.49,3.81-18.94,6.97-6.67,13.28-6.67,10.74,2.22,13.28,6.67Zm-19.02,32.01c.93,3.02,2.85,4.53,5.74,4.53s4.79-1.51,5.69-4.53c.9-3.02,1.35-7.38,1.35-13.07s-.45-10.39-1.35-13.26c-.9-2.87-2.8-4.31-5.69-4.31s-4.81,1.44-5.74,4.31c-.93,2.87-1.4,7.29-1.4,13.26s.47,10.05,1.4,13.07Z"/>
        <path class="cls-1" d="M117.86,43.95c0,1.98,.32,3.62,.96,4.92,1.18,2.39,3.33,3.59,6.45,3.59,1.91,0,3.57-.65,4.99-1.97,1.42-1.31,2.13-3.2,2.13-5.66,0-3.26-1.32-5.43-3.95-6.53-1.5-.62-3.86-.92-7.09-.92v-6.97c3.16-.05,5.36-.35,6.61-.92,2.16-.96,3.24-2.89,3.24-5.81,0-1.89-.55-3.43-1.65-4.61-1.1-1.18-2.65-1.78-4.65-1.78-2.29,0-3.98,.73-5.06,2.19-1.08,1.46-1.6,3.41-1.55,5.84h-9.09c.09-2.46,.51-4.8,1.26-7.01,.8-1.94,2.05-3.73,3.76-5.37,1.27-1.16,2.79-2.05,4.54-2.67,1.75-.62,3.9-.92,6.45-.92,4.73,0,8.55,1.23,11.46,3.67,2.9,2.45,4.35,5.74,4.35,9.86,0,2.92-.87,5.38-2.6,7.38-1.09,1.25-2.23,2.11-3.42,2.56,.89,0,2.16,.76,3.83,2.29,2.48,2.3,3.72,5.45,3.72,9.43,0,4.19-1.45,7.88-4.35,11.06s-7.2,4.77-12.89,4.77c-7.01,0-11.88-2.29-14.61-6.87-1.43-2.44-2.23-5.63-2.39-9.57h9.57Z"/>
      </g>
    </g>
  </g>
</svg>