<?xml version="1.0" encoding="UTF-8"?>
<svg id="_レイヤー_2" data-name="レイヤー 2" xmlns="http://www.w3.org/2000/svg" viewBox="0 0 164.13 67.35">
  <defs>
    <style>
      .cls-1 {
        fill: #fff;
      }

      .cls-2 {
        fill: #036eb8;
      }
    </style>
  </defs>
  <g id="_レイヤー1" data-name="レイヤー1">
    <g>
      <rect class="cls-2" width="164.13" height="67.35"/>
      <g>
        <path class="cls-1" d="M100.08,15.92c2.54,4.44,3.81,10.76,3.81,18.94s-1.27,14.48-3.81,18.9c-2.54,4.42-6.97,6.63-13.28,6.63s-10.74-2.21-13.28-6.63c-2.54-4.42-3.81-10.72-3.81-18.9s1.27-14.49,3.81-18.94c2.54-4.44,6.97-6.67,13.28-6.67s10.74,2.22,13.28,6.67Zm-19.02,32.01c.93,3.02,2.85,4.53,5.74,4.53s4.79-1.51,5.69-4.53c.9-3.02,1.35-7.38,1.35-13.07s-.45-10.39-1.35-13.26c-.9-2.87-2.8-4.31-5.69-4.31s-4.81,1.44-5.74,4.31c-.94,2.87-1.4,7.29-1.4,13.26s.47,10.05,1.4,13.07Z"/>
        <path class="cls-1" d="M118,45.9c.39,2.12,1.12,3.75,2.22,4.9,1.09,1.15,2.68,1.73,4.77,1.73,2.41,0,4.25-.85,5.51-2.55,1.26-1.7,1.89-3.83,1.89-6.41s-.59-4.67-1.77-6.41c-1.18-1.74-3.02-2.61-5.52-2.61-1.18,0-2.21,.15-3.07,.44-1.52,.55-2.67,1.56-3.44,3.04l-8.73-.41,3.48-27.38h27.27v8.27h-20.24l-1.77,10.83c1.5-.98,2.67-1.63,3.52-1.95,1.41-.52,3.13-.79,5.15-.79,4.1,0,7.67,1.38,10.72,4.14,3.05,2.76,4.57,6.77,4.57,12.03,0,4.58-1.47,8.67-4.41,12.27-2.94,3.6-7.33,5.4-13.18,5.4-4.71,0-8.58-1.26-11.61-3.79-3.03-2.53-4.71-6.12-5.05-10.77h9.71Z"/>
      </g>
    </g>
  </g>
</svg>