<?xml version="1.0" encoding="UTF-8"?>
<svg id="_レイヤー_2" data-name="レイヤー 2" xmlns="http://www.w3.org/2000/svg" viewBox="0 0 130.24 81.17">
  <defs>
    <style>
      .cls-1 {
        fill: #fff;
      }

      .cls-2 {
        fill: #c30d23;
      }
    </style>
  </defs>
  <g id="_レイヤー1" data-name="レイヤー1">
    <g>
      <polygon class="cls-2" points="106.16 81.17 0 81.17 0 0 106.16 0 130.24 40.23 106.16 81.17"/>
      <path class="cls-1" d="M10.6,35.99c-.08-.44-.23-1.02-.38-1.41l-.54-1.46H5.4l-.54,1.46c-.24,.64-.29,.84-.4,1.41H2.27c.2-.36,.47-.96,.71-1.58l2.95-7.73c.25-.67,.36-1,.43-1.35h2.33c.07,.32,.15,.54,.46,1.35l2.97,7.73c.33,.86,.5,1.23,.68,1.58h-2.2Zm-2.83-8.37c-.05-.15-.09-.31-.24-.75q-.21,.63-.25,.75l-1.39,3.97h3.32l-1.43-3.97Z"/>
      <path class="cls-1" d="M23,32.74c-.25,.96-.5,1.49-.9,2.01-.76,.94-2.05,1.46-3.66,1.46-1.46,0-2.62-.44-3.44-1.29-.94-.98-1.46-2.49-1.46-4.21s.56-3.32,1.57-4.33c.8-.82,2.01-1.27,3.35-1.27,1.04,0,1.84,.2,2.57,.64,.6,.38,1.08,.87,1.42,1.46,.16,.28,.25,.52,.42,1.03l-1.86,.43c-.19-.59-.31-.84-.58-1.15-.46-.55-1.13-.83-1.96-.83-1.9,0-3.05,1.49-3.05,3.95s1.18,3.98,3.05,3.98c.94,0,1.74-.36,2.17-.99,.23-.33,.33-.62,.44-1.23l1.92,.33Z"/>
      <path class="cls-1" d="M32.12,36.09c-.48-.07-.91-.09-1.73-.09h-4.18c-.8,0-1.17,.01-1.7,.04,.08-.54,.11-.98,.11-1.77v-7.25c0-.7-.03-1.1-.11-1.73,.54,.03,.88,.04,1.7,.04h4.05c.67,0,1.11-.03,1.73-.09v1.77c-.51-.07-.94-.09-1.73-.09h-3.86v2.76h3.26c.7,0,1.15-.03,1.74-.09v1.76c-.55-.08-.91-.09-1.74-.09h-3.27v3.16h4.02c.75,0,1.14-.03,1.71-.09v1.78Z"/>
      <path class="cls-1" d="M47.34,26.32q-.16,.04-1.13,.36c-.76,.24-1.19,.35-2.24,.55q-.01,1.81-.04,2.26h2.84c.91,0,1.14-.01,1.63-.09v1.61c-.5-.05-.75-.07-1.61-.07h-2.96c-.15,1.25-.43,2.14-.9,2.92-.47,.78-1.25,1.53-2.18,2.13-.38,.24-.63,.39-1.25,.67-.39-.68-.6-.94-1.17-1.42,.96-.35,1.47-.63,2.08-1.12,.8-.64,1.31-1.41,1.54-2.28,.05-.23,.09-.46,.15-.9h-3.31c-.86,0-1.11,.01-1.61,.07v-1.61c.5,.08,.72,.09,1.63,.09h3.43c.03-.56,.03-1.08,.03-2.02-1.08,.16-1.5,.2-3.71,.31-.13-.6-.2-.8-.5-1.45,.42,.03,.63,.03,.83,.03,1.79,0,4.09-.31,5.73-.78,.78-.23,1.17-.38,1.62-.63l1.07,1.37Z"/>
      <path class="cls-1" d="M53.45,28.29c-.11-.58-.13-.71-.25-1l1.59-.24c0,.27,.04,.56,.13,1.03l.2,1.03,4.01-.67c.39-.05,.62-.12,.88-.23l.94,.84c-.12,.17-.2,.32-.33,.64-.59,1.49-1.35,2.49-2.64,3.48-.48-.51-.68-.66-1.25-.95,.99-.62,1.73-1.39,2.28-2.4q-.16,.04-.5,.09l-3.15,.52,.95,4.96q.13,.74,.25,1.08l-1.67,.29c0-.35-.03-.64-.11-1.08l-.91-5-1.15,.19c-.47,.08-.79,.16-1.18,.29l-.28-1.53c.43,0,.76-.04,1.27-.12l1.11-.19-.2-1.06Z"/>
      <path class="cls-1" d="M64.48,34.22c1.15-.07,2.75-.46,3.97-.99,1.67-.72,2.92-1.76,3.98-3.28,.59-.86,.96-1.59,1.37-2.68,.52,.63,.74,.83,1.42,1.31-1.14,2.45-2.41,4.03-4.25,5.25-1.37,.91-3.03,1.57-5.1,2.01-.54,.11-.58,.12-.88,.23l-.5-1.85Zm1.14-8.32c1.59,.99,2.42,1.61,3.46,2.59l-1.15,1.46c-1.07-1.14-2.17-2.02-3.42-2.72l1.11-1.33Z"/>
      <path class="cls-1" d="M81.92,36.69c.05-.36,.08-.75,.08-1.19v-3.5c-.13,.11-.23,.16-.4,.25-1,.54-2.14,.99-3.78,1.5-.25-.64-.38-.87-.79-1.46,1.33-.28,2.37-.63,3.72-1.25,1.55-.71,3-1.69,4.15-2.84h-.28q-.08,.01-4.9,.04c-.78,0-.92,.01-1.42,.07v-1.62c.35,.08,.86,.12,1.43,.12h2.24v-1.1c-.01-.5-.01-.68-.07-.96h1.79c-.05,.25-.07,.5-.07,.94v1.11h2.26c.4,0,.66-.04,.91-.12l.78,.91c-.23,.17-.24,.19-.59,.58-.75,.87-1.45,1.5-2.73,2.5,1.62,.51,3.08,1.17,4.68,2.1l-.88,1.41c-1.37-.88-2.41-1.43-4.09-2.14-.17-.08-.2-.08-.33-.15,.01,.16,.03,.54,.03,.66v2.95c0,.59,0,.8,.07,1.19h-1.81Z"/>
      <path class="cls-1" d="M94.61,25.45q-.05,.38-.13,3c-.09,2.61-.39,4.13-1.08,5.51-.46,.92-.96,1.61-1.85,2.48-.52-.67-.72-.87-1.35-1.3,.66-.54,.98-.9,1.38-1.54,.96-1.54,1.27-3.27,1.27-7.02,0-.74,0-.86-.05-1.22l1.82,.09Zm3.55-.16c-.07,.39-.08,.62-.09,1.27l-.07,7.62c.94-.44,1.47-.84,2.05-1.53,.62-.72,1-1.46,1.31-2.45,.47,.6,.64,.78,1.26,1.26-.55,1.33-1.25,2.33-2.13,3.12-.76,.66-1.46,1.06-2.85,1.61-.29,.11-.4,.16-.58,.24l-.86-.91c.09-.39,.11-.68,.12-1.42l.07-7.56v-.4c0-.33-.01-.63-.05-.88l1.82,.03Z"/>
      <path class="cls-1" d="M3.38,53.74v-8.11h4.9v2.61h-2.14v5.49H3.38Zm1.74-6.46h2.14v-.68h-2.87v6.16h.72v-5.48Z"/>
      <path class="cls-1" d="M17.3,57.29c-.08-.44-.23-1.02-.38-1.41l-.54-1.46h-4.29l-.54,1.46c-.24,.64-.29,.84-.4,1.41h-2.2c.2-.36,.47-.96,.71-1.58l2.95-7.73c.25-.67,.36-1,.43-1.35h2.33c.07,.32,.15,.54,.46,1.35l2.97,7.73c.33,.86,.5,1.23,.68,1.58h-2.2Zm-2.83-8.37c-.05-.15-.09-.31-.24-.75q-.21,.63-.25,.75l-1.39,3.97h3.32l-1.43-3.97Z"/>
      <path class="cls-1" d="M29.7,54.03c-.25,.96-.5,1.49-.9,2.01-.76,.94-2.05,1.46-3.66,1.46-1.46,0-2.62-.44-3.44-1.29-.94-.98-1.46-2.49-1.46-4.21s.56-3.32,1.57-4.33c.8-.82,2.01-1.27,3.35-1.27,1.04,0,1.84,.2,2.57,.64,.6,.38,1.08,.87,1.42,1.46,.16,.28,.25,.52,.42,1.03l-1.86,.43c-.19-.59-.31-.84-.58-1.15-.46-.55-1.13-.83-1.96-.83-1.9,0-3.05,1.49-3.05,3.95s1.18,3.98,3.05,3.98c.94,0,1.74-.36,2.17-.99,.23-.33,.33-.62,.44-1.23l1.92,.33Z"/>
      <path class="cls-1" d="M38.82,57.38c-.48-.07-.91-.09-1.73-.09h-4.18c-.8,0-1.17,.01-1.7,.04,.08-.54,.11-.98,.11-1.77v-7.25c0-.7-.03-1.1-.11-1.73,.54,.03,.88,.04,1.7,.04h4.05c.67,0,1.11-.03,1.73-.09v1.77c-.51-.07-.94-.09-1.73-.09h-3.86v2.76h3.26c.7,0,1.15-.03,1.74-.09v1.75c-.55-.08-.91-.09-1.74-.09h-3.27v3.16h4.02c.75,0,1.14-.03,1.71-.09v1.78Z"/>
      <path class="cls-1" d="M40.12,52.63c.58-.4,1.15-1.06,2.92-3.28,.35-.43,.58-.67,.83-.84,.36-.27,.74-.4,1.07-.4,.4,0,.8,.17,1.21,.51,.19,.16,.48,.47,.9,.96,1.22,1.43,2.52,2.76,4.01,4.1,.68,.6,1.02,.87,1.46,1.12l-.82,1.9c-.13-.16-.19-.21-.39-.39-.7-.62-1.76-1.62-2.73-2.6-1.02-1.04-1.04-1.09-2.48-2.72-.83-.95-.91-1.02-1.17-1.02-.21,0-.35,.12-.8,.72-1.1,1.47-1.83,2.37-2.64,3.24-.15,.16-.17,.2-.28,.36l-1.09-1.67Z"/>
      <path class="cls-1" d="M59.32,54.01c-.76,1.73-1.62,2.52-2.72,2.52-1.53,0-2.63-1.55-2.63-3.71,0-1.47,.52-2.85,1.47-3.9,1.12-1.23,2.71-1.88,4.61-1.88,3.22,0,5.31,1.96,5.31,4.97,0,2.32-1.21,4.17-3.26,5-.64,.27-1.17,.4-2.1,.56-.23-.71-.39-1-.82-1.57,1.23-.16,2.04-.38,2.67-.74,1.17-.64,1.86-1.92,1.86-3.35,0-1.29-.58-2.33-1.65-2.97-.42-.24-.76-.35-1.35-.4-.25,2.1-.72,3.95-1.39,5.47Zm-1.97-4.8c-1.12,.8-1.82,2.18-1.82,3.62,0,1.1,.47,1.97,1.06,1.97,.44,0,.9-.56,1.38-1.71,.51-1.21,.95-3.01,1.11-4.53-.7,.08-1.18,.27-1.73,.66Z"/>
      <path class="cls-1" d="M68.77,54.17c0-.56,0-.64,.03-1.55-.35,.42-.75,.8-1.22,1.14-.2-.6-.38-.95-.67-1.43,1.41-.91,2.79-2.38,3.3-3.54l1.26,.83c-.13,.15-.25,.31-.44,.59-.31,.44-.43,.62-.78,1.04v5.28c0,.71,.03,1.25,.09,1.69h-1.66c.07-.42,.09-1,.09-1.7v-2.34Zm2.49-7.49q-.15,.16-.4,.46c-.87,1.04-1.82,1.88-3.08,2.68-.27-.52-.5-.84-.84-1.26,1.06-.58,1.74-1.11,2.4-1.83,.29-.35,.47-.6,.64-.94l1.29,.9Zm1.81,4.61c-.62,0-1.23,.03-1.65,.08v-1.5c.4,.05,1,.08,1.65,.08h4.55c.75,0,1.29-.03,1.63-.08v1.5c-.44-.05-1-.08-1.59-.08h-.58v5.33c0,1.15-.39,1.43-2.01,1.43-.46,0-.86-.01-1.49-.04-.08-.59-.16-.94-.39-1.5,.71,.09,1.41,.15,1.82,.15,.54,0,.6-.03,.6-.32v-5.05h-2.56Zm-1.11-4.82c.38,.05,.87,.08,1.57,.08h3.62c.67,0,1.12-.03,1.53-.08v1.49c-.47-.05-.96-.08-1.5-.08h-3.64c-.56,0-1.13,.03-1.57,.08v-1.49Z"/>
      <path class="cls-1" d="M81.55,47.99c.39,.04,.7,.05,1.29,.05,1.02,0,1.74-.04,2.76-.15q-.04-.11-.15-.35c-.33-.78-.52-1.19-.54-1.22l1.67-.23c.05,.33,.19,.74,.55,1.62,1.14-.15,2.69-.5,3.62-.8l.13,1.42q-.13,.03-.46,.09c-.9,.21-2.38,.51-2.8,.56,.21,.5,.29,.67,.52,1.1,1.15-.24,1.77-.38,1.85-.39,.76-.19,.92-.24,1.27-.39l.13,1.46c-.25,.04-.54,.09-.84,.17-.55,.13-.99,.23-1.31,.29q-.33,.07-.5,.11c.7,1.15,.91,1.43,1.79,2.45l-1.18,.84c-.96-.4-1.77-.55-3.08-.55-1.02,0-1.8,.13-2.25,.38-.38,.21-.58,.5-.58,.82s.23,.63,.58,.78c.43,.19,1.14,.29,1.92,.29,1.39,0,3.28-.4,4.13-.87l.24,1.65q-.25,.04-.87,.2c-1.14,.31-2.25,.46-3.43,.46-1.54,0-2.52-.2-3.27-.66-.64-.4-1.03-1.09-1.03-1.84s.4-1.39,1.12-1.86c.7-.44,1.77-.67,3.12-.67,.82,0,1.59,.09,2.32,.28-.21-.2-.47-.58-1.03-1.5-1.42,.21-2.28,.27-5.18,.36-.23,.01-.32,.01-.55,.04l-.05-1.46c.39,.05,.47,.05,1.38,.05,1.41,0,2.52-.08,3.79-.25-.08-.16-.13-.24-.24-.5-.13-.28-.17-.36-.28-.6-1.07,.12-2.04,.17-3.59,.19-.56,0-.63,.01-.91,.03l-.07-1.42Z"/>
      <path class="cls-1" d="M98.98,47.01c0-.44-.03-.79-.09-1.11h1.73c-.05,.28-.08,.63-.08,1.11v.82h3.68c.75,0,1.23-.03,1.69-.09v1.62c-.42-.05-.83-.08-1.63-.08h-4.9c-.07,1-.07,1.04-.11,1.45h3.71c.7,0,1.07-.01,1.38-.07,0,.07,0,.11-.01,.13-.03,.2-.03,.36-.05,.94-.05,2.01-.23,3.74-.46,4.7-.31,1.27-.75,1.61-2.09,1.61-.47,0-.78-.01-1.81-.09-.05-.62-.16-1.06-.39-1.55,.78,.12,1.39,.17,2.01,.17s.72-.15,.9-1.07c.16-.8,.24-1.65,.29-3.36h-3.7c-.56,2.69-1.77,4.41-4.3,6.07-.33-.59-.59-.88-1.09-1.27,1.18-.74,1.75-1.21,2.4-1.98,1.15-1.38,1.61-2.93,1.67-5.67h-2.2c-.67,0-1.22,.03-1.67,.08v-1.62c.48,.07,.99,.09,1.67,.09h3.44v-.82Z"/>
      <path class="cls-1" d="M111.97,50.32v8.12h-4.9v-2.61h2.14v-5.51h2.76Zm-1.74,6.47h-2.14v.68h2.87v-6.18h-.72v5.49Z"/>
    </g>
  </g>
</svg>