<?xml version="1.0" encoding="UTF-8"?>
<svg id="_レイヤー_2" data-name="レイヤー 2" xmlns="http://www.w3.org/2000/svg" viewBox="0 0 309.67 42.87">
  <defs>
    <style>
      .cls-1 {
        stroke: #f7f8f8;
        stroke-width: 3px;
      }

      .cls-1, .cls-2 {
        fill: none;
        stroke-linecap: round;
        stroke-linejoin: round;
      }

      .cls-2 {
        stroke: #a5daeb;
        stroke-width: 8px;
      }

      .cls-3 {
        fill: #00a0e9;
      }
    </style>
  </defs>
  <g id="_レイヤー1" data-name="レイヤー1">
    <g>
      <path class="cls-2" d="M20.12,7.64q-.16,.68-.52,3.32c-.84,5.76-1.72,9.64-3.04,13.56-1.76,5.2-3.72,8.8-7.08,12.92-2.08-2-2.88-2.6-5.48-4.08,2.76-3,4.24-5.24,5.72-8.72,1.72-4,2.92-8.64,3.6-13.68,.24-1.72,.32-2.96,.32-4.04v-.44l6.48,1.16Zm11.48-1.16c.16,2.28,.68,5.2,1.6,8.96,.92,3.84,2.44,7.84,4.2,11.08,1.28,2.36,2.44,4.04,4.64,6.64-2.48,1.52-3.32,2.2-5.32,4.32-3.08-3.96-5-7.4-6.84-12.36-1.68-4.4-2.92-9.52-3.64-14.48-.2-1.6-.36-2.44-.52-3.04l5.88-1.12Zm13.96,11.48c1.8,.24,3.24,.32,7.32,.32h20.24c4.04,0,5.48-.04,7.32-.28v6.56c-1.6-.12-4.24-.2-7.36-.2h-20.2c-3.48,0-5.76,.08-7.32,.24v-6.64Zm47.64,20.72c.2-1.52,.24-2.92,.24-5.64V9.36c0-2.84-.04-3.96-.24-5.36h6.52c-.2,1.52-.24,2.44-.24,5.36v6.08c6.2,2.12,11.68,4.6,18.2,8.4l-3.28,5.76c-3.56-2.44-8.8-5.28-13.4-7.28-.76-.32-.92-.4-1.52-.72v11.52c0,2.56,.08,4.04,.24,5.56h-6.52ZM158.87,9.44c-.36,.64-.48,.88-.76,2-1.88,7.44-4.24,12.44-8.08,16.88-3.68,4.32-8.2,7.44-15.08,10.52-1.32-2.56-1.96-3.44-4.24-5.72,3.48-1.08,5.68-2.12,8.6-3.96,6.16-3.92,10.08-9.4,11.92-16.68h-17.52c-3.28,0-4.56,.04-6.2,.24V6.6c1.72,.24,2.96,.28,6.28,.28h18.32c1.76,0,2.56-.08,3.64-.44l3.12,3Zm19.2-4.2q-.16,1.2-.44,9.08c-.28,8.32-1.04,12.48-3.16,16.84-1.4,2.92-2.88,5-5.48,7.64-1.92-2.44-2.68-3.16-4.84-4.68,3.08-2.72,4.8-5.28,6-9.16,.84-2.64,1.2-4.96,1.44-9.2,.08-1.96,.16-4.68,.16-6.84s-.04-3-.16-4.04l6.48,.36Zm10.96-.6c-.24,1.64-.28,2.12-.32,4.84l-.2,21.28c2.48-1.36,3.96-2.56,5.48-4.48,1.64-2.08,2.72-4.24,3.56-7.08,1.64,2.08,2.28,2.72,4.48,4.48-1.68,4.16-3.8,7.24-6.64,9.72-2.32,2-4.36,3.16-8.44,4.68-1,.36-1.32,.48-1.84,.8l-2.96-3.16c.28-1.12,.36-1.92,.4-3.84l.16-22.48v-1.12c0-1.76-.04-2.68-.16-3.68l6.48,.04Zm49.16,32.75c-.28-1.64-.64-3.04-1.04-4.24l-1.36-3.88h-12.08l-1.36,3.88c-.64,1.8-.88,2.88-1.08,4.24h-7.92c.64-1.2,1.2-2.52,2.04-4.8l8.72-23.56c.72-2,1.04-3.04,1.28-4.16h8.6c.24,1.04,.48,1.88,1.36,4.16l8.8,23.56c.76,2.04,1.48,3.8,1.96,4.8h-7.92Zm-7.88-25.08c-.12-.36-.28-.76-.6-1.84-.24,.84-.28,1.04-.56,1.84l-3.76,11.32h8.72l-3.8-11.32Zm40.12,3.32c-.4-1.44-.72-2.2-1.32-3.04-1.2-1.76-3.12-2.64-5.6-2.64-2.28,0-4.24,.76-5.64,2.24-1.84,1.92-2.84,5-2.84,8.84,0,7,3.24,11.24,8.6,11.24,2.52,0,4.6-.96,5.84-2.72,.64-.96,.96-1.8,1.24-3.56l6.96,1.12c-.8,3.2-1.56,4.88-3,6.6-2.36,2.84-6.24,4.36-11,4.36s-8.44-1.44-11.04-4.12c-2.92-3-4.52-7.6-4.52-12.88s1.72-10,4.96-13.12c2.6-2.48,6.16-3.76,10.48-3.76,5,0,8.88,1.72,11.4,5.04,1.16,1.52,1.76,2.8,2.32,4.96l-6.84,1.44Zm35.24,22.04c-1.48-.2-2.96-.28-5.56-.28h-12.8c-2.72,0-3.84,.04-5.48,.12,.24-1.6,.32-3,.32-5.56V10.24c0-2.28-.08-3.6-.32-5.48,1.64,.08,2.68,.12,5.44,.12h12.4c2.16,0,3.52-.08,5.56-.28v6.32c-1.68-.2-3.04-.28-5.56-.28h-10.92v7.16h9.12c2.24,0,3.72-.08,5.6-.28v6.24c-1.72-.2-2.96-.28-5.6-.28h-9.16v8.12h11.44c2.48,0,3.76-.08,5.52-.28v6.36Z"/>
      <path class="cls-1" d="M20.12,7.64q-.16,.68-.52,3.32c-.84,5.76-1.72,9.64-3.04,13.56-1.76,5.2-3.72,8.8-7.08,12.92-2.08-2-2.88-2.6-5.48-4.08,2.76-3,4.24-5.24,5.72-8.72,1.72-4,2.92-8.64,3.6-13.68,.24-1.72,.32-2.96,.32-4.04v-.44l6.48,1.16Zm11.48-1.16c.16,2.28,.68,5.2,1.6,8.96,.92,3.84,2.44,7.84,4.2,11.08,1.28,2.36,2.44,4.04,4.64,6.64-2.48,1.52-3.32,2.2-5.32,4.32-3.08-3.96-5-7.4-6.84-12.36-1.68-4.4-2.92-9.52-3.64-14.48-.2-1.6-.36-2.44-.52-3.04l5.88-1.12Zm13.96,11.48c1.8,.24,3.24,.32,7.32,.32h20.24c4.04,0,5.48-.04,7.32-.28v6.56c-1.6-.12-4.24-.2-7.36-.2h-20.2c-3.48,0-5.76,.08-7.32,.24v-6.64Zm47.64,20.72c.2-1.52,.24-2.92,.24-5.64V9.36c0-2.84-.04-3.96-.24-5.36h6.52c-.2,1.52-.24,2.44-.24,5.36v6.08c6.2,2.12,11.68,4.6,18.2,8.4l-3.28,5.76c-3.56-2.44-8.8-5.28-13.4-7.28-.76-.32-.92-.4-1.52-.72v11.52c0,2.56,.08,4.04,.24,5.56h-6.52ZM158.87,9.44c-.36,.64-.48,.88-.76,2-1.88,7.44-4.24,12.44-8.08,16.88-3.68,4.32-8.2,7.44-15.08,10.52-1.32-2.56-1.96-3.44-4.24-5.72,3.48-1.08,5.68-2.12,8.6-3.96,6.16-3.92,10.08-9.4,11.92-16.68h-17.52c-3.28,0-4.56,.04-6.2,.24V6.6c1.72,.24,2.96,.28,6.28,.28h18.32c1.76,0,2.56-.08,3.64-.44l3.12,3Zm19.2-4.2q-.16,1.2-.44,9.08c-.28,8.32-1.04,12.48-3.16,16.84-1.4,2.92-2.88,5-5.48,7.64-1.92-2.44-2.68-3.16-4.84-4.68,3.08-2.72,4.8-5.28,6-9.16,.84-2.64,1.2-4.96,1.44-9.2,.08-1.96,.16-4.68,.16-6.84s-.04-3-.16-4.04l6.48,.36Zm10.96-.6c-.24,1.64-.28,2.12-.32,4.84l-.2,21.28c2.48-1.36,3.96-2.56,5.48-4.48,1.64-2.08,2.72-4.24,3.56-7.08,1.64,2.08,2.28,2.72,4.48,4.48-1.68,4.16-3.8,7.24-6.64,9.72-2.32,2-4.36,3.16-8.44,4.68-1,.36-1.32,.48-1.84,.8l-2.96-3.16c.28-1.12,.36-1.92,.4-3.84l.16-22.48v-1.12c0-1.76-.04-2.68-.16-3.68l6.48,.04Zm49.16,32.75c-.28-1.64-.64-3.04-1.04-4.24l-1.36-3.88h-12.08l-1.36,3.88c-.64,1.8-.88,2.88-1.08,4.24h-7.92c.64-1.2,1.2-2.52,2.04-4.8l8.72-23.56c.72-2,1.04-3.04,1.28-4.16h8.6c.24,1.04,.48,1.88,1.36,4.16l8.8,23.56c.76,2.04,1.48,3.8,1.96,4.8h-7.92Zm-7.88-25.08c-.12-.36-.28-.76-.6-1.84-.24,.84-.28,1.04-.56,1.84l-3.76,11.32h8.72l-3.8-11.32Zm40.12,3.32c-.4-1.44-.72-2.2-1.32-3.04-1.2-1.76-3.12-2.64-5.6-2.64-2.28,0-4.24,.76-5.64,2.24-1.84,1.92-2.84,5-2.84,8.84,0,7,3.24,11.24,8.6,11.24,2.52,0,4.6-.96,5.84-2.72,.64-.96,.96-1.8,1.24-3.56l6.96,1.12c-.8,3.2-1.56,4.88-3,6.6-2.36,2.84-6.24,4.36-11,4.36s-8.44-1.44-11.04-4.12c-2.92-3-4.52-7.6-4.52-12.88s1.72-10,4.96-13.12c2.6-2.48,6.16-3.76,10.48-3.76,5,0,8.88,1.72,11.4,5.04,1.16,1.52,1.76,2.8,2.32,4.96l-6.84,1.44Zm35.24,22.04c-1.48-.2-2.96-.28-5.56-.28h-12.8c-2.72,0-3.84,.04-5.48,.12,.24-1.6,.32-3,.32-5.56V10.24c0-2.28-.08-3.6-.32-5.48,1.64,.08,2.68,.12,5.44,.12h12.4c2.16,0,3.52-.08,5.56-.28v6.32c-1.68-.2-3.04-.28-5.56-.28h-10.92v7.16h9.12c2.24,0,3.72-.08,5.6-.28v6.24c-1.72-.2-2.96-.28-5.6-.28h-9.16v8.12h11.44c2.48,0,3.76-.08,5.52-.28v6.36Z"/>
      <path class="cls-3" d="M20.12,7.64q-.16,.68-.52,3.32c-.84,5.76-1.72,9.64-3.04,13.56-1.76,5.2-3.72,8.8-7.08,12.92-2.08-2-2.88-2.6-5.48-4.08,2.76-3,4.24-5.24,5.72-8.72,1.72-4,2.92-8.64,3.6-13.68,.24-1.72,.32-2.96,.32-4.04v-.44l6.48,1.16Zm11.48-1.16c.16,2.28,.68,5.2,1.6,8.96,.92,3.84,2.44,7.84,4.2,11.08,1.28,2.36,2.44,4.04,4.64,6.64-2.48,1.52-3.32,2.2-5.32,4.32-3.08-3.96-5-7.4-6.84-12.36-1.68-4.4-2.92-9.52-3.64-14.48-.2-1.6-.36-2.44-.52-3.04l5.88-1.12Zm13.96,11.48c1.8,.24,3.24,.32,7.32,.32h20.24c4.04,0,5.48-.04,7.32-.28v6.56c-1.6-.12-4.24-.2-7.36-.2h-20.2c-3.48,0-5.76,.08-7.32,.24v-6.64Zm47.64,20.72c.2-1.52,.24-2.92,.24-5.64V9.36c0-2.84-.04-3.96-.24-5.36h6.52c-.2,1.52-.24,2.44-.24,5.36v6.08c6.2,2.12,11.68,4.6,18.2,8.4l-3.28,5.76c-3.56-2.44-8.8-5.28-13.4-7.28-.76-.32-.92-.4-1.52-.72v11.52c0,2.56,.08,4.04,.24,5.56h-6.52ZM158.87,9.44c-.36,.64-.48,.88-.76,2-1.88,7.44-4.24,12.44-8.08,16.88-3.68,4.32-8.2,7.44-15.08,10.52-1.32-2.56-1.96-3.44-4.24-5.72,3.48-1.08,5.68-2.12,8.6-3.96,6.16-3.92,10.08-9.4,11.92-16.68h-17.52c-3.28,0-4.56,.04-6.2,.24V6.6c1.72,.24,2.96,.28,6.28,.28h18.32c1.76,0,2.56-.08,3.64-.44l3.12,3Zm19.2-4.2q-.16,1.2-.44,9.08c-.28,8.32-1.04,12.48-3.16,16.84-1.4,2.92-2.88,5-5.48,7.64-1.92-2.44-2.68-3.16-4.84-4.68,3.08-2.72,4.8-5.28,6-9.16,.84-2.64,1.2-4.96,1.44-9.2,.08-1.96,.16-4.68,.16-6.84s-.04-3-.16-4.04l6.48,.36Zm10.96-.6c-.24,1.64-.28,2.12-.32,4.84l-.2,21.28c2.48-1.36,3.96-2.56,5.48-4.48,1.64-2.08,2.72-4.24,3.56-7.08,1.64,2.08,2.28,2.72,4.48,4.48-1.68,4.16-3.8,7.24-6.64,9.72-2.32,2-4.36,3.16-8.44,4.68-1,.36-1.32,.48-1.84,.8l-2.96-3.16c.28-1.12,.36-1.92,.4-3.84l.16-22.48v-1.12c0-1.76-.04-2.68-.16-3.68l6.48,.04Zm49.16,32.75c-.28-1.64-.64-3.04-1.04-4.24l-1.36-3.88h-12.08l-1.36,3.88c-.64,1.8-.88,2.88-1.08,4.24h-7.92c.64-1.2,1.2-2.52,2.04-4.8l8.72-23.56c.72-2,1.04-3.04,1.28-4.16h8.6c.24,1.04,.48,1.88,1.36,4.16l8.8,23.56c.76,2.04,1.48,3.8,1.96,4.8h-7.92Zm-7.88-25.08c-.12-.36-.28-.76-.6-1.84-.24,.84-.28,1.04-.56,1.84l-3.76,11.32h8.72l-3.8-11.32Zm40.12,3.32c-.4-1.44-.72-2.2-1.32-3.04-1.2-1.76-3.12-2.64-5.6-2.64-2.28,0-4.24,.76-5.64,2.24-1.84,1.92-2.84,5-2.84,8.84,0,7,3.24,11.24,8.6,11.24,2.52,0,4.6-.96,5.84-2.72,.64-.96,.96-1.8,1.24-3.56l6.96,1.12c-.8,3.2-1.56,4.88-3,6.6-2.36,2.84-6.24,4.36-11,4.36s-8.44-1.44-11.04-4.12c-2.92-3-4.52-7.6-4.52-12.88s1.72-10,4.96-13.12c2.6-2.48,6.16-3.76,10.48-3.76,5,0,8.88,1.72,11.4,5.04,1.16,1.52,1.76,2.8,2.32,4.96l-6.84,1.44Zm35.24,22.04c-1.48-.2-2.96-.28-5.56-.28h-12.8c-2.72,0-3.84,.04-5.48,.12,.24-1.6,.32-3,.32-5.56V10.24c0-2.28-.08-3.6-.32-5.48,1.64,.08,2.68,.12,5.44,.12h12.4c2.16,0,3.52-.08,5.56-.28v6.32c-1.68-.2-3.04-.28-5.56-.28h-10.92v7.16h9.12c2.24,0,3.72-.08,5.6-.28v6.24c-1.72-.2-2.96-.28-5.6-.28h-9.16v8.12h11.44c2.48,0,3.76-.08,5.52-.28v6.36Z"/>
    </g>
  </g>
</svg>